<svg id="Livello_1" data-name="Livello 1" xmlns="http://www.w3.org/2000/svg" viewBox="0 0 384.08 142.85"><defs><style>.cls-1{fill:#606060;}</style></defs><title>AdidasVideoHacking_white</title><path class="cls-1" d="M78.25,77.91a25.63,25.63,0,0,1,8-19,26.64,26.64,0,0,1,19.33-7.75,25.16,25.16,0,0,1,15,4.63V51.64h12.73v52.07H120.6v-3.47A27.27,27.27,0,0,1,86.23,97,26.06,26.06,0,0,1,78.25,77.91ZM95,67.49a15,15,0,1,0,21.29,21.06A15,15,0,0,0,105.67,63,14.28,14.28,0,0,0,95,67.49Z"/><path class="cls-1" d="M138.65,77.91a25.6,25.6,0,0,1,8-19,26.69,26.69,0,0,1,19.44-7.75,25.16,25.16,0,0,1,15,4.63V34.05h12.73v69.66H181.12v-3.47A27.27,27.27,0,0,1,146.75,97,25.72,25.72,0,0,1,138.65,77.91Zm16.78-10.42A14.55,14.55,0,1,0,166,63,14.36,14.36,0,0,0,155.43,67.49Z"/><path class="cls-1" d="M200.33,46.9V34.05h12.73V46.9Zm0,56.81V51.64h12.73v52.07Z"/><path class="cls-1" d="M217.8,77.91a25.6,25.6,0,0,1,8-19,26.69,26.69,0,0,1,19.44-7.75,25.16,25.16,0,0,1,15,4.63V34.05H273v69.66H260.27v-3.47A27.27,27.27,0,0,1,225.9,97,25.72,25.72,0,0,1,217.8,77.91Zm16.66-10.42A14.55,14.55,0,1,0,245,63,14.4,14.4,0,0,0,234.46,67.49Z"/><path class="cls-1" d="M277.51,77.91a25.63,25.63,0,0,1,8-19,26.72,26.72,0,0,1,19.44-7.75A25.19,25.19,0,0,1,320,55.81V51.64h12.73v52.07H320v-3.47A27.27,27.27,0,0,1,285.61,97,25.72,25.72,0,0,1,277.51,77.91Zm16.78-10.42A14.55,14.55,0,1,0,304.82,63,14.36,14.36,0,0,0,294.29,67.49Z"/><path class="cls-1" d="M337.1,87.05h13.54a7.93,7.93,0,0,0,2.9,5.55c1.73,1.51,4.16,2.2,7.52,2.2a10.7,10.7,0,0,0,6.13-1.62,4.62,4.62,0,0,0,2.31-3.82,3.64,3.64,0,0,0-.81-2.43,5.77,5.77,0,0,0-2.66-1.5,29.09,29.09,0,0,0-2.89-.69c-.69-.12-1.74-.24-2.89-.35-3.24-.46-5-.81-5-.81s-1.62-.46-4.74-1.27a21.8,21.8,0,0,1-6.83-2.9A13.29,13.29,0,0,1,340,74.9a14.53,14.53,0,0,1-1.62-6.83,15,15,0,0,1,5.67-12.26c3.82-3.13,9-4.63,15.73-4.63s11.81,1.5,15.74,4.63A17,17,0,0,1,382,68.19H368.93a11.34,11.34,0,0,0-.7-3.24,4.75,4.75,0,0,0-2.54-2.43,11,11,0,0,0-5.56-1.16,11.63,11.63,0,0,0-5.78,1.16,3.61,3.61,0,0,0-2.09,3.24,4.36,4.36,0,0,0,.23,1.27,2.69,2.69,0,0,0,.7,1,6.13,6.13,0,0,0,1,.81,6.26,6.26,0,0,0,1.5.7,12.9,12.9,0,0,0,1.62.46,16.27,16.27,0,0,0,1.74.46c.69.12,1.39.35,1.74.35a17.83,17.83,0,0,0,1.85.35l1.85.34a66.73,66.73,0,0,1,7.52,1.62,25.25,25.25,0,0,1,6,2.67,12.32,12.32,0,0,1,4.51,4.62,14.84,14.84,0,0,1,1.5,7.06c0,5.67-2.08,9.95-6.36,13s-9.84,4.4-16.78,4.4c-7.29,0-13.07-1.62-17.12-4.74C339.53,97,337.34,92.6,337.1,87.05Z"/><rect class="cls-1" x="6.3" y="34.41" width="45.29" height="10.67"/><path class="cls-1" d="M52.55,54.28v83.6a1,1,0,0,1-1,1H5a1,1,0,0,1-1-1V54.28H52.55m4-4H0v87.6a5,5,0,0,0,5,5H51.59a5,5,0,0,0,5-5V50.28Z"/><path class="cls-1" d="M38.69,10.62H19.42a5,5,0,0,0-5,5V29.22h29.2V15.58A5,5,0,0,0,38.69,10.62Z"/><rect class="cls-1" x="55.58" y="17.62" width="16.08" height="4.04"/><polygon class="cls-1" points="63.41 6.33 54.86 15.12 52.72 12.92 61.28 4.13 63.41 6.33"/><polygon class="cls-1" points="54.86 24.63 63.41 33.42 61.28 35.62 52.72 26.83 54.86 24.63"/><path class="cls-1" d="M79.42,115.85h4.63l4.55,12.06h.05l4.63-12.06h4.34L90,134.26H86.78Z"/><path class="cls-1" d="M107,115.85H111v18.41H107Z"/><path class="cls-1" d="M122.17,115.85h6.08a17.9,17.9,0,0,1,4.2.49,9.79,9.79,0,0,1,3.47,1.6,7.84,7.84,0,0,1,2.35,2.88,9.65,9.65,0,0,1,.87,4.29,8.82,8.82,0,0,1-.84,3.94,8.62,8.62,0,0,1-2.28,2.86,10,10,0,0,1-3.3,1.75,12.8,12.8,0,0,1-3.92.6h-6.63Zm4,14.66h2.11a11.42,11.42,0,0,0,2.61-.28,5.57,5.57,0,0,0,2.09-.95,4.44,4.44,0,0,0,1.39-1.74,6.15,6.15,0,0,0,.51-2.64,5.09,5.09,0,0,0-.51-2.35,4.69,4.69,0,0,0-1.36-1.66,6,6,0,0,0-2-1,8.8,8.8,0,0,0-2.43-.33h-2.39Z"/><path class="cls-1" d="M149.52,115.85H162v3.74h-8.45V123h8v3.74h-8v3.74h8.92v3.75h-13Z"/><path class="cls-1" d="M172.21,125.05a10.29,10.29,0,0,1,.75-4,8.7,8.7,0,0,1,2.06-3,9.22,9.22,0,0,1,3.15-1.94,12,12,0,0,1,8,0,9,9,0,0,1,3.15,1.94,8.86,8.86,0,0,1,2.07,3,11.21,11.21,0,0,1,0,8,8.81,8.81,0,0,1-5.22,5,12,12,0,0,1-8,0,9.07,9.07,0,0,1-3.15-1.94,8.79,8.79,0,0,1-2.06-3.05A10.31,10.31,0,0,1,172.21,125.05Zm4.22,0a6.72,6.72,0,0,0,.4,2.38,5.41,5.41,0,0,0,1.16,1.88,5.29,5.29,0,0,0,1.8,1.23,6.52,6.52,0,0,0,4.71,0,5.43,5.43,0,0,0,1.81-1.23,5.54,5.54,0,0,0,1.15-1.88,7.05,7.05,0,0,0,0-4.74,5.49,5.49,0,0,0-1.15-1.89,5.43,5.43,0,0,0-1.81-1.23,6.52,6.52,0,0,0-4.71,0,5.29,5.29,0,0,0-1.8,1.23,5.36,5.36,0,0,0-1.16,1.89A6.76,6.76,0,0,0,176.43,125.05Z"/><path class="cls-1" d="M217.45,115.85h4.06v6.86h7.88v-6.86h4.05v18.41h-4.05v-8h-7.88v8h-4.06Z"/><path class="cls-1" d="M250.71,115.85h3.35l8,18.41h-4.58l-1.58-3.9h-7.15l-1.54,3.9h-4.47Zm1.56,5.36L250,126.93h4.5Z"/><path class="cls-1" d="M283.42,120.63a4,4,0,0,0-1.47-1.11,4.92,4.92,0,0,0-2-.39,5,5,0,0,0-2.12.44,5.15,5.15,0,0,0-1.69,1.23,5.92,5.92,0,0,0-1.12,1.89,7.22,7.22,0,0,0,0,4.74,6,6,0,0,0,1.11,1.88,5.09,5.09,0,0,0,1.65,1.23,4.68,4.68,0,0,0,2,.44,4.54,4.54,0,0,0,2.21-.52A4.41,4.41,0,0,0,283.6,129l3.38,2.52a7.05,7.05,0,0,1-3,2.42,9.12,9.12,0,0,1-3.69.78,11.39,11.39,0,0,1-4-.68,8.93,8.93,0,0,1-3.14-1.94,8.68,8.68,0,0,1-2.07-3.05,11.21,11.21,0,0,1,0-8,8.59,8.59,0,0,1,2.07-3,9.08,9.08,0,0,1,3.14-1.94,11.39,11.39,0,0,1,4-.68,9.41,9.41,0,0,1,1.63.15,8.35,8.35,0,0,1,1.66.45,7.63,7.63,0,0,1,1.57.83,6.09,6.09,0,0,1,1.36,1.28Z"/><path class="cls-1" d="M296.81,115.85h4.05v7.65l7.15-7.65h5.31l-8.19,8.56,8.89,9.85h-5.67l-7.49-8.74v8.74h-4.05Z"/><path class="cls-1" d="M322.83,115.85h4.06v18.41h-4.06Z"/><path class="cls-1" d="M338,115.85h5.51l7.83,12.79h.05V115.85h4.06v18.41h-5.31l-8-13.1h0v13.1H338Z"/><path class="cls-1" d="M383.36,133a15,15,0,0,1-3.74,1.35,18.87,18.87,0,0,1-4,.42,11.35,11.35,0,0,1-4-.68,9.07,9.07,0,0,1-3.15-1.94,8.79,8.79,0,0,1-2.06-3.05,11.21,11.21,0,0,1,0-8,8.7,8.7,0,0,1,2.06-3,9.22,9.22,0,0,1,3.15-1.94,11.35,11.35,0,0,1,4-.68,14.57,14.57,0,0,1,4.07.54,7.87,7.87,0,0,1,3.26,1.83l-2.86,3.12a5.74,5.74,0,0,0-1.87-1.3,6.6,6.6,0,0,0-2.6-.44,6,6,0,0,0-2.36.44,5.29,5.29,0,0,0-1.8,1.23,5.36,5.36,0,0,0-1.16,1.89,7.22,7.22,0,0,0,0,4.74,5.41,5.41,0,0,0,1.16,1.88,5.29,5.29,0,0,0,1.8,1.23,6,6,0,0,0,2.36.44,7.68,7.68,0,0,0,2.28-.3,8.33,8.33,0,0,0,1.54-.61v-3h-3.3v-3.74h7.2Z"/><polygon class="cls-1" points="18.4 108.88 18.4 80.13 43.42 94.59 18.4 108.88"/></svg>