<svg id="Livello_1" data-name="Livello 1" xmlns="http://www.w3.org/2000/svg" viewBox="0 0 42.94 42.91"><defs><style>.cls-1{fill:#1f1f1f;}.cls-2{fill:#202020;}</style></defs><title>Tavola disegno 13 copia 4</title><circle class="cls-1" cx="21.47" cy="21.2" r="17.6"/><path class="cls-2" d="M21.47,36.8c-.06.26,0,.85.12.72l.1-1Z"/><path class="cls-2" d="M22.54,38.59a4.69,4.69,0,0,0,.11-2.25c-.1,1-.16.56-.29,1.71-.15.12-.28-.31-.27-.67,0,.25-.23-.21-.3.42.21.75.49.77.72.13A2.12,2.12,0,0,1,22.54,38.59Z"/><path class="cls-2" d="M36.93,32.2l-.16,0A.26.26,0,0,0,36.93,32.2Z"/><path class="cls-2" d="M40.94,22.49c0,.09.12.13.21.14C41.08,22.55,41,22.48,40.94,22.49Z"/><path class="cls-2" d="M42.07,20.63a.6.6,0,0,0-.06.11C42.1,20.7,42.15,20.65,42.07,20.63Z"/><path class="cls-2" d="M36.93,32.2l.42-.05C37.1,32,37.07,32.13,36.93,32.2Z"/><path class="cls-2" d="M24.23,36a.67.67,0,0,0-.08.27l.1-.12A.77.77,0,0,1,24.23,36Z"/><path class="cls-2" d="M34.35,36.21l-.07.06.21.36Z"/><path class="cls-2" d="M31.41,38.47c.09,0-.31-.75-.47-1.08a1,1,0,0,1,.14.59A5.28,5.28,0,0,0,31.41,38.47Z"/><path class="cls-2" d="M25.6,39.18l-.07.14A.61.61,0,0,0,25.6,39.18Z"/><path class="cls-2" d="M36.36,34.48l.25.18A1.05,1.05,0,0,0,36.36,34.48Z"/><path class="cls-2" d="M18.54,34.51c0,.06,0,.1,0,.15S18.55,34.52,18.54,34.51Z"/><path class="cls-2" d="M21.47,39l0,.05c0,.16,0,.31,0,.47Z"/><path class="cls-2" d="M42.74,16.88s0,0,0,0S42.82,16.93,42.74,16.88Z"/><path class="cls-2" d="M17,.59c.51.65-.36,1.09.34,1.78C17.22,2.06,17.56,1,17,.59Z"/><path class="cls-2" d="M24.32,36.08a.2.2,0,0,1,.11,0C24.37,36,24.34,36,24.32,36.08Z"/><path class="cls-2" d="M17.35,2.37h0l.07.06Z"/><path class="cls-2" d="M39,9.26a2.16,2.16,0,0,0-.26.28A1.22,1.22,0,0,0,39,9.26Z"/><path class="cls-2" d="M40.57,15.25l.06-.17A.31.31,0,0,0,40.57,15.25Z"/><path class="cls-2" d="M36.07,7.55c0-.11.06-.21-.09-.21a.31.31,0,0,0,0,.1C36,7.39,36.11,7.39,36.07,7.55Z"/><path class="cls-2" d="M33.71,5.4a1.09,1.09,0,0,0-.05.17l.1,0Z"/><path class="cls-2" d="M12.4,31.91c-.12.21-.26.44-.41.65C12.35,32.08,12.73,32.14,12.4,31.91Z"/><path class="cls-2" d="M24.31,36.44a.72.72,0,0,1,0-.36.18.18,0,0,0-.07.05A1.06,1.06,0,0,0,24.31,36.44Z"/><path class="cls-2" d="M31.16,12,31,11.68A.61.61,0,0,0,31.16,12Z"/><path class="cls-2" d="M7.87,17.28l.07.11S8,17.33,7.87,17.28Z"/><path class="cls-2" d="M30.18,11.09a1.77,1.77,0,0,0,.24-.57,1,1,0,0,0-.17.14Z"/><path class="cls-2" d="M12,32.57h0Z"/><path class="cls-2" d="M15,32.25c-.25-.18-.69.86-1.07,1.36-.53,0,.26-.79.45-1.34-.36.14-1.1.87-1.22.71a1.26,1.26,0,0,1,.26-.39c-.73.54-.65-.44-1.61.22a1.38,1.38,0,0,1,.14-.24,13.07,13.07,0,0,1-.93,1.2c-.14-.1-.7.31-.28-.28.07.09.27-.13.45-.27l-.34.12c.57-.89.42-.11.92-.69-.46,0-1.35.39-1.35,0,.66-.77.68.16,1.05-.73l0,.55c.86-1.4.1.24,1-1.23-.13-.53-.76,0-.87-.52-.48.32-.58.62-1.06.93-1.26.12,1.53-2.13.17-1.61-.6.34-1.64,1.09-1.34.36l1-.61c-.18-.43-1.49.77-1.17-.1.42-.18.54.09.61-.05.54-.79-.68.19-.84,0L9.86,29c-.37-.34-1.34-.43-1.77-.89a1.79,1.79,0,0,0,.83-.43,1,1,0,0,1-.53-1,4.19,4.19,0,0,1,.37-1.27l-.92,0c0-.06.35-.23.52-.22.26-.34-.53.15-.89.13-.1-.14.43-.34.71-.32-.83-.21-1.92-1-1-1.64l.27.06c.3-.42-1.86-.2-1.1-.69l.16.06c.32-.89-.54-1.9.86-2.49-1.26-.22.6-.78-1.13-1,1-.38,1.24-.2,1.92-.74.09-.15-1-.47-1.16-.75l.91.21L7,17.53l1.11.12-.18-.26a1.08,1.08,0,0,1-.69,0c-.33-.45.82-.6,1.29-.44-.16-.32-.32-.64-.48-1a1.87,1.87,0,0,1,.61.49c-.75-.71.93.29.25-.36a3.28,3.28,0,0,1-.68-.32c.58,0,.78-.31.7-.7l.54.33c.35-.42.27-1.14.6-1.67-.36,0-1.27-.6-1.25-.84l.85.48c-.44-.45-.41,0-.89-.67.24-.14,1,.5,1.2.78l-.11-.42c.25.15.33.3.63.52-.42-.45,1.07.21.32-.55l.24.16c.34-.48.32-.86.6-1.28-.6-.59-.33-.6-.71-1.21.5-.08,1.26.13,1.54-.23,0-.53-.38-.61-.58-1.1.51.58.83.25,1,.83a3.07,3.07,0,0,0,.72-1.45c-.24-.23-.39-.29-.49-.54s.44.11.61.44v.08c.06-.7.76-.5,1.38-.21s1.11.49,1.11-.34v.09c.1-.33.21-.67.33-1,.33,0,0,.61.38,1,.11-.74.41-.78.69-.73s.54.12.73-.37c.46,1,.8,1,1.17.76a1.55,1.55,0,0,1,.57-.24c.19,0,.38.11.54.47l-.07-.54c.12-.53.21.3.32.42,0-.42-.19-.47-.11-.77a1.92,1.92,0,0,1,2,.24,8.91,8.91,0,0,1,.9.69l.42.34a4.12,4.12,0,0,0,.4.33c.38.25,1-2.6,1.22-1.22l-.45.9a1.39,1.39,0,0,1,1.54,0,1.66,1.66,0,0,0,1.52.28c-.16.17-.3.42-.39.38-.17.72.6.41.92-.09.1.14-.24.47-.32.77-.07.46.93-.52.62.15a.49.49,0,0,1-.24.18c.3-.21.42.43.81-.31.05.53.8.11.71.69.75-.58.16.75,1.09-.18-.94,1-.28,1.19.32.95-.35.23-.17.44-.65.76.18.17.53.18,1-.31-.45.71,0,.65.3.67s.63.05-.13.77c.26,0,.51.1.75.16l.65.25a4.45,4.45,0,0,1,1.1.68c-1.19.59-.52-.66-1.74.09.84.23,2,.14,2,.9-.09.23-.58.14-.81.19.41.18.47.52.58.81a1.12,1.12,0,0,0,.66.77.74.74,0,0,1-.39,0c.07.11-.12.32.47.14l-.19-.07c.8-.45,1.92,0,2.39-.09-1.77.22-.27.75-2.52.93a1.5,1.5,0,0,0,.84,0c-.09.15-.32.23-.8.22.44.34,1,.07,1.08.47-.3.05-.42,0-.77,0,.6.08,1.2.21,1,.59-.18,0-.41.08-.42,0,.2.54,1.63.89,1.12,1.61-1.31-.16-.41.24-1.53.28.12.11.23.23.33.34l.55-.13c0,.3.76.61.38.87l-.44-.26.18.6.44-.31c.56.37,1.41.06,1.08.49-.11-.11,0,.34-.72.44h0c.33.2.67.42.36.63-.36,0-1.22-.23-1.46-.23.9.3.16.77,1.09,1.16a4.12,4.12,0,0,0-.91-.24l.71.29a1.15,1.15,0,0,1-.85,0c-.25.4,1.42.18.69.57-.05-.06-.17-.07-.26-.18-.43.43.22,1.15-.33,1.5-1.11-.24-.12-.48-1.07-.63A4.1,4.1,0,0,0,36,27.14a1.09,1.09,0,0,1-.12,1.11l.17-.06c1.38.79-.92.12-.41.76a1.89,1.89,0,0,0-.58-.41c-.46.26-.12,1-.11,1.88l-.28-.31c-.47,0-.61.46-.93.58.27.32.11.42.64.7-1.17-.33-1.23.12-1.25.7s-.06,1.17-1,.73c.07-.07-.08-.42-.13-.37l-.26.74c.49.49.34.26.81.56.2.37.25.76.11.89,0-.59-.71-.85-1.06-1.07.15.15.26.36.4.52-1.07-.74.82,1.13-.12.79l-.2-.3c0,.26.09.76-.14.81-.54-.6,0-.43-.43-1-.19.2.4,1.61-.28,1.08,0-.26.14-.35.11-.62-.76-.6-.66-.41-.91-.42h0l-.63-.12.24.15c.76,2-.4.73-.21,2.14-.16-1.36-.28-.7-.66-1.52-.23-.18-.51-.35-.58-.6.12.75-.56-.38-.38.73-.13-.26-.22.07-.47-.62-.15.33.26.44.39.78,0,.57-.38.37-.73.23s-.68-.25-.77.51c-.36.69-.21,1.66-.65,2.28a1.45,1.45,0,0,1-.1-1.07c-.39-.35-.56-.2-.77.17a1.84,1.84,0,0,0-.24-.77c-.19.1.05,1.07-.31.68a11.83,11.83,0,0,1,0-1.19c-.19.3-.35.88-.58,1.18a2.51,2.51,0,0,1,.09-1.13A1.85,1.85,0,0,0,23,37.67l.22.28c-.11,0-.12-.69-.06-.84.17-.67.38.22.44.51l-.17.21c.42,1.68.76-.39,1.13-.35l.06,1.26q.12-.54.21-1.08c.15.3.36,1,.19,1.19.42.55.16-.49.57.12a.24.24,0,0,1,0,.21l.21-.44c0,.27.26.85,0,.72.73.56.61-1.12,1.07-.27l0,.09c.6-.62-.18-.89,0-2.09.34.67.71,1.34,1.09,2l-.24-.89c.08,0,.25,0,.35.37.05-.69-.19-.36-.24-1,.66.67.75-.72,1.42.56-.17-.69-.53-.33-.39-.94.77,1.37.29-.44.91.06.27.77-.23.53.42,1-.44-1.31.75,0,.89-.44-.53-1,.32-.73.55-1.29.18.35,1.08,0,1.7,0l.1.15c-.6-.93-.08-1,0-1.44A2,2,0,0,1,34,36.5a2.73,2.73,0,0,0,.25-.23,1,1,0,0,1-.14-.77l.49.68c.31-.36,0-1.3.79-1.32-.54-.55-1.79-1.2-1.8-2,.31.28.84.75.86,1,0-.07-.14-.36.06-.31l.35.65c.39,0-.34-.5-.16-.6.43.41.41.18.74.52,0,.08-.3,0-.19.18a1.39,1.39,0,0,1,1.08.16c-.26-.21-.59-.53-.53-.71.26-.35.64.36,1.05.36-.24-.34.26-.31-.42-.87.08-.1.42.14.64.25-.17-.43.56-.94-.36-1.29h-.08a.09.09,0,0,1,0,0h0c-.27-1.05,1.23-1,1.31-1.81l.26.14c-.07-.54.26-1-.18-1.51.06-.11.62,0,.92.15-.06-.4-.33-.54.28-.82.36.52.47.07.23.48.39-.32.87-.26.28-1,.66.42,1,0,.88-.29l-.62.13a.86.86,0,0,1,.24-.62l.91.41c.73-.28.33-.87,0-1.35s-.5-.88.54-1.05c-.65-.38-.56.41-1.33,0,.19-.37,1.68-.59,1.7-.73.64-.55-1.34-.75-.91-1.31-.36.05-1.31,0-1.62-.43.15-.37,1.51-.4,1.79-.12,0,.11-.1.15-.21.14a.5.5,0,0,0,.65.2l-.35-.09c.38-.18.37-.79.94-.62-.32-.35-.57-.16-.77.07.53-.54.09-.87.39-1.45-.19.1-.61.19-.61.1.4-.85-.69-.35-.87-.87.52-.35,1.3,0,.81-.51.35-.38.94-.16,1.24,0-.7-.47.32-1.06.41-1.41l.32.26a.6.6,0,0,1-.23-.45l-.68.27c.1-.18.08-.33.37-.37-.48-.09-1.15.31-1.83.1.32-.28-.47-.56.43-.82-.19.73.92-.27,1.17.29-.13-.09-.15-.23,0-.43a.24.24,0,0,1,.25,0c.67-.86-1.11-.09-1.26-.75.54-.05.94-.41.8-.5.06.29-.83.35-1.28.22.29-.53-.42-.37-.43-.6l-.12.31c-.53.06-.51-.15-.78-.37.39-.15.36.16.5,0-1,0,.67-1-.09-1.24.26-.34.92-.39,1.08-.66-.82-.24.44-.84-.32-1.14-.58.46-.41.4-1.21.35l.85.61-1.2-.1c.1.24.66.32.6.53-.64,0-.47-.06-1,.28.83-.76-.87-.37-.38-1L40.13,12c.21-.47-.12-.65-.51-.79s-.85-.27-.87-.75l-.13.39c-.66.27-.35-.38-.73-.46a2.43,2.43,0,0,0,.84-.87c-.35.26-.34-.54-1.34.1l.4-.76c-.17-.76-1.77.42-2-.15.61-.28.73-.77,1.37-.74-.14-.17-.19-.39-.5-.12.18-.35-1,.09-.71-.43-.25.11-.72.52-.84.31a1.06,1.06,0,0,1,.21-.2c-.21.2-.54,0-.86.63.43-.86.06-1.15-.3-1.39s-.74-.43-.48-1.22a6.62,6.62,0,0,1-1.41-.5c.12-.14.16-.25.2-.16-.2-.76-1.23,1.25-1.43.41.22-1,.56-.27.58-.69.91-1.71-.81-.19-.65-1.38l.15,0c0-.75-1.11.28-1.53-.08a1.24,1.24,0,0,0,.12-.27,3.38,3.38,0,0,1-2.08.9c.4-.67.36-.3.53-1.07-.26,0-.37,1.2-.85,1.25a4.94,4.94,0,0,1,0-1.7c.15,0,.3.07.44.1.12-1.11-.57-.15-.75-.38l.16-.45c-.74,0-1,1.11-1.7.85v.37c-.6,1-.19-.71-.73.08l.08-1.18a10.33,10.33,0,0,1-1.54,1.16A4.86,4.86,0,0,1,24.6,1.1c-.26-.05-.93-.05-1.12.51.11-.09.28-.36.36-.17-.43.86-.86,1.32-1.36,1.27.21-2.29-1.3-.66-1.73-2.38a1.38,1.38,0,0,1-1.48.24A3.42,3.42,0,0,0,17.61.44c.72,1.69-.32.1.1,1.89-.22.15-.31.16-.36,0-.32-.3-.65-.59-1-.88-.32-.47.14-.45,0-.85-.61,0-.43-.69-1-1,.26.61.06,1-.35.8l.7.69C15.25,2.22,14.6-.16,14.09,1L14.15.4c-.3.46-1.58.56-1.32,2.11-.16-.16-.47-.57-.35-.77-.51.13-.88.71-1.19,1.26s-.61,1-1.19.8l-.18-.41c-.09.21.18.86-.26.64-.09-.16-.19-.42-.28-.39,0,.19,0,.94-.3.88L9,4c-.58.06-.71.55-.73,1.09a4.55,4.55,0,0,1-.08,1.56A1.9,1.9,0,0,0,5.93,6l-.12-.14a2.14,2.14,0,0,0-.67,1.56,18.1,18.1,0,0,1-.07,1.82A1.48,1.48,0,0,0,3.46,10a4.72,4.72,0,0,1-1.32,1.39c.28,0,.9.49.94.72-.35.11.54,1-.55.45l.06-.07c-1.15-.32-1.12.29-1.28.67l1.45.65c-1.24.06-1.32.81-1.26,1.48s.21,1.26-.87,1.32c.31.34.26.65.61,1l-.83-.16A2.81,2.81,0,0,0,0,19.32l-.6-.24c-.09.52,2.41.83,2.44,1.24L.59,20.4c0,.82-1.07,1.78.11,2.55-.19,0-.55,0-.61-.13,0,.4-.67,1.71,1,1.31-1.12.17,0,.91.59,1.23l-.83.1c1.14.16,1.42.09,1.84.52-.08.14-.63.27-.46.05-.32.51.84.11.54.69l-.56,0c0,.43.3.32,1,.34.41.14.06.79-.62,1.12.45-.1,1.11-.11,1,.19a1,1,0,0,1-.55.11c-.29.89,1.31.55.75,1.32a1.23,1.23,0,0,0-.41.3c-.23-.52-.38-.95-.31-.94-.71.3-.62.8-1.76.87.71.15,2.12.17,2,.73a1.37,1.37,0,0,1-.21.18H3c0,.13.09.19.24.2,0,.19-.07.32,0,.44-.53.37,0,.65.08.87.71-.46.75-.13,1.2-.74,0,.07-.11,0-.22-.09s-.07-.05-.12,0l.07,0a5.54,5.54,0,0,1-.34-.46c.46-.06.86-.09.59.36L5.8,31c-.86.87-1.06,1.74-1.59,2.22.82.29,1.26,1.21,2.77.47.28,0-.2.46-.33.68-.2,0-.27-.1-.48,0,.56,0,.9.76,1.75,0,0,.7-.92.52-.32.87l-.3.18c-.12,1.09.8,1,1.61.84s1.6-.32,1.53,1a.7.7,0,0,1,.09-.42,2.84,2.84,0,0,0,2.07,1.37,2.85,2.85,0,0,1,2.08,1.5c.33.47.62-.18,1-.6l-.18.9c.26-.29.51-.59.76-.88.42-.29.54.32.74.86s.49,1,1.05.34V39.8c.29.16,1-.22.86.47,0-.1.17-.61.25-.28l0,.47c.28-.22.55-.47.82-.73.55.37-.25,1.87.65,2a2.38,2.38,0,0,0,.84-1.65c-.13,0-.32-.31-.32-.79l.28-.23a8.36,8.36,0,0,0-.31-3.82l-.41.83-.08-.68.31,0c-.15-.65-.28-.09-.43.29a2.34,2.34,0,0,0-.1-.75c-.15.44-.32.88-.49,1.31,0-.55.27-1.06.07-1.39-.24.59,0,1.25-.3,1.6-.12-.66,0-1.16-.27-.65a1.36,1.36,0,0,1,.2-.73c-.24.4-.5.11-.73.83,0-.79-.67.09-.38-1.21-.11.29-.54.93-.73.94.7-1.46-.6-.25,0-1.86-.63,1.32-.92.34-1.58.95.06-.1.18-.3.19-.22-.17-.18-.07-.6-.09-.9-.48,1.08-.92,1.16-1.41,1.73.22-1.15.74-1.17,1.12-2.2-.39.87-.83.65-1.1,1.4a3.16,3.16,0,0,1,.33-1.29c-.72,1.28-.29.15-.88.83.09-.79.62-1.23.11-1A1.49,1.49,0,0,1,15,32.25Zm-7.19-4h0l.11.14Zm-.33-.65a.79.79,0,0,0,.11.3c-.25.15-.53.25-.55.18C7.26,28,7.34,27.79,7.51,27.59ZM3.19,31.92c-.19-.08-.07-.21.07-.31a1.31,1.31,0,0,0,.23.18l.09,0A2.43,2.43,0,0,1,3.19,31.92Z"/><path class="cls-2" d="M4.28,31.59s.07,0,.09,0,.08-.12.11-.18l-.25.1Z"/><path class="cls-2" d="M36.74,32.22h0l-.12,0Z"/><polygon class="cls-2" points="8.08 18.1 7.88 18.06 8.04 18.15 8.08 18.1"/><path class="cls-2" d="M31.55,33.57a.73.73,0,0,0-.18-.14A.75.75,0,0,0,31.55,33.57Z"/><path class="cls-2" d="M30,34.46l-.38-.13A1.27,1.27,0,0,0,30,34.46Z"/><path class="cls-2" d="M28.6,34.78c.06.14.1.24.15.34h0Z"/><path class="cls-2" d="M35.2,17a0,0,0,0,0,0,0C35,16.92,35.05,17,35.2,17Z"/><path class="cls-2" d="M37.68,23.09a2.42,2.42,0,0,1-.36-.26C37.23,22.94,37.2,23,37.68,23.09Z"/><path class="cls-2" d="M31.17,12.06h0l0,0Z"/><path class="cls-2" d="M37.35,22.53c-.18.1-.14.2,0,.3C37.38,22.74,37.47,22.64,37.35,22.53Z"/><path class="cls-2" d="M23.06,36.08l-.06,0a.76.76,0,0,1,0,.14Z"/><path class="cls-2" d="M23,36.19l-.07.1S23,36.28,23,36.19Z"/><path class="cls-2" d="M22.81,36.51l.13-.22C22.89,36.29,22.83,36.27,22.81,36.51Z"/><path class="cls-2" d="M24.85,36.17l-.05-.3A1.8,1.8,0,0,0,24.85,36.17Z"/><path class="cls-2" d="M25.34,36c-.14,0-.46-.55-.58-.32l0,.24C24.77,35.4,25.35,36.48,25.34,36Z"/><path class="cls-2" d="M28.94,38.72l-.61,0c.2.27.49.63.28.79C29.65,40.14,28.2,38.87,28.94,38.72Z"/><path class="cls-2" d="M30.72,38.39c-.2.27.23.41.3.58C31.06,38.62,31.06,38.53,30.72,38.39Z"/><path class="cls-2" d="M39.29,29.16l.68.34C40,29.23,39.7,29.38,39.29,29.16Z"/><path class="cls-2" d="M36.36,25.71l-.51,0,.64.29Z"/><polygon class="cls-2" points="41.98 25.79 42.06 25.92 41.89 25.45 41.98 25.79"/><path class="cls-2" d="M34.64,5.16l-.54.78C34.32,5.92,35,5.13,34.64,5.16Z"/><path class="cls-2" d="M25.62,1.85c0-.49-.22-.83-.47-.4C25.35,1.54,25.49,1.94,25.62,1.85Z"/><polygon class="cls-2" points="1.47 13.82 1.25 13.52 1.36 13.97 1.47 13.82"/></svg>