<svg id="Livello_1" data-name="Livello 1" xmlns="http://www.w3.org/2000/svg" viewBox="0 0 42.94 42.91"><defs><style>.cls-1{fill:#f8f8f8;}.cls-2{fill:#f9f9f9;}.cls-3{fill:#2cff00;}.cls-4{fill:#47ff20;}</style></defs><title>Tavola disegno 13 copia 6</title><path class="cls-1" d="M20.45,41.46c-.59-.08-1.18-.14-1.77-.23A19.83,19.83,0,0,1,5.84,33.81a20.58,20.58,0,0,1-3-5.21.76.76,0,0,1,.73-1.13c.87,0,1.74,0,2.62,0a1,1,0,0,1,.9.68,15.53,15.53,0,0,0,10.13,8.7,16,16,0,0,0,12.92-29,15.17,15.17,0,0,0-9.89-2.31A15.87,15.87,0,0,0,7.07,14.74,1.07,1.07,0,0,1,6,15.42c-.77,0-1.54,0-2.31,0a.83.83,0,0,1-.85-1.22C5.69,7.25,10.77,2.88,18.19,1.74,25.91.56,32.46,3,37.41,9.21a19,19,0,0,1,3.93,9.64A20,20,0,0,1,31,39,19.35,19.35,0,0,1,23,41.38a2.09,2.09,0,0,0-.34.08Z"/><path class="cls-2" d="M20.45,41.12c-.11.05-.05.14.26.12l.21-.16Z"/><path class="cls-2" d="M22.49,41.43A1.25,1.25,0,0,0,23,41.2c.12-.08.15-.15,0-.22-.18.11-.33.17-.39.21a1.57,1.57,0,0,0-.39.15c-.31,0-.53-.06-.48-.12-.11.05-.47,0-.63.07a2.88,2.88,0,0,0,1.41,0C22.62,41.36,22.51,41.4,22.49,41.43Z"/><path class="cls-2" d="M41.7,22.29l0,.19A.5.5,0,0,0,41.7,22.29Z"/><path class="cls-2" d="M34.62,5.83c.11.09.16.12.18.11S34.6,5.8,34.62,5.83Z"/><path class="cls-2" d="M32.15,3.81l.15.1A.39.39,0,0,0,32.15,3.81Z"/><path class="cls-2" d="M41.7,22.29a4.17,4.17,0,0,0,.08-.49C41.73,21.76,41.74,22.05,41.7,22.29Z"/><path class="cls-2" d="M26.4,40.4l-.24.1.23-.07Z"/><path class="cls-2" d="M39.85,30.22l-.06.14a.61.61,0,0,0,0,.14Z"/><path class="cls-2" d="M36.32,35.43c.1-.11,0-.24,0-.32a.56.56,0,0,1-.14.29S36.25,35.43,36.32,35.43Z"/><path class="cls-2" d="M27.88,40.55l-.16.08Z"/><path class="cls-2" d="M41.37,26a.08.08,0,0,0,.06,0S41.39,25.94,41.37,26Z"/><path class="cls-2" d="M13.77,39.15s0,0,0,0S13.81,39.17,13.77,39.15Z"/><path class="cls-2" d="M20.45,41.49h-.1a.11.11,0,0,0,0,.07Z"/><path class="cls-2" d="M26.79,1.36h0C27,1.39,26.88,1.37,26.79,1.36Z"/><path class="cls-2" d="M21.29,6.07c-.59-.11.94-.2.06-.31C21.43,5.82,20.57,6,21.29,6.07Z"/><path class="cls-2" d="M26.56,40.38l.24-.07Z"/><path class="cls-2" d="M21.35,5.76Z"/><path class="cls-2" d="M13.44,2.4a.38.38,0,0,0,.15,0Z"/><path class="cls-2" d="M23.33,1.11l-.24,0Z"/><path class="cls-2" d="M9,5.14a2,2,0,0,0-.3.22l.06,0A.77.77,0,0,1,9,5.14Z"/><path class="cls-2" d="M5.23,9,5.32,9l.09-.14Z"/><path class="cls-2" d="M3.33,28.28l-.1.11a.06.06,0,0,1,.07,0l.09.11s0,0,0,0,0-.06,0-.12A.15.15,0,0,1,3.33,28.28Z"/><path class="cls-2" d="M26.42,40.47s.06-.06.14-.09l-.17,0S26.38,40.47,26.42,40.47Z"/><path class="cls-2" d="M9.5,6.15a6,6,0,0,0-.63.5C9.05,6.51,9.27,6.31,9.5,6.15Z"/><path class="cls-2" d="M34.72,31.42l-.11.17A.69.69,0,0,0,34.72,31.42Z"/><path class="cls-2" d="M7.18,8.37a1.9,1.9,0,0,0-.37.28.42.42,0,0,0,0,.1Z"/><path class="cls-2" d="M3.23,28.4h0Z"/><path class="cls-2" d="M6.14,32.89c-.46-.62-.36-.18-.55-.25-.57-.74-.13-.44-.23-.75a9.35,9.35,0,0,1-.94-1.14s0-.12.07-.05c-.44-.47-.85-1.62-1.28-2.22,0-.07,0-.07,0-.08s-.13.18-.21.17c-.13-.25-.19-.55,0-.59-.07.15,0,.18,0,.25A.46.46,0,0,1,3,28c.14,0,.09,0,.07.13s0,.22.06.21a.4.4,0,0,1,.24-.51,1.69,1.69,0,0,1,.45-.05,3.68,3.68,0,0,1,.47,0c.12.17-1.31.06-.56.21l-.21,0h-.1a.36.36,0,0,0-.2.06c.37.07-.13.08.21.19h.22l.51,0a9.16,9.16,0,0,1,1.21,0c.25-.1-.09-.14.17-.24.93-.12.8.09.86.27a.69.69,0,0,0,0,.3,2,2,0,0,0,.34.6,2.05,2.05,0,0,1,.83,1.05L7.33,30c.6,1,.56.41,1.14,1.47-.18-.13-.56-.7-.48-.55.32.73.39.4.76.87l-.06.2a15.44,15.44,0,0,0,2.92,2.62c-.09,0-.31-.1-.09.13a24.1,24.1,0,0,0,4.65,2.57l.65.05c.14,0,.24.15.08.13.61.21.06-.08.37-.06s.45.19.22.18c1.13.2,3.21.3,4.4.4l-.23,0c.94.09,1-.36,1.89-.28l-.16,0a22.79,22.79,0,0,0,5.55-1.49,2.9,2.9,0,0,1,.95-.61c.44-.2.79-.5.77-.65a7.79,7.79,0,0,0,2.11-1.28c.34-.27.33-.59.68-1l.12.1L34,32.2l.38-.19.28-.42c-.13.15-.32.29-.33.24a8.16,8.16,0,0,1,.79-1c.24-.3.44-.51.48-.5l.44-.83.35-.86c0,.06-.08.35-.15.59.29-1,.22-.09.49-1-.08.1,0-.09-.07-.12a7.85,7.85,0,0,0,.82-2.1l.06.17a16.85,16.85,0,0,0,.65-4.43c-.06.56-.24.41-.25,0l.16-.18c-.1-.3-.06.47-.18-.13s.18-.39.24-.06c0-.23,0-.47-.07-.7.05,0,.09.12.15.16-.12-.28.09-1.24-.15-1.64l0,0a16.14,16.14,0,0,0-.88-3.43c-.14,0-.29-.45-.53-.75a12.38,12.38,0,0,0-1.31-2.78c-.5-.61-.23-.12-.49-.37.09-.13-.62-1-.19-.59a10.47,10.47,0,0,0-1-1.19,12.49,12.49,0,0,0-1.38-1.2c.11.15.24.32.13.27s-.5-.48-.42-.5l.07,0c-.78-.54-1.63-1.22-2.51-1.81A7.15,7.15,0,0,0,27,5.71l.08,0a13.71,13.71,0,0,0-1.55-.31c-.7-.18.45,0-.06-.2A19.79,19.79,0,0,0,21.37,5a6.05,6.05,0,0,0-2.5.1c-1,.2-2,.49-2.73.62l.1.06c-.33.2-.45.09-.72.18.06,0,.41-.08.21,0a17.68,17.68,0,0,0-7.85,5.88c-.71,1,0,.8-1,2L7,13.37l-.39.82c-.15.32-.21.46-.3.52s-.12.09-.45.08H3.65l-.17,0a.2.2,0,0,1-.12-.15.5.5,0,0,1,0-.18l.15-.4a.78.78,0,0,1-.07.36,4.86,4.86,0,0,0,.65-1.63c.16-.31.11,0,.25-.2.26-.4.44-1.11.66-1.27,0,0,0,.13-.06.21.08-.31.76-1.2.49-1A15.21,15.21,0,0,1,6.81,8.65c.15-.44,1-1,.94-1.25.11.18,1.17-.89,1.52-1.29-.09.16.41-.22.3,0,.47-.37.89-.72.74-.75,1-.4,1.8-1.35,2.53-1.29a17.05,17.05,0,0,1,4.73-1.77c0,.21-1.75.41-1.62.63A13.72,13.72,0,0,1,19.78,2c.4,0-.21.11-.34.17A26.57,26.57,0,0,1,23.76,2a1,1,0,0,1-.3,0c.27,0,.62.1.6,0H23.8c-.42-.2,1.09-.18,1.16-.25-.5.2,1.32.32.54.55.18,0,.4,0,.38-.06.25.06.32.12.05.15a9,9,0,0,1,1.48.2s-.19,0-.29,0a4.29,4.29,0,0,1,1.58.36c-.05,0,0,.08-.19,0a12.2,12.2,0,0,1,3.26,1.42c-.47,0,.37.31.32.51l.64.38-.19-.24a9.61,9.61,0,0,1,1.48,1l-.43-.24a12,12,0,0,1,1,.77,5.91,5.91,0,0,0-.48-.52c.58.36.11-.23.73.4-.15-.1.5.45.66.78h0a3.48,3.48,0,0,1,.85.78c0,.13-.22.07-.19.15.32.14,1.05,1.14,1.41,1.37-.11-.08-.19,0-.18,0l.26.14c.15.27.16.32.07.32.5.77,0-.38.56.58a.73.73,0,0,1-.16-.16,17.23,17.23,0,0,1,1.51,2.73c-.05.35-.4-.78-.41-.4A15.86,15.86,0,0,1,40.75,17l0-.26c.31.13.1,1.05.32,1.73,0-.17-.18-.2-.14-.16.09,1,.31,1.94.39,3.41l-.07-.19c-.05.57-.1,1.49-.19,2.1,0,.19,0,.53.11.33-.62,1.8-.51,3.61-1.46,5.07.07-.19.11-.47.06-.32-.13.46-.35.88-.52,1.33.15-.05.14-.14.35-.38a3.2,3.2,0,0,1-.29.91c.21-.62-.16-.07-.36.14.05,0,0,.07.08.07-.54.55.15.22-.48,1l0-.08a10.3,10.3,0,0,1-.56,1c-.2.07.17-.38.1-.46a5,5,0,0,1-.88,1.43c.12-.22.34-.5.46-.72a3.37,3.37,0,0,0-.76.75l0,0a7.6,7.6,0,0,1-.69.7l.2-.16a2.46,2.46,0,0,1-.61,1,5.54,5.54,0,0,0-.89,1c.54-.82,0-.2,0-.37-.21.15-.52.36-.47.26-.28.38-.65.41-1,1,0,0-.4.28-.39.12-.46.38.17,0,.16.07-.65.68-1.88,1.05-3,1.84a18.92,18.92,0,0,1-2.11,1.26c-.37,0,.22-.27.22-.27a9.62,9.62,0,0,0-1.49.48c.09-.07,0-.08-.2-.08-.42.11-.24.25-.82.3a2.12,2.12,0,0,1,.38-.29c-.49.17-1,.36-1.49.49-.15-.06.3-.18.47-.27a9.65,9.65,0,0,0-1.69.45h.39c-.22,0-.12-.11,0-.15.5-.17.74-.05.78,0l-.37.09c.43.24,1.51-.29,2.25-.48l-.26.28.72-.37c.18,0,.32.09,0,.22.57-.06.45-.21.94-.25.06,0,0,0,0,0l.5-.24c-.09.08.14.11-.19.19,1-.22,1.41-.73,1.81-.74l-.07.05c1.19-.66.06-.19.88-.81.26,0,.51,0,.77,0l0-.21c.13-.06.37-.19.36-.12.39-.35-.11,0,.1-.25.65-.23,1.49-1.09,1.75-1,.12-.24-.56.32,0-.19.31.08.62-.55,1.15-.86,0,.23-.55.54,0,.24.12-.43.92-.79,1.25-1.21-.13-.15.74-.86,1.21-1.62a3.68,3.68,0,0,0,.61-.67l.92-1.27,0,0c-.09-.24.37-.94.6-1.51.09.07.1.2,0,.51a5,5,0,0,0,.26-.52,2.1,2.1,0,0,1,.19-.67l.07.18a7.37,7.37,0,0,0,.39-1.12c.12-.4.28-.81.45-1.28-.11-.09-.56.64-.35-.37.08,0,.2,0,.15.24a2.07,2.07,0,0,1,.12-.48v.43c.18-.42,0-.25.09-.59.09,0,.14-.24.2-.17A2,2,0,0,0,41,27a7.32,7.32,0,0,1,.41-1c-.06,0-.13,0-.08-.32.16-.75.17-.23.32-.66,0-.2.09-.68,0-.71a.55.55,0,0,1,.16-.34c0-.4.12-1.86,0-1.42l0,.1v-.07h0a31.08,31.08,0,0,0-.14-4h.05a12.3,12.3,0,0,0-.56-2.2c0-.22,0-.54,0-.46a9.28,9.28,0,0,1-.45-1.44c.27.54,0-.22.25.56a4.49,4.49,0,0,0-.62-1.66c.23.21-.08-.6-.27-.92l.14.53c-.19-.37-.33-.7-.49-1l.24.11c-.56-1.54-1.74-2.29-2.24-3.41-.36-.25.48.71.13.51-.43-.57-.75-1.3-.9-1.47-.63-.78-.79-.53-1.51-1.28.06.14,0,.33-.56-.15s-.52-.75-.13-.51c.14.11.18.19.17.19.18.15.43.34.26.09L35,6c-.22-.3-1-.9-.77-.84-.46-.3-.24-.07,0,.21A14.41,14.41,0,0,0,32.3,3.91c.12.11.2.24.07.16-1.17-.78-.58-.25-1.43-.67-.44-.32.28-.1-.61-.47-.51-.3,0-.21.18-.14-.84-.27-1.48-.74-2-.91L29,2c-.28-.06-.49-.14-.72-.21l.22.2c-.25-.11-.47-.19-.45-.24-.29,0,.14.26-.42.19-.33-.15-1.08-.22-1.16-.41,1.09.35-.09-.18.86,0a4,4,0,0,1-.67-.18s0,0,.12,0c-1.05-.39-.54.07-1.64-.16.15-.07-.24-.2-.43-.2.46.05.2.17-.23.18a3.93,3.93,0,0,0-1.16-.07l.43.06a3.3,3.3,0,0,1-1,.05c0-.07.46,0,.28-.06-.56.1-1.26-.19-2-.09-.36,0,0-.16-.36-.18-.86.18-1-.07-1.86.14.28.09.31.06-.31.25.5-.08,1-.2,1.49-.25-.32.07-.63.18-.94.27.44-.06.94-.17,1.21-.17-.45.13-.4.1-.18.18-.64-.15-1.2.24-1.92.2l0-.29a17.29,17.29,0,0,0-3.23.83L15.31,2c-.15.17-.83.27-1.24.47,0-.11-.27,0-.48,0,.05.06-1,.37-1,.63L12,3.18C10.93,3.67,11,4,10,4.6c.21-.27-.24-.06.33-.53-.31.2-.6.37-.56.43-.23,0-.74.71-1.06.83a1.53,1.53,0,0,1-.38.5s0,0,0,0-.43.48-.09.32C7.17,6.61,6.06,8.32,5.32,9c-.45.66-.94,1.47-1.28,2.1,0-.05,0,0,0-.13-.58.81-.06.66-.66,1.6-.4.45.2-.57,0-.27-.38,0-.54,1.2-1,1.9L2.43,14a1.2,1.2,0,0,0,.14,1.43,1.37,1.37,0,0,0,.82.39c.31,0,.5,0,.74,0,0,0,0,0,0,.05a8.54,8.54,0,0,1,1.28-.18l.77-.05a1.14,1.14,0,0,0,.73-.37c-.15.32-.38.33-.11.34.23-.17.14-.19.13-.25s0-.14.23-.51c.19-.21.51-.68.67-.68l-.35.66c.34-.25.44-.85.69-1.17l0,.08c.28-.49.39-.76.52-1a4.06,4.06,0,0,1,.66-1l-.13.07c.26-.66.43-.38.77-1h.28A11.32,11.32,0,0,1,11.87,9c-.27.39-.91,1.06-1.24,1.53A15.51,15.51,0,0,0,11.8,9.26a2.16,2.16,0,0,1-.4.4A4.84,4.84,0,0,1,12.94,8.2c.05.2.52-.1,1.12-.4a3.92,3.92,0,0,1,1.63-.58,13.35,13.35,0,0,1,4.66-1.08c-.66-.23.51-.06.38-.35a2.44,2.44,0,0,1,.62,0c.42,0,.84.11,1.26.19s-.4,0-.36.12c.9.06.37.15.95.27-.11-.12.33-.13.82,0l-.69-.23c1.27,0,1,.38,2.29.51h-.41c.65.07,2.26.69,2.93.77.09.08.19.22-.08.12A12.83,12.83,0,0,1,32,10l-.14,0c.23.18.47.24.68.54,0,0-.14,0-.05.07a5.25,5.25,0,0,1,.85.8L33,11.18A33.24,33.24,0,0,1,35.3,14c-.19.1.29,1.19.44,1.77h0A20.72,20.72,0,0,1,37,20.22a20.57,20.57,0,0,1-.69,5c.1-.23.16.08.11.37s-.19,1.06-.35.94l0-.13c-.3.2-.46,1-.77,1.51l.2.21c-.5.66-1,1.57-1.53,2.38-.28.39-.55.77-.79,1.08a3.12,3.12,0,0,1-.74.6c-.11.16-.25.33-.39.5a4.52,4.52,0,0,0-.43.46L31.58,33a23.56,23.56,0,0,1-2.39,1.69l.19-.22c-.66.34-.62.84-1.25,1.14l-.29-.11c-.3.13-.6.25-.91.36s-.64.17-.95.27c-.62.2-1.26.3-1.88.53,0,0,0-.11.25-.16-.15,0-.37.07-.62.1L23,36.7c-.48,0-.86.12-.75.25,0-.21-1.35,0-2.07,0l.13-.13a3.83,3.83,0,0,1-1.49.09c-.19-.06-.15-.15.1,0-.63-.22-.53,0-1.31-.24l.32,0a3.18,3.18,0,0,0-1-.12,2.57,2.57,0,0,1-1.27-.62,1.48,1.48,0,0,1-.86-.22c0-.06.11,0,.19,0a11.83,11.83,0,0,1-2.19-1.19s0-.09-.06-.14c.75.51,1.39.85,1.33.83s-.56-.49,0-.36a6.16,6.16,0,0,1-2-1.05.18.18,0,0,1,0-.09l.06,0a2,2,0,0,0-.36-.26L11.26,33c0-.12-.57-.61-.81-.88-.08.13-.38-.25-.17.16,0,0,.06,0,.23.21l.12.1h0c.16.18.4.38.66.62a1.8,1.8,0,0,1-.75-.65,4.49,4.49,0,0,1-.53-.21,14.15,14.15,0,0,1-.69-1.51c-.74-.84-1.44-2.18-2-2.71a2,2,0,0,1-.2-.55,4.11,4.11,0,0,1,.37.49,3.19,3.19,0,0,0-.41-.58,1.22,1.22,0,0,0-.84-.36,1.75,1.75,0,0,0-.88.15c-.82-.09.46-.17-.67-.14l.15-.06A7.64,7.64,0,0,0,4,27a3.17,3.17,0,0,0-.87.06,1.14,1.14,0,0,0-.77.71,1.27,1.27,0,0,0,.09,1,22.69,22.69,0,0,1,1.42,2.84c-.07-.16-.1-.24-.09-.28,1.27,2.59,3.56,4.64,5.63,6.53a3.09,3.09,0,0,0,1.22.66l.06.22.81.28c1.07.46,1.65,1.29,3.16,1.59l-.15-.16c.49.21,1.63.46,1.51.54a.6.6,0,0,1,.39,0v.08c.43.07.87.11,1.31.16,1,.22-.21.3,1.26.53.55,0,1.58,0,1.39-.11s-.56-.12-.57-.2l.51,0c.12-.22.52-.41-.66-.73l-.87,0-.25-.16c.23,0,.47.06.71.09a2,2,0,0,0-.94-.08.72.72,0,0,0-.33-.19,7.89,7.89,0,0,1-.84,0c-.08-.11.39-.09-.13-.26-.4,0,.31.28-.32.2-.37-.21-.23-.26-.71-.29,0-.08.06-.09.25-.07A12.18,12.18,0,0,0,15,39.85c-.35-.26-1.32-.49-1.19-.68a3.86,3.86,0,0,1-1.09-.31c.74.09-1.26-.68-.94-.86a9.63,9.63,0,0,1-2.4-1.4.61.61,0,0,1,.21.11A5,5,0,0,1,8.87,36c-.18.1-.81-.4-1.2-.63-.32-.59.44.11.42-.17-.09.15-.88-.67-.82-.43C7,34.31,7,34.4,7,34.11c-.24.09-.32-.32-.7-.53-.34-.62.06-.28-.46-.84C5.67,32.4,6.14,32.89,6.14,32.89Zm5.5,1.64h0c-.14-.09-.25-.19-.32-.24Zm1.34.91-.59-.39c0-.07.06-.08.19,0C12.49,35,12.79,35.27,13,35.44Zm-2-2.79c.19.15.23.22.23.27l-.32-.28h0A.27.27,0,0,1,11,32.65Z"/><path class="cls-2" d="M10.51,32.47l-.07-.06a.83.83,0,0,0,.08.12l.09,0Z"/><path class="cls-2" d="M41.67,22.52v0a.12.12,0,0,1,0,.07Z"/><polygon class="cls-2" points="33.6 32.86 33.57 32.84 33.49 32.96 33.6 32.86"/><path class="cls-2" d="M38.91,30.69s0,0-.09.08Z"/><path class="cls-2" d="M36.85,33.75c-.12.13-.24.26-.37.38A3.11,3.11,0,0,0,36.85,33.75Z"/><path class="cls-2" d="M34.87,35.78s0,.07,0,.08h0Z"/><path class="cls-2" d="M23.46,2.06h-.11C23.1,2.08,23.27,2.08,23.46,2.06Z"/><path class="cls-2" d="M35.46,7.35l-.36-.26C35.27,7.26,35.4,7.4,35.46,7.35Z"/><polygon class="cls-2" points="9.57 6.09 9.57 6.09 9.5 6.14 9.57 6.09"/><path class="cls-2" d="M34.64,6.66a2.56,2.56,0,0,0,.46.43A4.68,4.68,0,0,0,34.64,6.66Z"/><path class="cls-2" d="M23.93,40.85h-.14a0,0,0,0,1,0,0Z"/><path class="cls-2" d="M23.78,40.89l-.15,0Z"/><path class="cls-2" d="M23.32,41l.31-.06A.85.85,0,0,0,23.32,41Z"/><path class="cls-2" d="M27.59,40.1l0-.06S27.58,40.08,27.59,40.1Z"/><path class="cls-2" d="M28.65,39.7c-.25.09-.67.14-1,.29l0,0C27.76,39.92,28.44,39.88,28.65,39.7Z"/><path class="cls-2" d="M33.18,37.94c-.28.18-.55.37-.83.53.17,0,.41-.11,0,.14C33.51,38.05,32.11,38.66,33.18,37.94Z"/><path class="cls-2" d="M35.58,36.05c-.36.39.06.06.07.1C35.86,35.88,35.9,35.81,35.58,36.05Z"/><path class="cls-2" d="M41,15.68l.14,0C41,15.31,41.12,15.71,41,15.68Z"/><polygon class="cls-2" points="38.88 12.06 38.99 12.44 39.18 12.55 38.88 12.06"/><path class="cls-2" d="M38.33,9.48l.12.14c-.14-.18-.29-.36-.45-.53Z"/><path class="cls-2" d="M5.72,8.18h.2C6.08,8,6,7.8,5.72,8.18Z"/><path class="cls-2" d="M9.36,11.81a1.94,1.94,0,0,0,.59-.64A5,5,0,0,0,9.36,11.81Z"/><path class="cls-2" d="M35,28.74l.08-.3c-.07.18-.13.36-.21.53C35,28.9,35,28.82,35,28.74Z"/><path class="cls-3" d="M1.44,20.13a1.21,1.21,0,0,1,1.2-.59c7.18,0,14.36,0,21.54,0l.37,0,.14-.17a1.5,1.5,0,0,1-.38-.19l-4.45-4.45a.84.84,0,0,1,0-1.37l1.47-1.47a.83.83,0,0,1,1.27,0l8.17,8.18a1.91,1.91,0,0,1,0,2.93l-8.24,8.23c-.54.54-.84.54-1.38,0L19.8,29.88c-.59-.6-.59-.88,0-1.47l4.51-4.5a1.92,1.92,0,0,1,.48-.29c-.05-.06-.19,0-.24-.1H2.61a1.2,1.2,0,0,1-1.17-.59Z"/><path class="cls-4" d="M1.6,20.13c0-.05-.07,0-.06.12l.08.11Z"/><path class="cls-4" d="M1.45,21.11c0,.17.11.37.19.26A3.86,3.86,0,0,0,1.49,21c0-.15,0-.26.06-.23s0-.23,0-.31a1.29,1.29,0,0,0,0,.68C1.49,21.18,1.46,21.12,1.45,21.11Z"/><path class="cls-4" d="M13.65,23.64h0Z"/><path class="cls-4" d="M22.49,23.68l-.1,0C22.45,23.7,22.5,23.69,22.49,23.68Z"/><path class="cls-4" d="M23.82,23.77h0A0,0,0,0,0,23.82,23.77Z"/><path class="cls-4" d="M13.65,23.64l.24,0S13.77,23.65,13.65,23.64Z"/><path class="cls-4" d="M1.68,22.93l-.05,0,0,.05Z"/><path class="cls-4" d="M9.76,23.71H9.69a.09.09,0,0,0-.06,0Z"/><path class="cls-4" d="M6.77,23.73c.07,0,.09-.07.11-.1a.26.26,0,0,1-.14.05A.09.09,0,0,0,6.77,23.73Z"/><path class="cls-4" d="M2,23.52l-.08,0Z"/><path class="cls-4" d="M11.9,23.73l0,0A0,0,0,0,0,11.9,23.73Z"/><path class="cls-4" d="M4.69,19.87h0S4.67,19.87,4.69,19.87Z"/><path class="cls-4" d="M1.42,20.12l0,0s0,0,0,0Z"/><path class="cls-4" d="M23.09,24.64h0C23.14,24.58,23.12,24.61,23.09,24.64Z"/><path class="cls-4" d="M30.92,19.8c.15.25-.39-.27-.14.09C30.77,19.83,31.14,20.1,30.92,19.8Z"/><path class="cls-4" d="M1.71,23l.07.07Z"/><path class="cls-4" d="M30.78,19.89h0l0,0Z"/><path class="cls-4" d="M19.31,29.77a.31.31,0,0,0,0-.08A.2.2,0,0,0,19.31,29.77Z"/><path class="cls-4" d="M22,25.89,22,26Z"/><path class="cls-4" d="M21.14,31.49a.92.92,0,0,0,.14.13v0A.27.27,0,0,1,21.14,31.49Z"/><polygon class="cls-4" points="23.45 30.61 23.41 30.63 23.35 30.69 23.45 30.61"/><path class="cls-4" d="M12.47,19.84l-.12-.06S12,19.85,12.47,19.84Z"/><path class="cls-4" d="M1.65,23s0,0,.06,0l0,0A0,0,0,0,0,1.65,23Z"/><path class="cls-4" d="M21.58,31.14a.65.65,0,0,0,.22.14A.67.67,0,0,1,21.58,31.14Z"/><path class="cls-4" d="M20.52,15l.08.06Z"/><path class="cls-4" d="M22.46,30.81a1.06,1.06,0,0,0,.2-.12l0-.05Z"/><path class="cls-4" d="M12.35,19.78Z"/><path class="cls-4" d="M9.67,19.94c.39,0,.19-.09.27-.14.46,0,.21.07.37.12s.51-.11.73-.11c0,0,.05,0,0,0,.31-.07.91,0,1.27-.09,0,0,0,0,0,0a.13.13,0,0,1,0-.13c.17,0,.32-.06.39,0a.28.28,0,0,0-.17.05l.18,0c.17.09-.24,0-.24.09a8,8,0,0,1,1-.07c.05.08-.64,0-.28.1l-.42,0c.32.13-.25,0,0,.13.56,0,.62,0,1.17,0,.13-.05,0-.07.09-.12.78-.09.62.21,1.19.1a.82.82,0,0,1,.62-.11l-.14.1c.54,0,.31-.14.87-.08-.1,0-.42,0-.34.05.36.07.26-.06.54-.06l.06.09,1.83-.09s-.15,0,0,.08a20.39,20.39,0,0,1,2.48.06l.29-.07c.07,0,.13,0,.05,0,.3,0,0,0,.16-.07s.23,0,.12.06a10.1,10.1,0,0,1,2.06-.05l-.1,0a1.19,1.19,0,0,0,.46-.06.71.71,0,0,1,.21-.05h.17c.05,0,.08-.08.13-.12l-.06.1.16-.2.19-.22-.26-.11a.88.88,0,0,1-.5-.32l-.47-.47a8.43,8.43,0,0,1-.79-.88c-.17,0-.63-.7-.77-.63a8,8,0,0,0-.71-.92c-.14-.14-.28-.14-.46-.31l.05-.06-.3-.18-.06-.19L20.6,15c.06.07.11.17.09.18a2.29,2.29,0,0,1-.58-.71.84.84,0,0,1-.35-.5s0,.09.09.15c-.12-.24,0,0,0-.26,0,0,0,0,0-.05s.13-.16.24-.27a5.16,5.16,0,0,0,.4-.42v.09c.23-.22.47-.47.71-.72l.37-.38a.61.61,0,0,1,.3-.21c-.15,0-.18-.06,0-.12l.07.06c.08-.06-.16,0,0-.09s.1.09,0,.11a.46.46,0,0,1,.2,0s-.05,0-.07.05.24.24.46.35v0l1.18,1.14c.06,0,.21.13.37.21.29.33.59.7,1,1.07s.12,0,.27.12c0,.06.34.43.12.27.45.43.57.55,1.17,1.08,0-.08-.1-.16-.05-.14s.21.25.17.26l0,0c.7.56,1.32,1.58,1.91,2l0,0,.57.47c.23.24-.18-.11,0,.09.63.48.87.89,1.38,1.3.11.25.38.52.53.89a1.08,1.08,0,0,1,0,1L31,22c0,.16-.09.16-.15.24s.11-.12.09,0a2.67,2.67,0,0,1-.65.81l-.84.8-1.7,1.57c-.4.39-.06.39-.63.81l.08-.2c-.72.87-1.63,1.63-2.35,2.46a.42.42,0,0,1,.09-.15,2.2,2.2,0,0,0-.58.64c-.12.12-.05,0-.15.06s-.36.47-.49.51,0-.06.06-.09c-.08.13-.5.49-.35.44-.32.27-.54.58-.8.79-.11.21-.52.47-.49.57,0-.06-.17,0-.27,0a.46.46,0,0,1-.32-.07c.08,0-.13-.15,0-.13-.19-.16-.41-.37-.41-.28-.29-.49-.86-.71-1-1-.34-.29-.63-.56-.54-.75a3.62,3.62,0,0,1,.7-.86c.05.1-.62.63-.48.67a13.81,13.81,0,0,1,1.26-1.44c.15-.12,0,.12-.08.18.51-.57,1.05-1,1.48-1.55,0,0,0,.07-.08.12s.23-.2.18-.23l-.08.1c-.2.1.26-.48.25-.52-.05.26.5-.45.38-.06,0-.07.11-.17.07-.18s.15-.1.08,0c.32-.36.16-.28.46-.58,0,0,0,.08,0,.14a3.12,3.12,0,0,1,.56-.68s.06,0-.06.11a2.27,2.27,0,0,1,.65-.47.19.19,0,0,1,0-.18s0,0,.05-.05-.08-.06-.12-.07a.75.75,0,0,0-.35-.08l-.4,0c.36-.11-.31,0-.36-.13l-.37,0,.15,0c-.32,0-.61.07-.89,0l.24,0-.6,0,.34,0c-.33.05,0,.12-.39.09a4.84,4.84,0,0,1-.5,0h0a2,2,0,0,1-.57,0c-.06,0,.05-.11,0-.13s-.75,0-.95.11c.06,0,.07-.07,0-.08l-.14.06c-.15,0-.17,0-.14-.07-.45,0,.14.12-.39.07l.1,0c-.53,0-1,0-1.52,0-.15-.1.43,0,.26-.11-.71,0-1.47.12-2.16.1h.13c-.09.13-.51-.07-.86,0,.09,0,.11-.07.09-.06-.47,0-1,0-1.68.08l.09,0c-.28,0-.73,0-1,0-.09,0-.26,0-.15.08-.93-.19-1.77.11-2.59-.06.1,0,.24,0,.16,0l-.7,0c.06.05.09,0,.24.08a1.77,1.77,0,0,1-.46.06c.31,0,0-.1-.14-.13,0,0,0,0,0,.06-.36-.11-.06.11-.56,0l0,0a3.43,3.43,0,0,1-.56.05c-.09-.07.2,0,.21-.08a3.82,3.82,0,0,1-.81.06l.41,0a1.52,1.52,0,0,0-.52-.07h0l-.48,0,.13,0c-.36.18-.72,0-1.2.15.46-.11.08-.06.11-.14-.12,0-.3,0-.25-.06-.23.06-.38,0-.69,0,0,0-.24,0-.19-.06-.3,0,.07,0,0,.07-.45.08-1.06-.1-1.71,0a6.22,6.22,0,0,1-1.18.12c-.15-.08.16,0,.16-.06a1.67,1.67,0,0,1-.63-.3c.05,0,0,0,0-.1s-.18,0-.14-.29a1,1,0,0,0,.1.15c0-.13-.07-.47-.09-.7,0-.07.06.16.09.25a3.18,3.18,0,0,0-.11-.85l0,.19c0-.11.06-.06.07,0,.05.25,0,.36-.05.38V22a.74.74,0,0,0-.05.49c.05.22,0,.46.14.55A.83.83,0,0,1,1.42,23a1.36,1.36,0,0,0,.31.24c0,.07.05.16-.11,0,.19.22.21.12.41.27,0,0,0,0,0,0a1.24,1.24,0,0,0,.27,0s0,.09-.13,0c.5.14.78-.05,1,0h0c.65,0,.06-.08.55-.17l.33.19L4,23.58c.07,0,.2,0,.18,0,.25-.05,0,0,.1-.08.32.07.89,0,1,.09.11-.06-.31-.05,0-.09.1.13.4,0,.7,0-.09.07-.37,0-.08.09.18-.11.58,0,.83,0,0-.09.54,0,1-.07,0,0,.79.05,1.18.08h0c.08-.09.48-.07.77-.09,0,.06-.06.08-.22.1h.28a.9.9,0,0,1,.32-.05l-.07.06a9.28,9.28,0,0,1,1.21,0c0-.06-.37-.18.13-.22,0,0,0,.09-.1.11a.79.79,0,0,1,.24,0l-.2.06c.22,0,.11-.05.28,0,0,.05.13,0,.11.07a1.61,1.61,0,0,0-.22,0,1.8,1.8,0,0,1,.51.08s0-.07.14-.08c.36,0,.12.06.34.09s.32,0,.32-.08a.32.32,0,0,1,.17.06c.19,0,.89,0,.67-.09h0c.62-.07,1.29,0,1.9,0v0c.37,0,.82,0,1.08-.07.11,0,.26,0,.21.07a2.44,2.44,0,0,1,.72,0c-.28,0,.1,0-.29,0a2.64,2.64,0,0,0,.84,0c-.13.06.27.08.45.06l-.26,0h.54l-.09.08c.74.1,1.34-.17,1.91,0,.2-.06-.4,0-.23-.11a7.16,7.16,0,0,1,.81.13c.47,0,.44-.12.94-.09-.07,0-.13-.11.24-.14s.42.12.21.15-.13,0-.12,0-.26,0-.12.06l0,0c.17,0,.65,0,.53.07.26,0,.12-.05-.08-.06.22,0,.4,0,.57,0a3,3,0,0,1,.46,0s-.05-.05,0-.05c.3,0,.2-.07.53-.06,0,.05,0,.06-.09.08s0,0,0,0,0,0,0,0l0,0a.44.44,0,0,1-.23.06s0,0-.06.05L23.8,24s0,0-.11.08l.06-.08v0s-.1.12-.16.18l.13-.05c-.1.09-.18.16-.19.14s.14,0,0,.22-.34.39-.44.38c.4-.36-.1,0,.21-.34a1.23,1.23,0,0,1-.23.22s0,0,0-.05c-.42.31-.11.23-.48.61,0-.08-.15,0-.21.09.16-.15.13,0,0,.14s-.24.29-.37.41l.16-.13c0,.08-.15.19-.31.37,0,0,.14-.17.07-.12-.13.24-.48.37-.7.66-.15.1-.07,0-.19,0-.26.33-.36.27-.64.61.13,0,.14-.07,0,.18l.48-.53-.26.39c.15-.16.29-.35.39-.44-.12.19-.12.17,0,.13-.27.14-.37.45-.66.65l-.09-.12a2.83,2.83,0,0,0-.51.53,3.65,3.65,0,0,0-.55.76.93.93,0,0,1,.14-.22c0,.05-.07.16-.11.3a.63.63,0,0,0,0,.47c-.06,0,0,.16,0,.26s.35.42.46.38l.16.26c.36.39.54.33.89.71-.15-.08,0,.11-.28-.1.12.12.23.24.25.21s.38.3.5.44a1.52,1.52,0,0,1,.31.12s0,0,0,0,.37.05.18,0c.33.16.72-.17.95-.42a3.91,3.91,0,0,1,.7-.64l.81-.85s0,0,0,.06c.37-.3.11-.3.52-.65.25-.13-.17.24,0,.14.17.06.45-.48.77-.66l-.06.06a8.5,8.5,0,0,0,.76-.83s0,0,0,0a9.34,9.34,0,0,1,.84-1c0,.14-.12.17,0,.15s-.12,0,.15-.32c.11-.06.33-.24.4-.21l-.25.26c.19-.07.33-.34.48-.47v.05c.38-.41.32-.48.75-.9l-.06,0c.16-.3.23-.15.41-.44H29c.14-.17.47-.6.73-.89a7,7,0,0,1-.57.78,3.73,3.73,0,0,0,.56-.63.91.91,0,0,1-.18.21,4,4,0,0,1,.65-.82c.07.18.84-.7,1.14-.94a2.5,2.5,0,0,0,.37-1.24,2.08,2.08,0,0,0-.45-1.31c.08.36-.18-.23-.26-.08a1.77,1.77,0,0,1-.22-.22l-.37-.51c-.08-.13.16.12.17.08-.31-.33-.09-.18-.27-.42,0,.08-.17-.06-.33-.25l.2.3c-.5-.38-.29-.47-.8-.86l.18.1a8.43,8.43,0,0,0-1.16-1c0-.05-.06-.13.05,0-.53-.56-1.31-1.13-1.69-1.61h.07a1.2,1.2,0,0,1-.33-.28s.07,0,0,0a2.14,2.14,0,0,1-.44-.38l.15.09a12.59,12.59,0,0,0-1.37-1.18c.08-.08-.32-.53-.51-.75h0A21.35,21.35,0,0,0,22.6,11.6a.86.86,0,0,0-.57-.29,1.08,1.08,0,0,0-.82.26c-.38.36-.71.7-1,1,.1-.08,0,.07-.05.18s-.32.43-.37.34l0-.05a1.14,1.14,0,0,0-.63.79l.12.1a.9.9,0,0,0,.18.83,5.52,5.52,0,0,0,.55.54,3.61,3.61,0,0,1,.77.84c.16.11.33.28.49.4l-.06,0c.37.39.56.59,1,1.05l-.13-.06c.26.26.48.19.72.43v.15c.24.23.45.47.68.71s.22.24.34.35l.19.17a.69.69,0,0,0,.3.17s0,0-.2-.05a2.66,2.66,0,0,0,.38.19l-.12-.51s0,.05-.05.05h-.13c-.13,0-.22,0-.18.09s-.67,0-1,0l.06-.07a2,2,0,0,1-.73.14c-.1,0-.08,0,.05,0-.33,0-.26.07-.66,0l.15,0a1,1,0,0,0-.5.07,1.47,1.47,0,0,1-.69-.08.73.73,0,0,1-.43.07s0,0,.08-.05c-.56,0-.84.08-1.23,0,0,0,0,0-.06-.05h.77c0-.06-.36-.07-.07-.16a5.14,5.14,0,0,1-1.15.12l0,0h-.48c0-.06-.42,0-.6,0,0,.07-.22.06,0,.12h.67a1,1,0,0,1-.49,0l-.26.11c-.24-.09-.72-.15-.79-.21a8.37,8.37,0,0,0-1.65.16c-.16,0-.18,0-.24-.06a1.42,1.42,0,0,0,.25,0c-.31,0-.93,0-1,.11-.39-.05.23-.09-.32-.07l.07,0c-1.07-.15-1.74.23-2.92,0,.08,0,.12,0,.14,0-1.36-.09-2.79.07-4.13-.06a1.45,1.45,0,0,0-.65.08l-.08-.08-.4.09A14.27,14.27,0,0,0,4,19.38l.1.05a3.8,3.8,0,0,1-.77,0,.28.28,0,0,1-.18,0v0l-.63.07c-.25,0-.24,0-.26-.07s-.06-.1-.46.07-.54.7-.45.61.19-.22.23-.2a1.53,1.53,0,0,0-.14.21c.08.13.09.23.45,0a.67.67,0,0,1,.23-.21l.12,0A.85.85,0,0,0,2,20a1.08,1.08,0,0,0,.33-.13.34.34,0,0,0,.16.05,3.4,3.4,0,0,1,.38-.12c0,.05-.18.09.09.12s-.18-.1.14-.14.14.1.37.05c0,0,0,0-.11.06A3.38,3.38,0,0,0,4,19.77c.21.06.7,0,.68.09a3.26,3.26,0,0,1,.55-.09c-.34.13.71,0,.62.15a9.57,9.57,0,0,1,1.38-.12.2.2,0,0,1-.11,0,3.8,3.8,0,0,1,.49.07c0-.1.43-.12.64-.18.32.1-.19.12-.09.21,0-.08.55-.08.44-.15.24.06.21,0,.33.11,0-.12.22,0,.42-.09.35.06.09.11.47.07C10,19.9,9.67,19.94,9.67,19.94Zm9.06-.2Zm.76,0h-.33s0-.05.08-.05S19.38,19.71,19.49,19.73Zm-1.61-.48c.12,0,.16,0,.18,0h-.23Z"/><path class="cls-4" d="M17.66,19.34h-.05l.08,0,0,0Z"/><path class="cls-4" d="M13.54,23.63h0Z"/><polygon class="cls-4" points="21.15 15.56 21.14 15.57 21.19 15.61 21.15 15.56"/><path class="cls-4" d="M9.35,23.39l0,0S9.32,23.39,9.35,23.39Z"/><path class="cls-4" d="M7.54,23.38l-.25,0Z"/><path class="cls-4" d="M6.15,23.34l0,0h0Z"/><path class="cls-4" d="M22.44,26.15l0,0C22.32,26.29,22.38,26.23,22.44,26.15Z"/><path class="cls-4" d="M21.7,23.42l.21,0C21.79,23.38,21.7,23.38,21.7,23.42Z"/><polygon class="cls-4" points="21.55 31.11 21.55 31.11 21.58 31.14 21.55 31.11"/><path class="cls-4" d="M22.21,23.39a1,1,0,0,0-.3,0A1.51,1.51,0,0,0,22.21,23.39Z"/><path class="cls-4" d="M1.66,21.84v-.07h0Z"/><path class="cls-4" d="M1.65,21.76v-.07S1.64,21.75,1.65,21.76Z"/><path class="cls-4" d="M1.62,21.53l0,.16A.39.39,0,0,0,1.62,21.53Z"/><path class="cls-4" d="M2,23.25H2Z"/><path class="cls-4" d="M2.53,23.34a2.64,2.64,0,0,1-.44-.12l0,0C2.13,23.24,2.4,23.38,2.53,23.34Z"/><path class="cls-4" d="M4.86,23.65l-.47,0c.08,0,.19.07,0,.07C5,23.78,4.24,23.64,4.86,23.65Z"/><path class="cls-4" d="M6.31,23.69c-.25,0,0,0,0,.06C6.46,23.72,6.5,23.71,6.31,23.69Z"/><path class="cls-4" d="M16.83,23.69l0,.06C17,23.74,16.8,23.73,16.83,23.69Z"/><polygon class="cls-4" points="18.84 23.35 18.65 23.32 18.56 23.37 18.84 23.35"/><polygon class="cls-4" points="20.02 23.81 19.94 23.82 20.26 23.8 20.02 23.81"/><path class="cls-4" d="M23.17,31l-.1,0C23,31.07,23,31.15,23.17,31Z"/><path class="cls-4" d="M28.5,25.53a.81.81,0,0,0,.33-.29C28.7,25.36,28.56,25.46,28.5,25.53Z"/><path class="cls-4" d="M19.27,14.43a.72.72,0,0,1-.09-.2,1,1,0,0,0,.17.36A1.19,1.19,0,0,1,19.27,14.43Z"/></svg>