<svg id="Livello_1" data-name="Livello 1" xmlns="http://www.w3.org/2000/svg" viewBox="0 0 42.94 42.91"><defs><style>.cls-1{fill:#d0261e;}.cls-2{fill:#d32020;}</style></defs><title>Tavola disegno 13 copia 3</title><circle class="cls-1" cx="21.47" cy="21.46" r="17.6"/><path class="cls-2" d="M21.47,37.06c-.06.25,0,.84.12.72l.1-1Z"/><path class="cls-2" d="M22.54,38.84a4.68,4.68,0,0,0,.11-2.25c-.1,1-.16.57-.29,1.71-.15.13-.28-.3-.27-.67,0,.26-.23-.2-.3.42.21.76.49.78.72.13A2.14,2.14,0,0,1,22.54,38.84Z"/><path class="cls-2" d="M36.93,32.46l-.16,0A.26.26,0,0,0,36.93,32.46Z"/><path class="cls-2" d="M40.94,22.75c0,.08.12.12.21.13C41.08,22.8,41,22.74,40.94,22.75Z"/><path class="cls-2" d="M42.07,20.88A.67.67,0,0,0,42,21C42.1,21,42.15,20.91,42.07,20.88Z"/><path class="cls-2" d="M36.93,32.46l.42-.05C37.1,32.21,37.07,32.39,36.93,32.46Z"/><path class="cls-2" d="M24.23,36.24a.67.67,0,0,0-.08.27.4.4,0,0,1,.1-.12A.77.77,0,0,1,24.23,36.24Z"/><path class="cls-2" d="M34.35,36.47l-.07.06.21.36Z"/><path class="cls-2" d="M31.41,38.73c.09,0-.31-.75-.47-1.09a1,1,0,0,1,.14.59C31.16,38.37,31.27,38.53,31.41,38.73Z"/><path class="cls-2" d="M25.6,39.44l-.07.13A.54.54,0,0,0,25.6,39.44Z"/><path class="cls-2" d="M36.36,34.74a1.58,1.58,0,0,0,.25.17A1,1,0,0,0,36.36,34.74Z"/><path class="cls-2" d="M18.54,34.77c0,.06,0,.09,0,.15S18.55,34.78,18.54,34.77Z"/><path class="cls-2" d="M21.47,39.27l0,0c0,.16,0,.32,0,.48Z"/><path class="cls-2" d="M42.74,17.14v0C42.84,17.24,42.82,17.18,42.74,17.14Z"/><path class="cls-2" d="M17,.85c.51.65-.36,1.09.34,1.77C17.22,2.32,17.56,1.22,17,.85Z"/><path class="cls-2" d="M24.32,36.33l.11,0C24.37,36.29,24.34,36.3,24.32,36.33Z"/><path class="cls-2" d="M17.35,2.62h0l.07.07Z"/><path class="cls-2" d="M39,9.52a2.16,2.16,0,0,0-.26.28A1.22,1.22,0,0,0,39,9.52Z"/><path class="cls-2" d="M40.57,15.51l.06-.17A.31.31,0,0,0,40.57,15.51Z"/><path class="cls-2" d="M36.07,7.8c0-.1.06-.2-.09-.2a.2.2,0,0,0,0,.09C36,7.64,36.11,7.64,36.07,7.8Z"/><path class="cls-2" d="M33.71,5.65c0,.07,0,.12-.05.17l.1,0Z"/><path class="cls-2" d="M12.4,32.17c-.12.21-.26.43-.41.65C12.35,32.34,12.73,32.4,12.4,32.17Z"/><path class="cls-2" d="M24.31,36.7a.77.77,0,0,1,0-.37l-.07.06A1.13,1.13,0,0,0,24.31,36.7Z"/><path class="cls-2" d="M31.16,12.28,31,11.94A.58.58,0,0,0,31.16,12.28Z"/><path class="cls-2" d="M7.87,17.54l.07.11S8,17.59,7.87,17.54Z"/><path class="cls-2" d="M30.18,11.35a1.8,1.8,0,0,0,.24-.58,1,1,0,0,0-.17.14Z"/><path class="cls-2" d="M12,32.83h0Z"/><path class="cls-2" d="M15,32.51c-.25-.18-.69.85-1.07,1.36-.53.05.26-.79.45-1.34-.36.14-1.1.87-1.22.71a1.3,1.3,0,0,1,.26-.4c-.73.55-.65-.43-1.61.23a.89.89,0,0,1,.14-.24,13.07,13.07,0,0,1-.93,1.2c-.14-.1-.7.31-.28-.28.07.08.27-.13.45-.27l-.34.12c.57-.9.42-.11.92-.7-.46,0-1.35.4-1.35,0,.66-.77.68.16,1.05-.73l0,.55c.86-1.4.1.23,1-1.23-.13-.53-.76,0-.87-.52-.48.31-.58.61-1.06.92-1.26.12,1.53-2.13.17-1.6-.6.34-1.64,1.09-1.34.35l1-.6c-.18-.44-1.49.77-1.17-.1.42-.19.54.08.61-.06.54-.78-.68.2-.84,0l.82-.62c-.37-.34-1.34-.42-1.77-.88a1.79,1.79,0,0,0,.83-.43,1.06,1.06,0,0,1-.53-1,4.11,4.11,0,0,1,.37-1.27l-.92,0c0-.06.35-.22.52-.21.26-.35-.53.15-.89.13-.1-.14.43-.34.71-.32-.83-.21-1.92-1-1-1.64l.27,0c.3-.42-1.86-.2-1.1-.68l.16.06c.32-.89-.54-1.91.86-2.5-1.26-.22.6-.77-1.13-1,1-.39,1.24-.2,1.92-.75.09-.15-1-.47-1.16-.74l.91.2L7,17.79l1.11.12-.18-.26a1.16,1.16,0,0,1-.69,0c-.33-.46.82-.61,1.29-.45-.16-.31-.32-.63-.48-1a1.75,1.75,0,0,1,.61.49c-.75-.72.93.29.25-.37A2.82,2.82,0,0,1,8.24,16c.58,0,.78-.32.7-.7l.54.33c.35-.42.27-1.14.6-1.67-.36,0-1.27-.61-1.25-.84l.85.47c-.44-.44-.41,0-.89-.66.24-.15,1,.49,1.2.78l-.11-.42a7.4,7.4,0,0,1,.63.52c-.42-.45,1.07.21.32-.55l.24.16c.34-.48.32-.86.6-1.28-.6-.59-.33-.61-.71-1.21.5-.08,1.26.13,1.54-.23,0-.54-.38-.62-.58-1.1.51.58.83.25,1,.83A3.12,3.12,0,0,0,13.62,9c-.24-.23-.39-.3-.49-.54s.44.11.61.43V9c.06-.7.76-.5,1.38-.21s1.11.48,1.11-.34v.08c.1-.33.21-.66.33-1,.33,0,0,.61.38,1,.11-.74.41-.78.69-.74s.54.13.73-.37c.46,1,.8,1,1.17.77a1.77,1.77,0,0,1,.57-.25c.19,0,.38.12.54.47l-.07-.53c.12-.53.21.3.32.41,0-.41-.19-.47-.11-.76a1.92,1.92,0,0,1,2,.24,7.65,7.65,0,0,1,.9.69l.42.33a3.14,3.14,0,0,0,.4.34c.38.24,1-2.6,1.22-1.23l-.45.91a1.39,1.39,0,0,1,1.54,0A1.63,1.63,0,0,0,28.31,9c-.16.17-.3.43-.39.39-.17.72.6.4.92-.09.1.13-.24.47-.32.77-.07.46.93-.52.62.14a.46.46,0,0,1-.24.19c.3-.21.42.43.81-.32.05.54.8.12.71.69.75-.57.16.75,1.09-.18-.94,1-.28,1.2.32,1-.35.22-.17.44-.65.76.18.17.53.17,1-.32-.45.72,0,.66.3.68s.63,0-.13.77a5.85,5.85,0,0,1,.75.16,6.26,6.26,0,0,1,.65.25,4.74,4.74,0,0,1,1.1.67c-1.19.6-.52-.65-1.74.09.84.24,2,.14,2,.91-.09.23-.58.14-.81.18.41.18.47.52.58.82a1.14,1.14,0,0,0,.66.77.86.86,0,0,1-.39,0c.07.1-.12.32.47.14l-.19-.07c.8-.46,1.92,0,2.39-.09-1.77.22-.27.75-2.52.92a1.47,1.47,0,0,0,.84,0c-.09.14-.32.23-.8.21.44.34,1,.08,1.08.48a6.44,6.44,0,0,1-.77,0c.6.09,1.2.22,1,.6-.18,0-.41.07-.42,0,.2.54,1.63.88,1.12,1.61-1.31-.16-.41.24-1.53.28a3.51,3.51,0,0,1,.33.34l.55-.14c0,.3.76.62.38.87l-.44-.25.18.59.44-.3c.56.36,1.41,0,1.08.48-.11-.1,0,.35-.72.44h0c.33.2.67.43.36.64-.36,0-1.22-.24-1.46-.23.9.29.16.76,1.09,1.16a3.24,3.24,0,0,0-.91-.24l.71.29a1.21,1.21,0,0,1-.85,0c-.25.39,1.42.18.69.56-.05-.05-.17-.06-.26-.17-.43.42.22,1.15-.33,1.5-1.11-.24-.12-.49-1.07-.64A4.23,4.23,0,0,0,36,27.4a1.09,1.09,0,0,1-.12,1.11l.17-.06c1.38.79-.92.12-.41.76a2.25,2.25,0,0,0-.58-.42c-.46.26-.12,1-.11,1.88l-.28-.3c-.47,0-.61.46-.93.58.27.32.11.42.64.7-1.17-.34-1.23.12-1.25.69s-.06,1.17-1,.73c.07-.07-.08-.41-.13-.36l-.26.74c.49.48.34.25.81.56.2.37.25.75.11.88,0-.58-.71-.84-1.06-1.07.15.15.26.36.4.52-1.07-.73.82,1.13-.12.8l-.2-.31c0,.27.09.77-.14.82-.54-.61,0-.44-.43-1-.19.2.4,1.61-.28,1.08,0-.25.14-.35.11-.61-.76-.6-.66-.41-.91-.42h0l-.63-.12.24.16c.76,2-.4.73-.21,2.13-.16-1.36-.28-.69-.66-1.52-.23-.17-.51-.35-.58-.6.12.75-.56-.37-.38.73-.13-.26-.22.08-.47-.62-.15.34.26.44.39.79,0,.56-.38.36-.73.22s-.68-.24-.77.52c-.36.69-.21,1.66-.65,2.28a1.45,1.45,0,0,1-.1-1.07c-.39-.35-.56-.2-.77.17a1.87,1.87,0,0,0-.24-.78c-.19.11.05,1.07-.31.69a11.83,11.83,0,0,1,0-1.19c-.19.3-.35.88-.58,1.18a2.51,2.51,0,0,1,.09-1.13A1.83,1.83,0,0,0,23,37.93l.22.27c-.11,0-.12-.68-.06-.84.17-.66.38.23.44.51l-.17.22c.42,1.67.76-.39,1.13-.35L24.6,39q.12-.54.21-1.08c.15.31.36,1,.19,1.2.42.54.16-.5.57.11a.26.26,0,0,1,0,.22l.21-.44c0,.27.26.84,0,.72.73.55.61-1.13,1.07-.27l0,.09c.6-.63-.18-.9,0-2.09.34.67.71,1.34,1.09,2l-.24-.89c.08,0,.25,0,.35.37.05-.68-.19-.35-.24-1,.66.66.75-.73,1.42.56-.17-.69-.53-.34-.39-1,.77,1.38.29-.43.91.07.27.76-.23.53.42,1-.44-1.3.75,0,.89-.44-.53-.95.32-.72.55-1.28.18.34,1.08,0,1.7,0l.1.15c-.6-.94-.08-1,0-1.44A2,2,0,0,1,34,36.76a2.73,2.73,0,0,0,.25-.23,1,1,0,0,1-.14-.77l.49.67c.31-.35,0-1.3.79-1.32-.54-.55-1.79-1.2-1.8-2,.31.28.84.75.86,1,0-.08-.14-.37.06-.32l.35.66c.39,0-.34-.5-.16-.6.43.4.41.18.74.52,0,.07-.3,0-.19.18a1.34,1.34,0,0,1,1.08.16c-.26-.21-.59-.54-.53-.71.26-.35.64.35,1.05.35-.24-.34.26-.3-.42-.86.08-.1.42.14.64.24-.17-.42.56-.94-.36-1.28h-.08a.09.09,0,0,1,0-.05h0c-.27-1.06,1.23-1,1.31-1.82l.26.15c-.07-.54.26-1-.18-1.52.06-.11.62,0,.92.16-.06-.4-.33-.55.28-.82.36.52.47.06.23.47.39-.31.87-.25.28-1,.66.42,1,0,.88-.28l-.62.13a.84.84,0,0,1,.24-.62l.91.41c.73-.28.33-.88,0-1.36s-.5-.88.54-1.05c-.65-.37-.56.42-1.33,0,.19-.37,1.68-.58,1.7-.73.64-.54-1.34-.75-.91-1.3-.36.05-1.31,0-1.62-.43.15-.37,1.51-.41,1.79-.12,0,.11-.1.15-.21.13a.49.49,0,0,0,.65.21L41.45,23c.38-.18.37-.79.94-.62-.32-.36-.57-.17-.77.06.53-.54.09-.86.39-1.44-.19.09-.61.18-.61.09.4-.84-.69-.34-.87-.87.52-.34,1.3,0,.81-.5.35-.38.94-.17,1.24,0-.7-.48.32-1.06.41-1.41l.32.26a.6.6,0,0,1-.23-.45l-.68.27c.1-.18.08-.33.37-.37-.48-.1-1.15.31-1.83.09.32-.27-.47-.56.43-.82-.19.74.92-.27,1.17.3-.13-.1-.15-.24,0-.43a.24.24,0,0,1,.25,0c.67-.86-1.11-.09-1.26-.76.54,0,.94-.41.8-.49.06.28-.83.35-1.28.22.29-.54-.42-.37-.43-.6l-.12.3c-.53.07-.51-.15-.78-.36.39-.16.36.15.5,0-1,0,.67-1-.09-1.23.26-.34.92-.39,1.08-.66-.82-.25.44-.84-.32-1.14-.58.45-.41.39-1.21.34l.85.62c-.4,0-.8-.08-1.2-.1.1.24.66.32.6.52-.64,0-.47-.06-1,.28.83-.75-.87-.36-.38-1l1.59-.77c.21-.47-.12-.65-.51-.8s-.85-.27-.87-.74l-.13.39c-.66.27-.35-.39-.73-.46a2.51,2.51,0,0,0,.84-.87c-.35.26-.34-.54-1.34.1l.4-.77c-.17-.75-1.77.43-2-.14.61-.28.73-.77,1.37-.75-.14-.17-.19-.38-.5-.12.18-.34-1,.1-.71-.43-.25.12-.72.52-.84.32a1.06,1.06,0,0,1,.21-.2c-.21.19-.54,0-.86.62.43-.86.06-1.15-.3-1.39s-.74-.43-.48-1.22a6.11,6.11,0,0,1-1.41-.5c.12-.13.16-.24.2-.15-.2-.76-1.23,1.24-1.43.4.22-1,.56-.26.58-.68.91-1.71-.81-.2-.65-1.38l.15-.06c0-.74-1.11.28-1.53-.07a1.24,1.24,0,0,0,.12-.27A3.36,3.36,0,0,1,27.61,4c.4-.66.36-.29.53-1.06-.26,0-.37,1.19-.85,1.25a5,5,0,0,1,0-1.71,3.15,3.15,0,0,1,.44.11c.12-1.11-.57-.16-.75-.39l.16-.44c-.74,0-1,1.11-1.7.85V3c-.6,1.06-.19-.7-.73.09l.08-1.19A9.69,9.69,0,0,1,23.23,3,4.82,4.82,0,0,1,24.6,1.36c-.26-.05-.93-.05-1.12.51.11-.1.28-.37.36-.17C23.41,2.56,23,3,22.48,3c.21-2.29-1.3-.66-1.73-2.38a1.4,1.4,0,0,1-1.48.24A3.43,3.43,0,0,0,17.61.69c.72,1.7-.32.11.1,1.89-.22.16-.31.17-.36,0-.32-.29-.65-.59-1-.87-.32-.47.14-.46,0-.85-.61,0-.43-.69-1-1.06.26.61.06,1-.35.81l.7.69c-.5,1.13-1.15-1.26-1.66-.06l.06-.64c-.3.47-1.58.57-1.32,2.12-.16-.16-.47-.57-.35-.77-.51.13-.88.71-1.19,1.25s-.61,1-1.19.81l-.18-.42c-.09.22.18.87-.26.64-.09-.16-.19-.41-.28-.38,0,.19,0,.94-.3.88L9,4.24c-.58.07-.71.55-.73,1.09a4.53,4.53,0,0,1-.08,1.56,1.89,1.89,0,0,0-2.21-.61l-.12-.14a2.13,2.13,0,0,0-.67,1.55,18.31,18.31,0,0,1-.07,1.83,1.48,1.48,0,0,0-1.61.71,4.72,4.72,0,0,1-1.32,1.39c.28,0,.9.49.94.71-.35.12.54,1-.55.46l.06-.07c-1.15-.33-1.12.29-1.28.67L2.76,14c-1.24.06-1.32.81-1.26,1.48s.21,1.26-.87,1.32c.31.33.26.64.61,1l-.83-.16A2.81,2.81,0,0,0,0,19.58l-.6-.24c-.09.52,2.41.82,2.44,1.24l-1.28.08c0,.82-1.07,1.78.11,2.55-.19,0-.55,0-.61-.13,0,.4-.67,1.71,1,1.31-1.12.17,0,.91.59,1.22l-.83.11c1.14.15,1.42.09,1.84.51-.08.14-.63.27-.46.06-.32.51.84.1.54.69l-.56,0c0,.43.3.32,1,.34.41.13.06.79-.62,1.11.45-.1,1.11-.11,1,.19A.87.87,0,0,1,3,28.7c-.29.9,1.31.55.75,1.33a1.43,1.43,0,0,0-.41.29c-.23-.52-.38-.95-.31-.93-.71.3-.62.79-1.76.87.71.15,2.12.17,2,.73a1.37,1.37,0,0,1-.21.18H3c0,.13.09.18.24.2,0,.19-.07.31,0,.44-.53.36,0,.65.08.87.71-.46.75-.13,1.2-.74,0,.06-.11,0-.22-.1s-.07,0-.12,0l.07,0a4,4,0,0,1-.34-.45c.46-.06.86-.09.59.36l1.32-.45c-.86.86-1.06,1.74-1.59,2.21.82.3,1.26,1.22,2.77.48.28,0-.2.45-.33.67-.2,0-.27-.09-.48,0,.56,0,.9.77,1.75.06,0,.7-.92.52-.32.87l-.3.18c-.12,1.09.8,1,1.61.84s1.6-.32,1.53,1a.68.68,0,0,1,.09-.42,2.84,2.84,0,0,0,2.07,1.37,2.85,2.85,0,0,1,2.08,1.5c.33.46.62-.19,1-.61l-.18.9c.26-.28.51-.58.76-.87.42-.29.54.31.74.85s.49,1,1.05.35v-.62c.29.16,1-.21.86.48,0-.11.17-.62.25-.28l0,.47c.28-.22.55-.48.82-.74.55.37-.25,1.87.65,2a2.38,2.38,0,0,0,.84-1.66c-.13,0-.32-.31-.32-.78l.28-.24a8.39,8.39,0,0,0-.31-3.82c-.13.28-.27.56-.41.84l-.08-.69.31,0c-.15-.65-.28-.09-.43.29a2.29,2.29,0,0,0-.1-.75c-.15.43-.32.87-.49,1.31,0-.55.27-1.06.07-1.39-.24.59,0,1.24-.3,1.6-.12-.66,0-1.16-.27-.66a1.35,1.35,0,0,1,.2-.72c-.24.4-.5.1-.73.82,0-.79-.67.1-.38-1.2-.11.29-.54.93-.73.93.7-1.45-.6-.25,0-1.85-.63,1.32-.92.33-1.58,1,.06-.1.18-.3.19-.22-.17-.19-.07-.61-.09-.9-.48,1.07-.92,1.16-1.41,1.72.22-1.15.74-1.17,1.12-2.2-.39.88-.83.66-1.1,1.41a3.2,3.2,0,0,1,.33-1.3c-.72,1.29-.29.15-.88.84.09-.8.62-1.24.11-1A1.44,1.44,0,0,1,15,32.51Zm-7.19-4h0l.11.14Zm-.33-.65a.85.85,0,0,0,.11.3c-.25.15-.53.25-.55.18C7.26,28.28,7.34,28.05,7.51,27.85ZM3.19,32.17c-.19-.07-.07-.2.07-.31a1,1,0,0,0,.23.19l.09,0A2.3,2.3,0,0,1,3.19,32.17Z"/><path class="cls-2" d="M4.28,31.84s.07,0,.09,0l.11-.18-.25.09Z"/><path class="cls-2" d="M36.74,32.48h0l-.12,0Z"/><polygon class="cls-2" points="8.08 18.36 7.88 18.31 8.04 18.41 8.08 18.36"/><path class="cls-2" d="M31.55,33.82a1,1,0,0,0-.18-.13A.56.56,0,0,0,31.55,33.82Z"/><path class="cls-2" d="M30,34.72l-.38-.13A1.27,1.27,0,0,0,30,34.72Z"/><path class="cls-2" d="M28.6,35c.06.14.1.24.15.33h0Z"/><path class="cls-2" d="M35.2,17.27s0,0,0,0C35,17.17,35.05,17.23,35.2,17.27Z"/><path class="cls-2" d="M37.68,23.34a2.45,2.45,0,0,1-.36-.25C37.23,23.2,37.2,23.28,37.68,23.34Z"/><path class="cls-2" d="M31.17,12.32h0l0,0Z"/><path class="cls-2" d="M37.35,22.78c-.18.11-.14.21,0,.31C37.38,23,37.47,22.89,37.35,22.78Z"/><path class="cls-2" d="M23.06,36.34l-.06,0a.76.76,0,0,1,0,.14Z"/><path class="cls-2" d="M23,36.45l-.07.1S23,36.54,23,36.45Z"/><path class="cls-2" d="M22.81,36.77l.13-.22C22.89,36.55,22.83,36.52,22.81,36.77Z"/><path class="cls-2" d="M24.85,36.43l-.05-.31A1.73,1.73,0,0,0,24.85,36.43Z"/><path class="cls-2" d="M25.34,36.21c-.14,0-.46-.56-.58-.33l0,.24C24.77,35.66,25.35,36.74,25.34,36.21Z"/><path class="cls-2" d="M28.94,39c-.21,0-.41,0-.61,0,.2.27.49.63.28.8C29.65,40.39,28.2,39.13,28.94,39Z"/><path class="cls-2" d="M30.72,38.65c-.2.26.23.41.3.58C31.06,38.87,31.06,38.78,30.72,38.65Z"/><path class="cls-2" d="M39.29,29.41l.68.35C40,29.49,39.7,29.63,39.29,29.41Z"/><path class="cls-2" d="M36.36,26l-.51,0,.64.3C36.45,26.19,36.41,26.08,36.36,26Z"/><polygon class="cls-2" points="41.98 26.04 42.06 26.18 41.89 25.7 41.98 26.04"/><path class="cls-2" d="M34.64,5.42l-.54.78C34.32,6.18,35,5.39,34.64,5.42Z"/><path class="cls-2" d="M25.62,2.11c0-.5-.22-.84-.47-.41C25.35,1.8,25.49,2.2,25.62,2.11Z"/><polygon class="cls-2" points="1.47 14.08 1.25 13.77 1.36 14.23 1.47 14.08"/></svg>