<svg id="Livello_1" data-name="Livello 1" xmlns="http://www.w3.org/2000/svg" viewBox="0 0 42.94 42.91"><defs><style>.cls-1{fill:#d0261e;}.cls-2{fill:#d32020;}.cls-3{fill:#f8f8f8;}.cls-4{fill:#f9f9f9;}</style></defs><title>Tavola disegno 13 copia 5</title><g id="ccknpO"><path class="cls-1" d="M25.48,21.48c1.63,1.54,3,2.85,4.37,4.14a1.45,1.45,0,0,1,0,2.39c-2.78,3-2.92,3-5.82.11-.84-.84-1.75-1.6-2.8-2.55-1.27,1.26-2.61,2.56-3.91,3.9-1,1-1.82,1-2.83,0-2.82-2.64-2.84-2.62,0-5.33.89-.86,1.81-1.69,3-2.83C16,20,14.62,18.72,13.21,17.49c-1-.91-1-1.75-.06-2.74,2.74-2.77,2.72-2.78,5.48-.07.92.9,1.88,1.75,3,2.79,1.31-1.31,2.64-2.63,3.94-4a1.69,1.69,0,0,1,2.72-.05c2.94,2.68,3,2.67.1,5.42C27.51,19.73,26.55,20.53,25.48,21.48Z"/><path class="cls-2" d="M25.15,21.11c0,.07.13.17.19.07l-.1-.24Z"/><path class="cls-2" d="M26,20.93a.5.5,0,0,0-.22-.55c.06.27,0,.21.05.52a.15.15,0,0,1-.25,0c0,.07-.17.07-.11.23a.34.34,0,0,0,.43-.33C26,20.82,26,20.89,26,20.93Z"/><path class="cls-2" d="M27.52,12.55l.07,0A.13.13,0,0,0,27.52,12.55Z"/><path class="cls-2" d="M21.9,16.52a.08.08,0,0,0,0-.08S21.89,16.51,21.9,16.52Z"/><path class="cls-2" d="M21.47,16.28v0S21.48,16.26,21.47,16.28Z"/><path class="cls-2" d="M27.52,12.55l-.2-.14C27.29,12.48,27.42,12.5,27.52,12.55Z"/><path class="cls-2" d="M26.79,19.46a.2.2,0,0,0,0,.11l0-.08Z"/><path class="cls-2" d="M30.16,14.46l0,0a.45.45,0,0,0,.11,0Z"/><path class="cls-2" d="M30.75,17.23c0-.06-.13-.19-.2-.26a.24.24,0,0,1,.06.2Z"/><path class="cls-2" d="M27.77,19.73l0,.06A.33.33,0,0,0,27.77,19.73Z"/><path class="cls-2" d="M28.94,13.23a.13.13,0,0,0,0-.07Z"/><path class="cls-2" d="M26.79,24.09l0,0S26.78,24.07,26.79,24.09Z"/><polygon class="cls-2" points="25.52 21.44 25.55 21.46 25.64 21.38 25.52 21.44"/><path class="cls-2" d="M20.35,14.87h0C20.41,14.9,20.38,14.88,20.35,14.87Z"/><path class="cls-2" d="M14.93,22.56c.3,0-.11.43.29.34C15.14,22.86,15.22,22.45,14.93,22.56Z"/><path class="cls-2" d="M26.85,19.44a.46.46,0,0,1,.07-.07A.45.45,0,0,0,26.85,19.44Z"/><path class="cls-2" d="M15.22,22.9Z"/><path class="cls-2" d="M15.53,11.8a.35.35,0,0,0,.1.08S15.61,11.84,15.53,11.8Z"/><path class="cls-2" d="M19.11,14.31l0-.09A.39.39,0,0,0,19.11,14.31Z"/><path class="cls-2" d="M13.7,13.36s-.09,0-.12.08h0S13.63,13.38,13.7,13.36Z"/><path class="cls-2" d="M12.22,14.93h.07l0-.07Z"/><path class="cls-2" d="M29.17,27.49a.66.66,0,0,1,.2.06C29.24,27.47,29.38,27.24,29.17,27.49Z"/><path class="cls-2" d="M26.87,19.54a.1.1,0,0,1,0-.1l0,0S26.85,19.54,26.87,19.54Z"/><path class="cls-2" d="M14.79,14.61l-.24.2A1.41,1.41,0,0,0,14.79,14.61Z"/><path class="cls-2" d="M18.21,27.41l0-.07A.1.1,0,0,0,18.21,27.41Z"/><path class="cls-2" d="M13.9,15.5a.45.45,0,0,0-.2,0s0,0,0,.06Z"/><path class="cls-2" d="M29.37,27.55Z"/><path class="cls-2" d="M29.27,26.76c0,.07.26-.09.41-.13.13.11-.17.12-.3.17.07,0,.33.07.3.13s-.07,0-.12,0c.2.14-.16.33-.12.68l-.07,0a1.38,1.38,0,0,1,.31.23c-.09.1-.05.31-.22.22.06-.06,0-.11,0-.18l0,.16c-.28-.08.07-.2-.07-.34-.13.26-.2.65-.4.75-.21-.14.28-.42-.08-.37l.3-.17c-.46-.09.16-.13-.31-.25-.35.26-.24.43-.59.69,0,.16.17.12.2.29-.25.61-.77-.14-.84.38,0,.18.2.48-.12.49l-.09-.29c-.24.11,0,.47-.27.39,0-.13.12-.15.08-.17-.2-.18,0,.2-.15.21l0-.25a.52.52,0,0,1-.29.07,1.58,1.58,0,0,1-.56-.2c.07,0,.17-.07.14-.19a3.55,3.55,0,0,1-1.24-1.38h-.32s0-.14.07-.13c-.11-.22-.1.09-.25.07a.11.11,0,0,1,.07-.2c-.45-.15-1.17-.52-1.34-1h.11c-.19-.3-.6.07-.7-.3l.08,0a1.34,1.34,0,0,0-.2-.21l-.31-.29L21.65,25l-.31-.29-.08-.08s0,0-.07.05l-.14.12a3.11,3.11,0,0,1-.59.36c0,.23-.22.39-.44.58s-.28.25-.16.44c-.45.15-.42,0-.95.32-.13.1,0,.37-.09.54l-.16-.16,0,.36-.3-.09-.09.17c.06,0,.19,0,.22,0a.67.67,0,0,1-.7.31l-.35.62c-.06-.07,0-.18,0-.28-.09.42-.22-.12-.3.26.07,0,.08.12.11.16-.21,0-.52.31-.63.5l-.08-.14c-.3.25-.47.44-.59.42,0,.08.05.35,0,.37v-.24c-.08.13.08.11-.07.26-.12-.06,0-.28.06-.35s-.08,0-.13.05a1.12,1.12,0,0,1,.1-.18c-.11.12-.07-.29-.29-.14l0-.07c-.28-.21-.57-.4-.91-.69-.15.15-.24,0-.46,0a7.43,7.43,0,0,0-.59-.91c-.22-.11-.18.07-.34.06.07-.07,0-.17,0-.23s0-.09.11-.09a1.09,1.09,0,0,1-.15-.18.43.43,0,0,1-.12-.24c-.08,0-.13,0-.19,0s.14-.1.22-.05v0c-.06-.23.33-.48.65-.64s.67-.34.73-.68v0l.27-.55c.21-.16,0,.21.21.16.23-.66.75-.64,1-1.14.35.07.6-.18.84-.46a5,5,0,0,1,.39-.42,3,3,0,0,1,.76-.53l-.18,0c0-.23.3-.18.48-.3-.14,0-.33.14-.3,0s.34-.36.52-.53.22-.18.24-.26L18.5,21c-.36-.34-.72-.7-1.1-1.09l-.25-.27L17,19.49l-.3-.36c-.2-.24-.4-.48-.6-.7s-.65.35-.85-.26l.28-.08a4,4,0,0,1-1.11-.8c-.17-.15-.33-.31-.51-.45a3,3,0,0,0-.44-.29c.07,0,.12-.05.16,0,0-.22-.19-.29-.33-.24s.12-.06.18-.11-.24-.06-.06-.09l.08,0c-.1,0,.05-.13-.15-.17.14-.09.12-.38.35-.46-.09-.24.45-.3.25-.56.23.25.59-.21.63-.47,0,.12.2,0,.24.12.16-.16.26-.35.11-.45.29,0,.38-.17.46-.32s.18-.28.36-.08c.09-.16.13-.24.27-.27a1.18,1.18,0,0,1,.65.23c-.23.23-.49-.31-.63,0a1.73,1.73,0,0,1,1.22.53c.07.14-.17.05-.24.06.52.29.79.82,1.31,1.05,0,0-.09,0-.15,0s.15.2.25.08l-.11,0c0-.27.63-.05.73-.12-.44.19.31.44-.29.65a.22.22,0,0,0,.25-.06c0,.1,0,.16-.12.17.33.2.35,0,.6.23,0,0-.13,0-.21.06a.72.72,0,0,1,.62.27s-.06.09-.12,0a2.65,2.65,0,0,0,.62.33,1.8,1.8,0,0,1,.73.58c-.27.2.16.29.14.66l.36.22-.13-.31a.81.81,0,0,0,.1.09s.07.05.1,0l.17-.25a.9.9,0,0,1,.33-.36L22,17.9l.47-.55-.31.16c.18-.38-.17-.34.14-.54,0,.09.22-.21.42-.18h0c0-.15,0-.31.24-.4s.19.25.25.27c-.07-.25.38-.47.31-.76a.33.33,0,0,0,.14.19l-.06-.21c.13,0,.16,0,.23.07.28-.23-.33-.17.08-.36,0,0,0,0,0,.11.35-.25.49-.67.83-.88.28.11-.19.29.07.36.36-.43.58-1.06,1-1.4l-.09.05c-.22-.34.4-.14.46-.41,0,.06.08.22.06.18.28-.11.39-.4.85-.47l-.07.09c.13.11.38.17.52.33.11-.06.19,0,.22-.13.13.84,1.25.69,1.36,1.46-.05-.05-.19-.06-.15,0l.45.31c.09-.14,0-.12,0-.29a.43.43,0,0,1,.38.13c-.25-.1-.2.19-.21.33,0-.05.1-.06.13-.1-.07.4.31-.19.37.24l-.09,0c.12.08.29.14.32.3-.17.11-.14-.1-.29,0,.06.11.5.28.27.48,0-.09-.06-.21-.13-.27-.2.19-.16.18-.21.29h0a.77.77,0,0,1-.18.18l.09,0c.38.41-.15.45-.12.92,0-.48-.1-.16-.26-.33-.1,0-.25.08-.27,0,0,.24-.29.1-.27.46-.05,0-.13.13-.23,0-.12.2.13.05.18.13-.08.42-.8.36-.94,1-.23.4-.12.63-.34,1-.18,0-.1-.26-.1-.26a.66.66,0,0,0-.45.39c0-.07-.08-.08-.19-.1-.11.13.1.27-.14.34a.84.84,0,0,1-.07-.33c-.1.18-.16.41-.27.6-.12-.06,0-.23,0-.33-.13.19-.37.48-.28.68l.16-.05c-.06.06-.15-.1-.13-.17,0-.25.26-.14.32-.09l-.08.13c.4.22.39-.44.63-.62l.12.31,0-.39c.1,0,.26.11.18.25.26,0,.06-.21.32-.21,0,0,0,0,0,.05l.09-.21c0,.08.18.14.05.19.4-.12.29-.57.55-.49v0c.31-.42-.12-.19,0-.65l.58.22-.12-.2s.13-.09.18,0c0-.25-.09-.05-.11-.23.33,0,.43-.57.73-.36-.06-.19-.27.09-.16-.2.33.22.17-.27.46-.33.1.19-.13.29.16.23-.15-.33.37-.32.46-.55-.24-.15.2-.49.14-.93.05,0,.1-.17.08-.43a3.62,3.62,0,0,0-.22-.72l0,0c-.26.1-.43-.2-.64-.33a.3.3,0,0,1,.35-.07l-.16-.17a.39.39,0,0,1-.31-.08l.19-.11c-.22-.2-.6-.25-.78-.6-.15.13-.15.59-.52.42.06-.09.17-.23.27-.19s-.14,0-.16-.1l.23,0c-.07-.17-.16,0-.25-.05.1-.11,0-.15.09-.22s0,.12.12.11a.62.62,0,0,1-.14-.43c-.05.07-.14.14-.23.08s.05-.19,0-.37c-.12,0-.22-.2-.36,0-.08-.06,0-.15,0-.23-.18,0-.78-.38-.68-.07l0,0h0c-.3,0-.57-.08-.88-.09a1.17,1.17,0,0,0-.84.27l0-.06c-.23.25-.53.51-.55.76a.2.2,0,0,1-.28,0c-.12.2-.07.28-.39.42.07-.25-.13,0,.1-.23-.25.16-.38.12-.46.49-.06-.21-.32,0-.38.12l.24,0a1.22,1.22,0,0,1-.3.3l-.13-.23c-.63.21-.38,1.12-1.06,1.09,0,.23.31-.15.36.1-.21.17-.67.12-.73.18a.29.29,0,0,0-.17.34c0,.13,0,.28-.1.31a.33.33,0,0,1,.13.46c-.2.15-.31-.22-.28-.36s0,0,.06,0,0-.14-.05-.19l0,.09c-.1,0-.19.08-.21-.12,0,.15,0,.21.07.21s-.1,0-.15.05a.41.41,0,0,1-.13-.17c0,.07,0,.22,0,.19-.15-.29-.14.1-.34,0,0-.21.28-.19,0-.31-.1-.22.13-.21.24-.2-.35-.1-.37-.5-.48-.65l.17.07a.63.63,0,0,1-.22-.16l-.05.2c-.06-.09-.12-.15-.07-.2-.15,0-.14.27-.4.24,0-.16-.37-.21-.24-.41.25.35.13-.2.42,0a.37.37,0,0,1-.19-.17s.05,0,.08,0c-.15-.43-.32.07-.63-.22a.17.17,0,0,0,0-.28c.12.12-.1.22-.28.19-.13-.26-.27-.15-.37-.25l.09.14c-.13.06-.22,0-.39-.14.06-.09.18.06.16,0-.32,0-.17-.5-.49-.59,0-.16.16-.19.12-.32-.36-.11-.14-.38-.51-.53,0,.21,0,.18-.3.14l.52.31-.45-.06c.12.12.35.17.4.26-.23,0-.19,0-.23.13,0-.36-.45-.21-.53-.52l.29-.33a.77.77,0,0,0-.53-.39l-.38-.13-.47-.2.22.15c-.16.12-.46-.13-.73-.06,0-.16-.13-.2-.27-.27,0,.07-.63.16-.53.47l-.36,0c-.48.23-.19.67-.54.91,0-.21-.23-.15-.09-.44-.11.1-.23.17-.16.25-.12,0-.15.41-.33.4,0,.09.09.21,0,.31a.07.07,0,0,1,0,0s-.11.24.1.26c-.62,0-.8.81-1.36.95A2.57,2.57,0,0,0,12,16.08c-.05,0-.08,0-.06-.08-.12.55.4.29.41.78-.1.34-.23-.21-.24,0-.22.12-.12.3,0,.45s.34.29.36.5l-.08,0c0,.16.18.24.35.31a1.2,1.2,0,0,1,.46.24s0,0,0,.06a2,2,0,0,1,1,.39c-.2.07-.18,0-.26.16.13.08.17-.26.44-.1,0,.15.11.36,0,.54l-.23-.19c-.06.3.29.24.37.38l-.09.07c.36.27.56,0,.9.38l0-.09c.39-.05.06.26.39.27l-.13.28a6.44,6.44,0,0,1,.88.32c-.23.09-.61-.09-.85-.13.12.1.47.39.59.29,0,0-.16,0-.18-.08a1.3,1.3,0,0,1,.4,0,.83.83,0,0,1,.34.19c-.31.1-.26.2-.19.29l.05.07s-.06,0-.1.06a.72.72,0,0,1-.35.05c0,.1-.06.17-.21.25a4.78,4.78,0,0,0-.78.6c.49.16-.14.15.2.46-.1.13-.15.16-.18.15l-.55.14c-.18,0,0-.18,0-.24-.28.22-.24,0-.5,0,.15.08.07.25-.12.35l.36-.05c-.2.52-.59,0-.79.54l0-.21c-.13.24-.7.67-.62,1.12-.07,0-.21,0-.15-.15a8.79,8.79,0,0,0-1.17,2l-.09-.1c0,.21.14.36,0,.59,0,0-.12-.07-.12,0s.09.18.15.31a1.32,1.32,0,0,1,.18.41l-.2-.16a1.19,1.19,0,0,0,.65.85,5.12,5.12,0,0,1,.7.36c-.24.23,0,.66.18.86l0,0a2.43,2.43,0,0,0,.78.55,7,7,0,0,0,1.06.45,1.35,1.35,0,0,0,1.3.49,4,4,0,0,0,1.52-.61c-.13,0-.14-.21-.06-.32s.16-.49.36-.26l0,0c.29.12.46-.15.63-.32l-.25-.3c.86,0,1-1.33,1.64-1.21,0-.18.17-.31.21-.49l.15.16c.17-.13.29-.23.42-.35l.2-.19c.06-.07.17-.19.15-.19a.38.38,0,0,0,.09.13s-.3-.57-.17-.72l.12.33a.12.12,0,0,1,.09,0l.07.15c0,.08.05.08.2,0,0,0-.1.1-.12.1s0,0,0,0l.09.11.2.22c.15.13.3.19.42,0-.19.21.37.37.66.47l-.18.12c.36,0,.42-.08.71.09,0,.07-.06.16-.1.06.11.25.29,0,.44.28l-.18,0c.19.19.22.13.44.12a.46.46,0,0,1,.22.56.3.3,0,0,1,.4.08c0,.07-.11.06-.14.06.23.42.66.28.77.65,0,.06,0,.1,0,.13a4.17,4.17,0,0,1-.47-.45c-.13.14.08.37-.28.4.28.06.8.1,1,.36a.11.11,0,0,1,0,.08h0a.28.28,0,0,0,.19.09.6.6,0,0,0,.21.21c0,.16.34.3.59.36.05-.2.29-.09.1-.33,0,0,0,0-.18,0a.14.14,0,0,0-.09,0l0,0a4.41,4.41,0,0,1-.4-.19.4.4,0,0,1,.47.15c.15-.09.29-.2.35-.24a.89.89,0,0,0,.44.41,1.59,1.59,0,0,1,.45.21c.67-.32,1.18-.76,1.14-1.24.06-.12.18,0,.26,0s-.1.14-.09.21c.14-.26.53-.57.38-.81.31-.14.06.31.33,0l0,.11c.46-.16.57-.54.7-.91a4.61,4.61,0,0,1,.69-1.3c0,.09-.07.13-.12.13a1.31,1.31,0,0,0,0-1.08,2.42,2.42,0,0,0-.64-.76,3.85,3.85,0,0,1-1.09-1.22c-.16-.27-.31-.16-.53-.19l.11-.21-.41,0c-.45-.17-.18-.94-.83-1.06l-.06.16c-.12-.16-.52-.38-.38-.48,0,0-.16.07-.16,0l.08-.09-.5-.2c-.22-.33.37-.3,0-.7-.18-.11-.67-.16-.66-.05a.24.24,0,0,1,0,.29l-.18-.08c-.26.23-.61.38-.44.88l.38.07,0,.2-.2-.18c0,.22.17.19.32.19a.25.25,0,0,0,0,.23l.46,0c-.07.13-.29.1-.19.3.22,0,.11-.32.36-.22,0,.22-.12.28.11.31a.14.14,0,0,1-.19.08c.19,0,.34.26.53.19,0,.25.44.34.2.57a.9.9,0,0,1,.51.1c-.48.1.39.41,0,.66.4-.11.65.39,1,.5,0,0-.1,0-.11,0a.87.87,0,0,1,.14.42c.22-.19.5,0,.75,0,0,.38-.35.15-.48.4.16-.18.48.12.55-.08,0,.26.07.18-.05.4.28-.24.13.05.37,0,0,.25-.25.25-.08.3A.31.31,0,0,1,29.27,26.76Zm-3.12,2.5h0l.11.07Zm-.44-.36a.79.79,0,0,0,.19.17c0,.07-.1.11-.14.07S25.74,29,25.71,28.9Zm.26,2c-.13,0-.15-.09-.15-.14a1,1,0,0,0,.21.08h0A.28.28,0,0,1,26,30.88Z"/><path class="cls-2" d="M26.29,30.73s0,0,.06,0l-.06-.07-.07,0Z"/><path class="cls-2" d="M27.6,12.62v0l0,0S27.61,12.63,27.6,12.62Z"/><polygon class="cls-2" points="18.62 26.86 18.66 26.9 18.66 26.83 18.62 26.86"/><path class="cls-2" d="M29.67,15.34a.14.14,0,0,0,0,.06A.08.08,0,0,0,29.67,15.34Z"/><path class="cls-2" d="M30,16.28s-.07.07-.1.1S30,16.31,30,16.28Z"/><path class="cls-2" d="M29.53,16.93l0,.08h0Z"/><path class="cls-2" d="M18.18,15.37l0,0C18,15.31,18.1,15.34,18.18,15.37Z"/><path class="cls-2" d="M22.76,16.79a.61.61,0,0,1-.06.21C22.81,16.91,22.84,16.88,22.76,16.79Z"/><polygon class="cls-2" points="14.82 14.59 14.82 14.59 14.79 14.61 14.82 14.59"/><path class="cls-2" d="M22.47,17.22A.49.49,0,0,0,22.7,17,.69.69,0,0,0,22.47,17.22Z"/><path class="cls-2" d="M26.05,20.09l-.05,0,0,0Z"/><path class="cls-2" d="M26,20.15l0,.06S26,20.17,26,20.15Z"/><path class="cls-2" d="M25.94,20.33l0-.12S25.92,20.27,25.94,20.33Z"/><path class="cls-2" d="M27.2,19.2l0-.07S27.17,19.17,27.2,19.2Z"/><path class="cls-2" d="M27.51,18.89c-.09.06-.31.06-.39.19l0,.05C27.13,19,27.52,19.05,27.51,18.89Z"/><path class="cls-2" d="M29.51,18.3l-.31.22c.11,0,.24,0,.14.16C29.85,18.52,29.14,18.62,29.51,18.3Z"/><path class="cls-2" d="M30.42,17.5c-.11.19.09.07.12.11C30.57,17.44,30.57,17.41,30.42,17.5Z"/><path class="cls-2" d="M24.91,13.49l-.12-.15C24.7,13.47,24.84,13.4,24.91,13.49Z"/><polygon class="cls-2" points="24.5 15.32 24.69 15.29 24.61 15.12 24.5 15.32"/><polygon class="cls-2" points="22.86 15.03 22.89 14.96 22.76 15.19 22.86 15.03"/><path class="cls-2" d="M12.34,14.47l.22.11C12.61,14.47,12.43,14.26,12.34,14.47Z"/><path class="cls-2" d="M15.19,20c0,.13.05.3.2.28C15.3,20.16,15.26,20,15.19,20Z"/><polygon class="cls-2" points="18.84 29.32 18.81 29.46 18.92 29.26 18.84 29.32"/></g><path class="cls-3" d="M19.76,41.46c-.62-.08-1.23-.14-1.84-.23A20.57,20.57,0,0,1,4.69,33.81,20.37,20.37,0,0,1,1.55,28.6a.77.77,0,0,1,.76-1.13c.9,0,1.8,0,2.7,0a1,1,0,0,1,.93.68,15.9,15.9,0,0,0,10.45,8.7A16.46,16.46,0,0,0,37,24.43,15.84,15.84,0,0,0,29.72,7.87,16,16,0,0,0,19.51,5.56,16.38,16.38,0,0,0,6,14.74a1.1,1.1,0,0,1-1.11.68c-.79,0-1.58,0-2.37,0s-1.17-.55-.88-1.22C4.53,7.25,9.77,2.88,17.42,1.74,25.38.56,32.14,3,37.25,9.21a18.71,18.71,0,0,1,4,9.64A19.86,19.86,0,0,1,30.68,39a20.46,20.46,0,0,1-8.32,2.37,2.21,2.21,0,0,0-.35.08Z"/><path class="cls-4" d="M19.75,40.79c-.11.09,0,.28.26.24l.22-.33Z"/><path class="cls-4" d="M21.83,41.4a1.25,1.25,0,0,0,.46-.38.3.3,0,0,0,0-.43,3.2,3.2,0,0,0-.37.33,1.94,1.94,0,0,0-.4.3c-.31,0-.54-.11-.48-.23-.11.09-.48-.07-.65.14a1.57,1.57,0,0,0,1.44,0C22,41.26,21.86,41.34,21.83,41.4Z"/><path class="cls-4" d="M41.9,22.26l0,.2A.59.59,0,0,0,41.9,22.26Z"/><path class="cls-4" d="M34.36,5.42c.12.08.19.1.21.08S34.35,5.38,34.36,5.42Z"/><path class="cls-4" d="M31.84,3.24l.16.12A.24.24,0,0,0,31.84,3.24Z"/><path class="cls-4" d="M41.9,22.26a4.77,4.77,0,0,0,.13-.51C41.92,21.71,42,22,41.9,22.26Z"/><path class="cls-4" d="M25.72,40a.76.76,0,0,0-.23.15l.23-.09Z"/><path class="cls-4" d="M40.05,30.47l-.07.14a.64.64,0,0,0,.06.18Z"/><path class="cls-4" d="M36.29,35.8c.11-.1,0-.33-.1-.46a.52.52,0,0,1-.08.37A.3.3,0,0,0,36.29,35.8Z"/><path class="cls-4" d="M27.38,40.72l-.17.09Z"/><path class="cls-4" d="M41.7,26.09a.16.16,0,0,0,.11,0A.14.14,0,0,0,41.7,26.09Z"/><path class="cls-4" d="M13.17,38.57s0,0,0,0S13.21,38.59,13.17,38.57Z"/><path class="cls-4" d="M19.75,41.53h-.11s0,.1,0,.15Z"/><path class="cls-4" d="M26.24.64h0C26.43.66,26.34.64,26.24.64Z"/><path class="cls-4" d="M20.64,6.65c-.58-.23.93-.36.05-.6C20.77,6.15,19.92,6.52,20.64,6.65Z"/><path class="cls-4" d="M25.88,40l.24-.06Z"/><path class="cls-4" d="M20.69,6.05h0L20.6,6Z"/><path class="cls-4" d="M12.29,1.85a.42.42,0,0,0,.18.06A.26.26,0,0,0,12.29,1.85Z"/><path class="cls-4" d="M22.59.71,22.34.65A1,1,0,0,0,22.59.71Z"/><path class="cls-4" d="M7.7,4.82A.74.74,0,0,0,7.38,5h.07A.38.38,0,0,1,7.7,4.82Z"/><path class="cls-4" d="M3.74,8.8l.11,0,.09-.15Z"/><path class="cls-4" d="M3,28.88H2.7C3,28.92,3.1,29.13,3,28.88Z"/><path class="cls-4" d="M25.76,40.16a.2.2,0,0,1,.12-.16l-.16.06A.08.08,0,0,0,25.76,40.16Z"/><path class="cls-4" d="M8.86,6.71c-.22.14-.43.31-.64.47Z"/><path class="cls-4" d="M34.77,32l-.11.18A.35.35,0,0,0,34.77,32Z"/><path class="cls-4" d="M6.56,8.86a1.41,1.41,0,0,0-.45.2.48.48,0,0,0,0,.12Z"/><path class="cls-4" d="M2.7,28.87Z"/><path class="cls-4" d="M5.65,32.45c-.46-.59-.51-.06-.78-.06-.63-.68,0-.5,0-.86-.4-.41-.92-.61-1.12-1,0-.06,0-.14.13-.1a2.7,2.7,0,0,1-.73-1,.72.72,0,0,0-.1-.18l-.09-.11a1.85,1.85,0,0,0-.31-.27h.1a2.72,2.72,0,0,1-.6-.08c-.13-.22-.39-.66,0-.58-.06.15.07.23.17.34a.72.72,0,0,1-.08-.32c.28,0,.25.14.25.24a.26.26,0,0,0,.18.29.51.51,0,0,1,.06-.64.82.82,0,0,1,.6-.09c.15.34-.67.12-.11.42a.64.64,0,0,0-.47,0c.78.33-.17.07.63.45.12,0,.11,0,.15-.06a.19.19,0,0,1,.09-.05,1.23,1.23,0,0,1,.25,0l.39,0c.26-.19-.08-.28.18-.47l.26,0,.13,0a.24.24,0,0,1,.18.06.36.36,0,0,1,0,.35c0,.11-.1.2-.12.25s0,0,0,.07a1.53,1.53,0,0,0,.28.33c.35.19.79.09,1.05,1l-.49-.07c.63,1.05.82.29,1.34,1.45-.26-.09-.66-.69-.59-.51.24.84.5.35.89.83l-.18.31a16.32,16.32,0,0,0,3.22,2.59c-.13,0-.38,0-.18.26a47.44,47.44,0,0,0,4.88,2.76l.72-.08c.15,0,.24.21.06.21.63.28.09-.16.43-.2s.46.28.19.31a40.34,40.34,0,0,1,4.64.32l-.25.09c1,.14,1.07-.64,2-.43l-.16.06c2.13-.06,4.24-1,5.88-1.31.07-.52,2-.81,1.73-1.43a6.62,6.62,0,0,0,2.41-1.06c.38-.27.27-.73.61-1.17l.23.21.3-.77a4.87,4.87,0,0,0,.55-.06l.27-.47c-.15.16-.39.27-.43.18a3.57,3.57,0,0,1,.88-1c.31-.26.56-.46.64-.42a13.17,13.17,0,0,0,.77-1.83c.09.09,0,.41-.07.68.2-1.09.38,0,.56-1-.12.08-.14-.15-.19-.19a4.92,4.92,0,0,0,1-2.17l.16.21a16.77,16.77,0,0,0,.69-4.7c-.12.58-.48.42-.5-.05l.33-.18c-.2-.31-.13.49-.37-.14,0-.59.37-.41.47-.05l-.11-.75c.1,0,.15.13.27.17-.21-.29.26-1.33-.16-1.74l.09,0a15.15,15.15,0,0,0-1-3.62c-.27.07-.41-.44-.76-.71a10.42,10.42,0,0,0-1.31-3c-.58-.6-.33-.06-.68-.27.19-.2-.58-1.1-.05-.74a11.41,11.41,0,0,0-1.14-1.2,11.27,11.27,0,0,0-1.55-1.17c.09.2.22.37.08.37-.27-.17-.5-.53-.39-.6l.08,0a11.12,11.12,0,0,1-1.31-.88c-.42-.34-.86-.7-1.31-1a5,5,0,0,0-2.71-1.2h.1C26.12,5,25.56,5,25,5c-.73-.2.49-.09,0-.36-1.82.06-2.81-.47-4.29-.17a4.06,4.06,0,0,0-2.64-.06,17.87,17.87,0,0,1-2.9.58l.14.15c-.32.29-.49,0-.78.11.08.1.46,0,.26.17a28,28,0,0,0-4.61,2.38,16.45,16.45,0,0,0-3.95,3.53c-.79,1,.33,1.09-.84,2.2,0-.18,0-.37-.06-.55-.15.36-.3.73-.47,1.09a.84.84,0,0,0-.07.16v0h0l.08.07c.19.18.16.24.11.05a.69.69,0,0,1,0-.18H4.14l-.71,0a.56.56,0,0,1-.31,0C3,14,3,14,3,13.79c.07,0,.18,0,.15.09.18-.1.22-.17.21-.28a.37.37,0,0,0,0-.09,1.77,1.77,0,0,0,0-.2c0-.13,0-.23,0-.25.18-.3.19,0,.38-.13.33-.35.3-1.18.64-1.27,0,0,0,.16,0,.24,0-.33.78-1.17.39-1.08.56-.61.83-1.36,1.37-1.76,0-.53,1-.93.85-1.32.27.34,1.28-.72,1.58-1.19-.06.21.44-.16.4.11.45-.36.85-.73.64-.86A2.76,2.76,0,0,0,11,5.05c.38-.32.75-.57,1.17-.38a15.65,15.65,0,0,1,4.63-2c0,.42-1.74.42-1.55.87A10.28,10.28,0,0,1,19,2.45c.4,0-.21.21-.33.31A30.92,30.92,0,0,1,23,2.49s-.16.08-.3.1c.27,0,.61.11.6-.09l-.26,0c-.41-.35,1.13-.5,1.21-.64-.54.5,1.32.36.48,1,.18,0,.41-.06.4-.2.25.09.31.18,0,.29,1,.06.67-.19,1.52,0,0,.09-.21.09-.33.18a2.43,2.43,0,0,1,1.63.18c-.06,0,0,.15-.21.07,1.18.39,2.22.32,3.36,1.2-.57.16.34.36.2.72.24.08.45.21.68.31l-.15-.32c.54.37,1.18.49,1.55,1l-.48-.18c.33.24.68.46,1,.71a6,6,0,0,0-.45-.55c.65.27.25-.43.87.24-.16-.1.5.45.61.85h0a2,2,0,0,1,.93.72c0,.17-.37.21-.37.33.46,0,1.1,1.09,1.62,1.2a.25.25,0,0,0-.31.12l.37.05c.13.29.12.35,0,.41.5.76.21-.53.68.49-.06-.06-.07,0-.2-.13a16,16,0,0,1,1.6,2.69c-.21.42-.46-.75-.6-.31a12.83,12.83,0,0,1,1.81,4l0-.27c.57.07,0,1.09.33,1.74-.06-.17-.33-.18-.26-.14a13.39,13.39,0,0,0,.24,1.51A16.74,16.74,0,0,1,41,21.64l-.14-.18c-.1.56-.13,1.49-.25,2.09.11.19,0,.54.27.35a7,7,0,0,0-.71,2.65,4.18,4.18,0,0,1-.92,2.4c.08-.19.07-.49,0-.34-.13.46-.32.89-.48,1.34.25,0,.2-.1.5-.3a1.71,1.71,0,0,1-.21,1c.17-.65-.33-.16-.58,0,.08,0,.1.12.18.13-.74.45.34.35-.43,1.1l-.08-.11a4.32,4.32,0,0,1-.5,1.07c-.31,0,.13-.41,0-.56-.3.5-.28,1.24-.82,1.5.09-.25.32-.53.41-.77a1.9,1.9,0,0,0-.88.66l0,0a9.19,9.19,0,0,1-.76.64l.24-.13a1.42,1.42,0,0,1-.51,1.1,2.92,2.92,0,0,0-.85,1.06c.42-1-.05-.29-.19-.57-.23.11-.59.26-.56.13-.21.47-.71.33-1,1-.08-.06-.41.27-.46,0-.45.4.21.06.24.19-.59.81-2,.84-3,1.81a18.76,18.76,0,0,1-2,1.55c-.4,0,.17-.43.17-.43a3.85,3.85,0,0,0-1.52.46c.09-.12,0-.15-.23-.22-.42.13-.2.42-.8.41a1.47,1.47,0,0,1,.34-.48c-.48.2-.94.48-1.47.65-.16-.15.29-.31.45-.45-.57.19-1.51.37-1.68.65l.4,0c-.22,0-.13-.21,0-.28.49-.27.75,0,.8.09l-.38.12c.48.52,1.54-.33,2.28-.5l-.22.49c.24-.18.47-.35.69-.54.2.06.38.25,0,.42.6,0,.44-.28,1-.21.06,0,.05,0,0,.08l.48-.3c-.07.12.19.25-.16.3,1.05-.1,1.41-.87,1.88-.73l-.07.06c1.21-.72,0-.33.77-1.1.32.12.64.23,1,.33l0-.34c.13-.06.38-.18.4,0,.36-.45-.14-.07,0-.4.76-.09,1.5-1.15,1.92-.83.07-.33-.65.23-.14-.32.48.29.61-.6,1.25-.8,0,.32-.54.59.11.38,0-.59,1-.77,1.33-1.21-.26-.28.72-.93,1.17-1.73,0,.06.33-.24.71-.63s.76-.92,1-1.24l0,0c-.24-.34.27-1,.49-1.63.19.12.22.27.13.61a5.36,5.36,0,0,0,.28-.53,1.29,1.29,0,0,1,.11-.74l.18.25c.35-.73.35-1.6.85-2.5-.23-.13-.9.53-.76-.52.14,0,.38,0,.35.32a1,1,0,0,1,.1-.51l.09.48c.24-.41-.11-.29,0-.63.18.06.21-.22.35-.13,0,.09-.18.28-.14.44a3.15,3.15,0,0,1,.57-1c-.11,0-.26-.06-.21-.37.15-.78.29-.21.49-.65-.11-.22.1-.71-.19-.76,0-.23.18-.26.27-.33,0-.43.11-1.94-.22-1.49l0,.1v-.06h0a10.11,10.11,0,0,1,0-2.06,8.12,8.12,0,0,0-.11-2h.09A8.62,8.62,0,0,0,41,16.2c-.06-.23,0-.58.17-.52a4,4,0,0,1-.5-1.47c.37.52.08-.26.33.55a2.76,2.76,0,0,0-.69-1.7c.36.17,0-.69-.2-1,0,.2.06.4.08.59-.21-.37-.36-.71-.52-1.06l.39,0A4.07,4.07,0,0,0,38.8,9.73a3.24,3.24,0,0,1-1.16-1.6c-.46-.18.46.77,0,.65-.45-.58-.6-1.5-.79-1.66-.6-.87-1-.36-1.72-1.16,0,.18-.1.5-.75.06s-.41-.95,0-.74c.15.11.19.19.16.22.22.11.48.3.35,0l-.15,0c-.21-.33-1.05-1-.74-1-.52-.27-.31,0,0,.31a4.56,4.56,0,0,0-1-.8c-.31-.21-.64-.42-1-.71.1.13.16.33,0,.25-1.19-.87-.66-.15-1.55-.54-.43-.41.37-.31-.6-.6-.51-.35,0-.34.28-.33a7.5,7.5,0,0,1-2-1l.5.07a3.92,3.92,0,0,1-.77-.2l.2.31c-.26-.13-.49-.2-.46-.3-.33.07.1.44-.51.49-.34-.2-1.13-.17-1.2-.48,1.14.37-.05-.35.94-.15a2.24,2.24,0,0,1-.7-.19s.06,0,.14,0c-1.08-.5-.6.23-1.76,0,.18-.16-.22-.37-.42-.35.48.06.18.32-.26.4-.73-.23-.82,0-1.21,0L23,.8C22.87,1,22.5.92,22,1c0-.14.48-.07.29-.14-.57.26-1.29-.35-2.1-.12-.37-.1-.05-.34-.38-.4-.89.29-1-.18-1.95.13.31.2.34.14-.29.45.51-.11,1-.25,1.53-.34-.32.13-.64.3-.95.45A9.23,9.23,0,0,1,19.38.75c-.46.23-.42.16-.18.35-.67-.32-1.22.34-2,.19L17.16.7c-1.17-.06-1.92.64-3.35.92l.48,0c-.12.29-.85.29-1.27.54,0-.2-.32-.17-.55-.21.07.13-1,.37-1,.81l-.7,0c-1.11.45-.94,1.1-1.91,1.65.17-.37-.34-.21.22-.75-.32.21-.63.36-.56.48-.27,0-.7.83-1.09.88-.08.17,0,.35-.32.62-.06,0-.06-.08-.06-.08s-.42.53,0,.46c-1.31.27-2.25,2.24-3.22,2.74-.45.69-.94,1.54-1.3,2.19,0-.07-.08,0,0-.16-.69.79.17.82-.54,1.73-.56.38.13-.62-.15-.35-.62-.24-.65,1.49-1.26,2.48,0-.08,0-.16,0-.24A1.14,1.14,0,0,0,1,15.72a2.88,2.88,0,0,0,1.74.44h0s-.07.06,0,.1a8.11,8.11,0,0,1,.85-.21,7,7,0,0,1,.72-.15l.82-.11a1.39,1.39,0,0,0,.82-.49c-.09.45-.42.46,0,.53.27-.22.14-.27.09-.37s0-.24.15-.64c.25-.17.64-.61.91-.54l-.35.66c.5-.16.45-.85.73-1.14l.1.12A4.3,4.3,0,0,0,8,12.83a2.58,2.58,0,0,1,.61-1.08l-.17,0c.12-.79.53-.29.76-1l.42.13.59-.89a7.1,7.1,0,0,1,.87-1c-.19.5-.79,1.21-1.07,1.73.3-.31,1.06-1,1.12-1.28-.11.13-.21.36-.39.42a3.28,3.28,0,0,1,1.45-1.62c.13.36.63.1,1.23-.18s1.3-.57,1.69-.39c1.32-.8,2.89-.77,4.62-1-.68-.53.51-.06.36-.66.42-.06.58,0,.62,0,.43.11.85.23,1.26.37s-.4.12-.36.26c.88.08.36.27.92.47-.11-.23.33-.29.81-.14-.22-.12-.44-.25-.67-.36,1.28-.18,1,.63,2.23.57l-.42.1c.65,0,2.2.64,3,.48.08.11.14.32-.13.25,1.34.65,3.25,1.24,4,2.28l-.18,0c.23.15.55.12.71.47-.05,0-.19,0-.09.13a2.44,2.44,0,0,1,.9.7l-.34-.12c.81,1.22,1.76,1.51,2.49,2.59-.37.21,0,1.31.16,1.88h-.07a28.2,28.2,0,0,1,1.55,4.28,5.21,5.21,0,0,0-.2,1c0,.39-.06.82-.12,1.28a8.4,8.4,0,0,1-.62,2.61c.13-.21.32.13.29.42s-.07,1.09-.41.9l0-.12c-.48.13-.61.88-.92,1.4l.43.32a5.64,5.64,0,0,0-.9,1c-.29.38-.49.84-.77,1.22a6.64,6.64,0,0,1-.79,1.06,1.54,1.54,0,0,1-.82.49,9.1,9.1,0,0,1-.75,1l-.16-.23-.57.42-.54.33c-.36.22-.71.51-1.28.82l.13-.3c-.64.3-.41,1.2-1.07,1.47L27,35.1a7.56,7.56,0,0,1-.91.32l-.95.2a7.9,7.9,0,0,0-1.85.57.28.28,0,0,1,.23-.25c-.29.07-.88,0-1.35.09s-.84.15-.73.43c0-.19-.34-.21-.76-.15s-.93.17-1.29.2l.13-.27A2.19,2.19,0,0,1,18,36.6c-.19-.08-.13-.25.12-.13-.62-.28-.56.15-1.32-.17l.33-.11a1.45,1.45,0,0,0-1.05,0c-.46,0-1.23-.49-1.23-.76a.88.88,0,0,1-.91-.08c0-.11.15-.09.23-.09-.95-.65-1.68-.49-2.21-1.14a.24.24,0,0,0,0-.22c.74.5,1.38.84,1.31.83.12-.23-.48-.6.18-.65a3.92,3.92,0,0,1-2.14-.78.28.28,0,0,1,0-.13l.07,0A.94.94,0,0,0,11,33a4.08,4.08,0,0,0-.39-.43c.07-.21-.51-.63-.75-.89-.19.22-.47-.16-.34.32,0,0,.07,0,.25.19l.13.09h0c.17.16.4.36.67.59a1,1,0,0,1-.8-.59,5.46,5.46,0,0,1-.68,0c-.08-.64-.51-1.52-.39-1.77a13.28,13.28,0,0,1-1.14-1.38c-.18-.25-.38-.46-.55-.66a4.64,4.64,0,0,0-.61-.53c-.26-.33-.17-.52-.24-.71.24.14.41.43.54.53a1.9,1.9,0,0,0-1.48-.94c-.69,0-1,.11-1.05.28-.86-.16.51-.34-.73-.28a1,1,0,0,0,.2-.11,7.37,7.37,0,0,0-1.26-.12,2.06,2.06,0,0,0-1,.27,1.31,1.31,0,0,0-.58.76,1.44,1.44,0,0,0,.07.94,15.82,15.82,0,0,0,.94,1.7,6.29,6.29,0,0,1,.67,1.63c0-.18-.08-.26,0-.33a12,12,0,0,0,2.65,3.6c1.07,1.07,2.19,2,3.22,3.1.62.57.84.42,1.35.54v.35c.31,0,.61.1.92.13,1.15.33,1.58,1.63,3.23,1.7l-.12-.26c.5.23,1.69.4,1.55.59a.35.35,0,0,1,.41,0l0,.16c.47,0,.93,0,1.38,0,1,.28-.26.61,1.25.86.57,0,1.65-.26,1.45-.39s-.56-.17-.55-.33l.51,0c.15-.45.59-.88-.59-1.35l-.89.18c-.09-.09-.16-.18-.24-.27.23,0,.48.06.71.08a1,1,0,0,0-.95,0,.55.55,0,0,0-.3-.3c-.3.11-.59.18-.89.28-.06-.2.43-.28-.08-.49-.42.12.27.48-.38.47-.34-.31-.18-.45-.68-.39,0-.13.09-.18.28-.19-.44,0-1.06-.25-1.35-.08-.3-.37-1.34-.42-1.13-.83A2.4,2.4,0,0,1,12,38.49c.85-.16-1.25-.67-.8-1.1-.68.17-1.66-.78-2.52-1.13.06,0,.18,0,.23.07a3.41,3.41,0,0,1-.59-.83c-.3.25-1-.19-1.45-.34-.19-.71.6-.06.71-.46-.2.25-1-.53-1-.2-.16-.52-.2-.39-.13-.78C6,34,6,33.44,5.55,33.33c-.26-.69.23-.42-.35-.92C5.11,32,5.65,32.45,5.65,32.45Zm4.79,2.37h0l-.33-.24A3.81,3.81,0,0,0,10.44,34.82Zm1.4.93c-.17-.12-.38-.26-.61-.4,0-.11.11-.16.25-.07C11.37,35.29,11.67,35.54,11.84,35.75Zm-1.51-3.56c.2.13.22.22.21.29l-.33-.25h0A.42.42,0,0,1,10.33,32.19Z"/><path class="cls-4" d="M9.77,32.16l-.08-.06a.88.88,0,0,0,.05.15h.13Z"/><path class="cls-4" d="M41.84,22.49v0a.25.25,0,0,1,0,.07A.07.07,0,0,1,41.84,22.49Z"/><polygon class="cls-4" points="33.59 33.48 33.54 33.43 33.48 33.58 33.59 33.48"/><path class="cls-4" d="M38.52,30.63a.22.22,0,0,0-.12.06S38.46,30.67,38.52,30.63Z"/><path class="cls-4" d="M36.37,33.65A4.35,4.35,0,0,1,36,34,1.8,1.8,0,0,0,36.37,33.65Z"/><path class="cls-4" d="M34.29,35.59a.22.22,0,0,0,0,.13h0Z"/><path class="cls-4" d="M22.67,2.59h-.11C22.31,2.64,22.48,2.63,22.67,2.59Z"/><path class="cls-4" d="M34.92,7.33a2.71,2.71,0,0,1-.42-.2C34.67,7.31,34.8,7.44,34.92,7.33Z"/><polygon class="cls-4" points="8.94 6.67 8.94 6.66 8.86 6.71 8.94 6.67"/><path class="cls-4" d="M34,6.71a1.52,1.52,0,0,0,.47.42A2.11,2.11,0,0,0,34,6.71Z"/><path class="cls-4" d="M23.25,40.42h-.14s0,0,0,0Z"/><path class="cls-4" d="M23.1,40.47l-.15.05C23,40.51,23.08,40.5,23.1,40.47Z"/><path class="cls-4" d="M22.64,40.62l.31-.1C22.84,40.53,22.71,40.53,22.64,40.62Z"/><path class="cls-4" d="M26.92,39.78l0-.11A.12.12,0,0,0,26.92,39.78Z"/><path class="cls-4" d="M28,39.37a4.63,4.63,0,0,0-1,.21v.09C27.05,39.47,27.81,39.63,28,39.37Z"/><path class="cls-4" d="M32.9,38.22c-.3.16-.58.35-.89.48.21,0,.49,0,.1.27C33.38,38.56,31.77,38.92,32.9,38.22Z"/><path class="cls-4" d="M35.47,36.39c-.37.41.11.11.13.17C35.79,36.25,35.84,36.18,35.47,36.39Z"/><path class="cls-4" d="M41.24,15.43h.26C41.34,15,41.4,15.44,41.24,15.43Z"/><path class="cls-4" d="M38.38,12.05c0,.14,0,.27,0,.41l.29,0C38.61,12.35,38.5,12.2,38.38,12.05Z"/><polygon class="cls-4" points="38.48 8.93 38.63 9.06 38.1 8.54 38.48 8.93"/><path class="cls-4" d="M4.16,7.86l.32.1C4.63,7.71,4.4,7.42,4.16,7.86Z"/><path class="cls-4" d="M8.64,12a.89.89,0,0,0,.64-.59A3.91,3.91,0,0,0,8.64,12Z"/><path class="cls-4" d="M34.19,28.58l0-.32a3.46,3.46,0,0,1-.19.54C34.09,28.72,34.15,28.66,34.19,28.58Z"/></svg>