<svg id="Livello_1" data-name="Livello 1" xmlns="http://www.w3.org/2000/svg" xmlns:xlink="http://www.w3.org/1999/xlink" viewBox="0 0 42.94 42.91"><defs><style>.cls-1{fill:none;stroke:#fff;stroke-miterlimit:10;stroke-width:0.99px;}.cls-2{fill:#fff;}.cls-3{clip-path:url(#clip-path);}</style><clipPath id="clip-path"><rect class="cls-1" x="2.47" y="2.13" width="38.31" height="38.31" rx="19.15" ry="19.15" transform="translate(49.23 33.89) rotate(160)"/></clipPath></defs><title>Tavola disegno 13</title><path class="cls-2" d="M41,21.29c.08.06.28,0,.23-.15L40.86,21Z"/><path class="cls-2" d="M41.51,20.06a.63.63,0,0,0-.76-.26c.33.18.2.24.59.44a.23.23,0,0,1-.22.3c.09.06-.06.27.16.37a.6.6,0,0,0,0-.85C41.36,20,41.45,20.05,41.51,20.06Z"/><path class="cls-2" d="M33.48,4.63l.07.1A.23.23,0,0,0,33.48,4.63Z"/><path class="cls-2" d="M23,.71c.09,0,.13,0,.14-.07S23,.68,23,.71Z"/><path class="cls-2" d="M21,.3l.12,0C21.11.29,21.07.28,21,.3Z"/><path class="cls-2" d="M33.48,4.63l-.18-.27C33.22,4.44,33.38,4.52,33.48,4.63Z"/><path class="cls-2" d="M40.44,17.78a.36.36,0,0,0,.11.14l-.06-.14Z"/><path class="cls-2" d="M37.35,7.8l.06.07.16,0Z"/><path class="cls-2" d="M39.63,10.93c0-.08-.3,0-.42.06a.34.34,0,0,1,.26.07A.83.83,0,0,0,39.63,10.93Z"/><path class="cls-2" d="M41.38,16.74l.07.1Z"/><path class="cls-2" d="M35.45,5.78a.42.42,0,0,0,0-.1A.13.13,0,0,0,35.45,5.78Z"/><path class="cls-2" d="M39.86,25.3h0S39.87,25.27,39.86,25.3Z"/><path class="cls-2" d="M41.7,21.29v.06h.16Z"/><path class="cls-2" d="M17.37.34h0C17.48.3,17.43.31,17.37.34Z"/><path class="cls-2" d="M1,25.76c.15-.41.46.52.6-.08C1.45,25.76,1,25.27,1,25.76Z"/><path class="cls-2" d="M40.46,17.68a.68.68,0,0,1,0-.14A.46.46,0,0,0,40.46,17.68Z"/><path class="cls-2" d="M1.55,25.68h0v0Z"/><path class="cls-2" d="M9.69,3.76a.25.25,0,0,0,.14.06S9.78,3.78,9.69,3.76Z"/><path class="cls-2" d="M15.44,1.42l-.15,0Z"/><path class="cls-2" d="M7.43,6.1c-.07,0-.12,0-.18.14h0C7.3,6.18,7.33,6.13,7.43,6.1Z"/><path class="cls-2" d="M5.2,8.56l.08,0,0-.09Z"/><path class="cls-2" d="M36,33.44a.88.88,0,0,1,.29.06C36.08,33.41,36.32,33,36,33.44Z"/><path class="cls-2" d="M40.59,17.75c-.07,0-.11,0-.13-.07l0,.1S40.57,17.78,40.59,17.75Z"/><path class="cls-2" d="M8.86,7.8l-.38.29A2.26,2.26,0,0,0,8.86,7.8Z"/><path class="cls-2" d="M16.42,39.4h.11A.09.09,0,0,0,16.42,39.4Z"/><path class="cls-2" d="M7.56,9.16a.6.6,0,0,0-.33.07s0,0,0,.09Z"/><path class="cls-2" d="M36.27,33.5h0Z"/><path class="cls-2" d="M37.51,30.55c-.24.37.2.36.33.55-.19.53-.36.08-.61.13-.09.34.05.75-.13.94-.06,0-.1,0-.13-.08,0,.46-.62.86-.6,1.43l-.1,0a1.19,1.19,0,0,1,.43.28c-.14.16-.09.44-.33.34.1-.09,0-.16,0-.26l-.07.24c-.39-.08.12-.3-.08-.47-.2.38-.33.95-.62,1.13-.29-.19.43-.65-.08-.53L36,34c-.65-.08.23-.2-.43-.32-.51.4-.34.67-.88,1,0,.24.23.17.25.4-.47.89-1.11-.14-1.32.66,0,.28.22.66-.31.77l-.1-.4c-.53.35,0,.66-.65.85,0-.19.32-.4.22-.38-.52,0-.12.36-.39.56l-.24-.24c-.55.37-1,1-1.69,1.4,0-.1,0-.25-.15-.27a5.07,5.07,0,0,1-1.32.65,13.19,13.19,0,0,1-1.44.25l-.23.4c-.07,0-.18-.09-.11-.16-.38,0,0,.18-.1.33s-.3-.09-.2-.21a3.11,3.11,0,0,1-2.33.73l.11-.1c-.52,0-.49.68-1,.48l.08-.06c-1.12,0-2.38.29-3.21-.24-.2.42-1.08-.24-1.22.3-.59-.38-.4-.46-1.24-.79-.23-.05-.42.29-.72.28l.06-.3-.47.21-.11-.41h-.29c.1,0,.19.19.15.27-.47,0-1-.48-.91-.65l-1-.1c.07-.11.25-.09.4-.12-.62.11,0-.34-.54-.24,0,.09-.11.16-.14.21a2.21,2.21,0,0,0-1.08-.62l.17-.15c-.66-.34-1.43-.66-2.15-1.1a.26.26,0,0,1-.29.41l.09-.32c-.25.08.16.24-.27.27-.24-.22,0-.43.24-.41l-.37-.14c0-.09.14-.08.23-.17-.25.07-.33-.66-.72-.51l0-.09c-.68-.48-1-.7-1.52-1.14-.21.2-.37,0-.68,0a7.47,7.47,0,0,0-.93-1.44c-.38-.25-.26,0-.51,0,.17-.19-.21-.66.12-.52-.45-.58-.64-.68-1.28-1.39,0,.15,0,.27-.12.27s-.12-.4,0-.44l0,0a2.33,2.33,0,0,1-.69-1.57,2.13,2.13,0,0,0-.6-1.42l0,0-.55-.72c-.1-.38.26.17.31-.16a1.61,1.61,0,0,1-.51-1.07,2.34,2.34,0,0,0-.32-1A1.63,1.63,0,0,0,3.22,24a6.09,6.09,0,0,1-.18-.8,1.48,1.48,0,0,1,.13-.71L3,22.51c-.19-.2.09-.26.12-.41-.14,0-.15.23-.25.11A7.14,7.14,0,0,1,3,19.53c.09-.44.25-.88.37-1.31l.19-.65L3.78,17c.2-.6-.8-.59-.18-1.28l.25.32a6,6,0,0,1,.49-1.94,8.25,8.25,0,0,0,.75-1.85c0,.11.11.15,0,.27.34-.13.53-.86.36-1,.13-.16.18.05.33,0s.08-.76.38-.74c0,0,0,.11,0,.16,0-.21.52-.64.19-.67.4-.3.45-.83.83-1-.06-.39.68-.52.41-.87.31.33.82-.39.92-.73,0,.16.3-.08.34.14.25-.24.43-.52.23-.65.8,0,.75-1.17,1.45-.84l.52-.6.56-.5a8,8,0,0,1,1.16-.9c.16.38-.9.54-.62.94A4.72,4.72,0,0,1,14,3.76c.23,0,0,.23-.08.34a3.86,3.86,0,0,1,1.18-.56A6.3,6.3,0,0,0,16.24,3s-.06.1-.13.16c.15-.06.37,0,.3-.22l-.14.09c-.33-.22.45-.76.44-.92-.11.64.82-.06.58.78.09-.07.19-.2.14-.32.16,0,.22.06.1.25.52-.25.29-.39.8-.48,0,.1-.08.16-.11.28a1.08,1.08,0,0,1,.9-.44c0,.06,0,.13-.09.15.72-.18,1.23-.63,2.07-.5-.23.44.29.12.34.5a2.26,2.26,0,0,1,.43-.11l-.17-.19c.38,0,.74-.23,1.07-.09l-.3.14.73,0-.4-.16c.41-.17,0-.47.51-.34-.11,0,.4,0,.58.28h0a.77.77,0,0,1,.7-.05c.06.13-.12.4-.09.49.24-.27.92,0,1.22-.22a.34.34,0,0,0-.12.29l.21-.21c.16.12.18.17.11.31.52.19-.06-.5.53-.14-.06,0,0,.05-.16.06.61.26,1.28.15,1.8.5,0,.41-.52-.1-.43.27A10.19,10.19,0,0,0,29,3.38a3.54,3.54,0,0,1,1.22.43l-.12-.1c.34-.42.45.49.94.47-.11,0-.26.19-.21.15a7.65,7.65,0,0,0,1.89.82l-.17,0a8.35,8.35,0,0,0,.92.86c.17,0,.33.1.35-.13A2.07,2.07,0,0,0,34.91,7.1a1.6,1.6,0,0,1,1,1.13c-.08-.09-.27-.13-.21-.06l.66.54c.13-.2,0-.17.05-.42a.79.79,0,0,1,.56.26c-.38-.19-.27.24-.28.45,0-.07.13-.07.18-.13-.05.62.41-.23.56.44l-.11,0c.18.14.44.22.56.44-.15.24-.24-.12-.43,0,.21.27.84.26.77.69-.14-.09-.25-.27-.4-.35a.91.91,0,0,0,.1.69v0l.18.56v-.17c.81,0,.6.67,1.23,1-.63-.31-.26,0-.55.13,0,.17,0,.42-.1.4.34.13,0,.48.51.67-.08.06.12.27-.13.31.22.28.12-.14.24-.16.55.37.07,1.33.78,1.9.37.6.71.64,1,1.23-.1.24-.39-.09-.39-.09a1.31,1.31,0,0,0,.21.91c-.09-.05-.15,0-.24.15.06.25.37.11.28.48a1.41,1.41,0,0,1-.42-.19c.13.28.36.55.49.85-.15.11-.28-.15-.41-.24.13.33.3.88.55,1l.09-.24c0,.13-.22.09-.29,0a.28.28,0,0,1,.12-.48l.1.22c.53-.31-.23-.9-.26-1.35l.43.11-.41-.4c.09-.12.31-.24.41,0,.14-.38-.22-.26-.06-.59,0,0,0,0,.07,0l-.2-.29c.1,0,.27-.12.27.09.08-.64-.55-.85-.3-1.16l0,0c-.38-.75-.31,0-.85-.46l.57-.64-.32,0c0-.08-.05-.25.07-.26-.3-.23-.1.09-.35,0,.14-.49-.54-1-.14-1.26-.28,0,0,.43-.33.1.42-.33-.3-.41-.25-.85.29,0,.32.37.37-.08-.49,0-.23-.71-.49-.94-.32.17-.49-.52-.87-.91.15-.05-.41-.93-.61-1.41l.06,0c-.36.15-.58-.32-.9-.54a.42.42,0,0,1,.5,0,3,3,0,0,0-.24-.26A.64.64,0,0,1,37,7.7l.27-.12c-.34-.34-.86-.5-1.17-1-.2.16-.16.82-.73.53.08-.12.22-.3.38-.23-.05,0-.22,0-.26-.17h.35c-.13-.25-.24,0-.38-.11.13-.14,0-.21.1-.31s.09.19.2.19a1.07,1.07,0,0,1-.27-.66.22.22,0,0,1-.33.1c-.36-.31,0-.29-.1-.55-.17,0-.32-.27-.52,0-.11-.08,0-.2,0-.3-.28,0-.94-.65-.91-.23l0,0h0c-.77-.26-1.28-1-2-1.35l.05-.09A4.22,4.22,0,0,0,30.24,3c-.13-.06-.22-.3-.12-.38a1.46,1.46,0,0,1-.85-.35c.4,0-.06-.18.4,0-.41-.24-.46-.42-1-.35.25-.17-.23-.42-.47-.42l.26.28a3.21,3.21,0,0,1-.66-.24L28,1.25c-.85-.65-1.86.19-2.44-.6-.3.19.49.25.21.48-.43-.11-.81-.66-1-.68-.6-.27-.64.38-1.25.2.07.12.11.44-.36.52S22.69.65,23,.57c.1,0,.15,0,.15.07s.34-.07.17-.21l-.07.12C23,.41,22.4.4,22.55.21c-.34.09-.15.19.1.26A6.18,6.18,0,0,0,21.16.32c.09.06.18.2.09.2-.87-.1-.37.24-.95.33-.34-.17.09-.44-.49-.26-.37-.1-.1-.31,0-.41a2.54,2.54,0,0,1-1.36,0L18.77,0a1.44,1.44,0,0,1-.45.12l.2.21c-.18,0-.32,0-.33-.09-.15.18.19.37-.11.63-.24-.08-.64.22-.78-.06.71,0-.14-.3.44-.45a.74.74,0,0,1-.42.07s0-.08.05-.1c-.72-.11-.23.42-.91.59.05-.2-.24-.29-.34-.22.28-.07.2.25,0,.45-.47,0-.44.22-.67.26h.28c0,.19-.26.22-.53.38-.06-.12.24-.18.11-.2-.22.41-.83,0-1.21.32-.25,0-.14-.3-.36-.31-.42.39-.64,0-1.09.42.26.15.25.08,0,.47l.77-.56L13,2.51c.25-.11.46-.4.64-.41-.19.28-.18.22,0,.35-.49-.17-.59.51-1.08.48l-.25-.54c-.74,0-.92.81-1.73,1.14l.29-.06c0,.26-.44.3-.62.53-.09-.18-.28-.15-.45-.18.09.11-.52.37-.35.73L9,4.58c-.63.34-.3.9-.82,1.3,0-.3-.31-.2-.07-.62-.17.15-.35.26-.26.36-.18,0-.28.62-.56.62,0,.12.11.29-.08.45,0,0-.07-.07-.07-.07S7,7,7.27,7c-.88.09-1.27,1.39-2,1.56C5,9,4.73,9.47,4.5,9.84c0-.06-.08-.05,0-.11-.48.42.28.62-.25,1.09-.45.14,0-.4-.17-.27-.6-.25-.38.74-.91,1v-.12c-.35.22-.16.9-.45,1.4a.11.11,0,0,0-.09,0,5.21,5.21,0,0,1-.13,1.78c-.18-.25,0-.28-.32-.27,0,.25.41.07.31.56-.18.1-.43.4-.69.37a4,4,0,0,1,.14-.46c-.44.12-.19.59-.3.82l-.15-.08c-.13.73.25.83,0,1.57l.14,0c.28.48-.28.3-.07.77l-.41.06a12.64,12.64,0,0,1,.25,1.52A3.58,3.58,0,0,1,1,18.06c0,.28-.12,1,.06,1.11,0-.11-.1-.26,0-.36a2.21,2.21,0,0,1,.35,1.36C.61,20,1.08,21.59.56,22a4.19,4.19,0,0,1,.14,1.5,8.51,8.51,0,0,0,.12,1.64c.52-.51.06.33.65.15.08.25.12.34.08.38l-.16.87c-.12.23-.19-.22-.32-.16.1.59-.19.3-.24.74.19-.14.35.11.36.47l.15-.55c.5.71-.28.85.3,1.55l-.27-.19c.25.37.55,1.53,1.21,1.68,0,.1-.14.27-.26.11a5,5,0,0,0,.9,1.37A2.92,2.92,0,0,1,4,32.8l-.17,0c.14.14.4.13.43.4-.06,0-.17,0-.13.1s.52.26.6.51l-.26-.07a2.06,2.06,0,0,0,.86.91,5.58,5.58,0,0,1,1,.59c-.33.29.08,1,.33,1.31l-.05,0a5.1,5.1,0,0,0,1.29.93c.44.24.93.38,1.4.64a2.43,2.43,0,0,0,1.09,1.1c.52.34,1.08.71,1.52,1-.11-.15.18-.29.37-.25s.76,0,.55.37l-.08,0c0,.43.52.59.91.72l.26-.47a2.31,2.31,0,0,0,1.67.83c.63.09,1.2.14,1.41.55a8.39,8.39,0,0,0,.86-.1l-.06.27a6.72,6.72,0,0,0,1.93.31l-.2.19c.51,0,.7-.78,1.14-.78l.12.43a4.53,4.53,0,0,0,2.58-.07c0,.07,0,.19-.16.21.41,0,1.61.1,1.38-.45.06.37.89-.09,1.3-.34V42c.31-.44.3-.54.79-.77.13,0,.17.19,0,.16.46,0,.26-.34.79-.32l-.13.22c.43-.1.37-.16.53-.45a.81.81,0,0,1,.95,0,.49.49,0,0,1,.42-.46c.07.08,0,.17,0,.21.77-.06.86-.74,1.43-.69a.21.21,0,0,0,.15.11,5.94,5.94,0,0,1-.93.4c.1.24.56.07.35.56.28-.35.69-1,1.16-1.1a.2.2,0,0,1,.09,0l0,.05a.45.45,0,0,0,.25-.17,1.63,1.63,0,0,0,.37-.13c.15.15.53-.19.74-.31-.17-.22.12-.35-.25-.39,0,0,0,0-.15.14s-.06,0-.07.08v0l-.49.32c.09-.22.19-.43.49-.43,0-.21,0-.44,0-.55.48.17,1.13,0,1.33.15.48-.58,1.34-1.09,1.3-1.82.11-.19.28,0,.39,0-.05.12-.16.21-.16.31.21-.38.86-.86.67-1.19.49-.23,0,.45.5-.09V36a2.32,2.32,0,0,0,1.13-1.47,2.3,2.3,0,0,1,1.15-1.57c-.11.06-.16.09-.22.07,1.26-1.28,1.59-3.18,2.63-4.61.27-.42.06-.55,0-.88h.33c-.06-.2-.14-.4-.2-.59,0-.38.22-.63.45-.92a1,1,0,0,0,.28-1.13l-.22.08c.09-.31,0-1,.26-1,0,0-.19-.13-.07-.25h.16a6.07,6.07,0,0,0-.19-.82c.14-.61.62.15.7-.78,0-.35-.42-1-.53-.85s-.11.34-.27.35l-.07-.3c-.46-.07-.93-.27-1.29.42l.26.5-.23.14V22c-.22.23,0,.38.08.55a.44.44,0,0,0-.26.19l.42.52c-.19,0-.34-.25-.48.06.17.24.44-.17.52.21-.25.21-.41.12-.27.42-.12,0-.19-.05-.23-.16.11.26,0,.64.19.81-.28.19-.07.83-.51.71a1.16,1.16,0,0,1,.19.72c-.41-.53-.24.8-.75.54.39.43-.16,1.08-.09,1.68,0-.05-.07-.13,0-.17-.14.27-.3.3-.45.45.35.18.23.64.33,1-.5.17-.32-.4-.7-.45.3.12,0,.71.3.72-.33.15-.2.17-.55.15.41.27,0,.28.1.62-.42.23-.45-.14-.56.32C37.46,31,37.51,30.55,37.51,30.55Zm-7,7.83h0l.19-.11Zm-.82.4.36-.16c.07.07.08.17,0,.21S29.79,38.79,29.64,38.78Zm2.7.78c-.12.12-.19.1-.24.06a1.91,1.91,0,0,0,.22-.17v0A.89.89,0,0,1,32.34,39.56Z"/><path class="cls-2" d="M32.39,39.1s0,0,0-.05h-.12v.11Z"/><path class="cls-2" d="M33.56,4.75v0a.13.13,0,0,1,0,.06Z"/><polygon class="cls-2" points="17.41 39.51 17.4 39.58 17.49 39.54 17.41 39.51"/><path class="cls-2" d="M36.7,9a.16.16,0,0,0,0,.1A.22.22,0,0,0,36.7,9Z"/><path class="cls-2" d="M37.93,10.82l.08.32A1.33,1.33,0,0,0,37.93,10.82Z"/><path class="cls-2" d="M38.66,12.34l.12,0h0Z"/><path class="cls-2" d="M16.11,3.19a.09.09,0,0,0-.06,0C15.93,3.31,16,3.26,16.11,3.19Z"/><path class="cls-2" d="M23.89,1.85a1.43,1.43,0,0,1-.27.09C23.76,2,23.86,2,23.89,1.85Z"/><polygon class="cls-2" points="8.9 7.77 8.9 7.77 8.86 7.8 8.9 7.77"/><path class="cls-2" d="M23.25,1.92a.48.48,0,0,0,.37,0A.78.78,0,0,0,23.25,1.92Z"/><path class="cls-2" d="M40.64,19.25v.08h0Z"/><path class="cls-2" d="M40.68,19.33l0,.09S40.71,19.34,40.68,19.33Z"/><path class="cls-2" d="M40.8,19.6l-.08-.18C40.72,19.49,40.72,19.57,40.8,19.6Z"/><path class="cls-2" d="M40.4,17.05h0Z"/><path class="cls-2" d="M40.2,16.41c0,.16-.11.44,0,.64h.08C40.12,17,40.4,16.51,40.2,16.41Z"/><path class="cls-2" d="M40.47,13.26c.06.19.09.39.14.59.06-.14.15-.33.27-.08C40.91,12.93,40.71,14,40.47,13.26Z"/><path class="cls-2" d="M39.8,11.5c.19.27.14-.07.2-.09C39.82,11.27,39.77,11.25,39.8,11.5Z"/><path class="cls-2" d="M30,2.45l.13-.22C29.93,2.15,30.13,2.32,30,2.45Z"/><path class="cls-2" d="M27.23,2.8A1.84,1.84,0,0,1,27.4,3l.18-.19A2.07,2.07,0,0,0,27.23,2.8Z"/><polygon class="cls-2" points="26.24 0.66 26.36 0.66 25.92 0.64 26.24 0.66"/><path class="cls-2" d="M5.36,7.92l.29.15C5.72,7.91,5.47,7.65,5.36,7.92Z"/><path class="cls-2" d="M1.36,16.94a.37.37,0,0,0-.2.53C1.21,17.25,1.36,17.06,1.36,16.94Z"/><polygon class="cls-2" points="14.28 41.2 14.05 41.23 14.44 41.28 14.28 41.2"/><path class="cls-2" d="M21.63,40.62c-.07.09,0,.28.14.24l.13-.34Z"/><path class="cls-2" d="M22.85,41.17a.63.63,0,0,0,.26-.76c-.18.33-.24.2-.44.59a.21.21,0,0,1-.29-.22c-.07.09-.28-.05-.37.16a.59.59,0,0,0,.84,0C22.92,41,22.86,41.11,22.85,41.17Z"/><path class="cls-2" d="M38.29,33.14l-.11.07A.34.34,0,0,0,38.29,33.14Z"/><path class="cls-2" d="M42.2,22.65c0,.09,0,.13.07.14S42.23,22.64,42.2,22.65Z"/><path class="cls-2" d="M42.61,20.7s0,.08,0,.12S42.63,20.73,42.61,20.7Z"/><path class="cls-2" d="M38.29,33.14l.26-.18C38.48,32.88,38.39,33,38.29,33.14Z"/><path class="cls-2" d="M25.13,40.1a.28.28,0,0,0-.13.11l.13-.06Z"/><path class="cls-2" d="M35.11,37l-.07.06,0,.16Z"/><path class="cls-2" d="M32,39.29c.09,0,0-.3-.06-.42a.29.29,0,0,1-.07.26A.83.83,0,0,0,32,39.29Z"/><path class="cls-2" d="M26.17,41.05l-.1.06Z"/><path class="cls-2" d="M37.13,35.11a.21.21,0,0,0,.1,0A.18.18,0,0,0,37.13,35.11Z"/><path class="cls-2" d="M17.61,39.52a.07.07,0,0,1,0,0S17.64,39.53,17.61,39.52Z"/><path class="cls-2" d="M21.63,41.36h-.07c0,.05,0,.11,0,.16Z"/><path class="cls-2" d="M42.57,17v0C42.61,17.14,42.6,17.09,42.57,17Z"/><path class="cls-2" d="M17.15.61c.41.15-.52.46.08.6C17.15,1.11,17.64.65,17.15.61Z"/><path class="cls-2" d="M25.23,40.12l.14,0Z"/><path class="cls-2" d="M17.23,1.21Z"/><path class="cls-2" d="M39.15,9.35a.24.24,0,0,0,0,.14A.21.21,0,0,0,39.15,9.35Z"/><path class="cls-2" d="M41.49,15.1V15A.35.35,0,0,0,41.49,15.1Z"/><path class="cls-2" d="M36.81,7.09c0-.07,0-.12-.14-.18V7A.15.15,0,0,1,36.81,7.09Z"/><path class="cls-2" d="M34.35,4.86s0,0,0,.08l.09,0Z"/><path class="cls-2" d="M9.47,35.64a.88.88,0,0,1-.06.28C9.51,35.74,9.88,36,9.47,35.64Z"/><path class="cls-2" d="M25.16,40.25c0-.07,0-.11.07-.13l-.1,0A.15.15,0,0,0,25.16,40.25Z"/><path class="cls-2" d="M35.11,8.52l-.29-.38A3,3,0,0,0,35.11,8.52Z"/><path class="cls-2" d="M3.52,16.08v.11A.11.11,0,0,0,3.52,16.08Z"/><path class="cls-2" d="M33.75,7.22a.54.54,0,0,0-.07-.32H33.6Z"/><path class="cls-2" d="M9.41,35.93h0Z"/><path class="cls-2" d="M12.36,37.17c-.37-.24-.36.2-.55.33-.53-.19-.08-.36-.13-.61-.34-.09-.75,0-.94-.12,0-.07,0-.11.08-.14-.46,0-.86-.62-1.43-.6a.25.25,0,0,1,0-.1,1.19,1.19,0,0,1-.28.43c-.16-.14-.44-.09-.34-.33.09.1.16,0,.26,0L8.81,36c.09-.39.31.12.47-.08-.38-.2-.95-.32-1.13-.62.19-.29.65.43.53-.08l.28.43c.08-.65.2.23.33-.43-.41-.51-.68-.34-1-.88-.23,0-.17.23-.4.25-.89-.47.14-1.11-.66-1.31-.28,0-.66.21-.77-.32l.4-.1c-.35-.53-.66,0-.85-.65.19,0,.4.32.38.22,0-.52-.36-.12-.56-.38L6,31.77c-.37-.55-1-1-1.4-1.69.11,0,.25.05.27-.15a5.07,5.07,0,0,1-.65-1.32A13.45,13.45,0,0,1,4,27.18l-.4-.24c0-.07.09-.18.16-.11,0-.37-.18,0-.33-.1s.1-.3.21-.2A3.1,3.1,0,0,1,2.9,24.2l.11.11c0-.52-.69-.49-.49-1l.07.08c0-1.12-.29-2.38.23-3.21-.42-.2.24-1.08-.3-1.21.38-.6.46-.41.79-1.25,0-.23-.29-.42-.28-.72l.3.06-.21-.47.41-.11v-.29c0,.1-.19.19-.27.15,0-.46.48-1,.65-.91l.1-1c.11.07.09.25.12.4-.11-.62.34,0,.24-.54-.09,0-.16-.11-.21-.14A2.22,2.22,0,0,0,4.77,13l.15.16c.34-.66.66-1.43,1.1-2.15a.26.26,0,0,1-.41-.29l.32.09c-.08-.25-.24.16-.27-.27.22-.24.43,0,.41.24l.14-.37c.09,0,.08.14.17.23-.07-.24.66-.33.51-.72L7,10c.48-.68.7-1,1.14-1.52-.2-.21,0-.36,0-.68a7.85,7.85,0,0,0,1.45-.93c.24-.38-.06-.26,0-.51.19.18.66-.21.52.13.58-.46.68-.65,1.39-1.29-.15,0-.27,0-.27-.12s.4-.11.44,0l0,0a2.29,2.29,0,0,1,1.56-.69,2.18,2.18,0,0,0,1.43-.6l0,0,.72-.55c.39-.1-.16.26.16.31a1.61,1.61,0,0,1,1.08-.51,2.34,2.34,0,0,0,1-.32,1.63,1.63,0,0,0,1.4.08,4.77,4.77,0,0,1,.8-.17,1.28,1.28,0,0,1,.71.13l-.05-.18c.19-.18.25.09.4.12,0-.13-.23-.15-.11-.25a7.14,7.14,0,0,1,2.68.11c.45.09.88.25,1.31.38l.65.18.62.24c.6.21.59-.8,1.28-.18l-.32.26A5.49,5.49,0,0,1,28.86,4a8.72,8.72,0,0,0,1.85.74c-.1,0-.15.11-.26,0,.12.34.85.53,1,.36.16.13-.05.18,0,.33s.76.08.74.38c0,0-.11,0-.16,0,.21,0,.64.52.67.19.31.4.83.45,1,.84.39-.07.52.67.87.4-.33.31.39.82.74.92-.17,0,.07.3-.15.34.24.25.52.43.65.23,0,.81,1.17.75.84,1.46l.6.51.5.56a8.91,8.91,0,0,1,.91,1.16c-.39.17-.55-.9-1-.62a4.84,4.84,0,0,1,1.47,1.82c0,.24-.24,0-.35-.07a3.7,3.7,0,0,1,.56,1.17,6.3,6.3,0,0,0,.51,1.12s-.1-.06-.16-.13c.06.15,0,.37.22.3l-.09-.13c.22-.34.76.44.92.43-.64-.11.06.82-.77.58.06.09.19.19.31.14,0,.16-.06.22-.25.1.25.52.39.29.48.8-.1,0-.16-.08-.28-.11a1.12,1.12,0,0,1,.45.9c-.07,0-.14,0-.16-.09.18.72.63,1.23.5,2.07-.44-.23-.12.29-.49.34a2.23,2.23,0,0,1,.1.43l.19-.17c0,.38.23.74.09,1.07l-.14-.3,0,.73.16-.4c.17.41.47,0,.34.51,0-.11,0,.4-.28.58h0a.77.77,0,0,1,0,.7c-.13.06-.4-.12-.49-.09.28.24,0,.92.23,1.22a.4.4,0,0,0-.3-.12l.21.21c-.12.16-.17.18-.31.11-.18.52.5-.06.14.53,0-.06-.05,0-.06-.16-.26.61-.15,1.28-.5,1.8-.41,0,.1-.52-.27-.43a10.19,10.19,0,0,0-.23,1.31,3.47,3.47,0,0,1-.43,1.22l.1-.12c.42.34-.49.45-.47.94,0-.11-.19-.26-.15-.21a7.32,7.32,0,0,0-.81,1.89l-.05-.17a9.44,9.44,0,0,0-.86.92c0,.17-.1.33.14.35a2.06,2.06,0,0,0-1.19,1.12,1.58,1.58,0,0,1-1.13,1c.09-.08.13-.27.06-.21L34.2,36c.2.13.17,0,.42,0a.79.79,0,0,1-.26.56c.19-.38-.23-.27-.45-.28.07,0,.07.14.13.18-.62,0,.23.41-.44.56L33.55,37c-.14.19-.22.44-.44.56-.24-.15.12-.24,0-.43-.27.21-.26.84-.68.77.08-.14.27-.25.34-.4a.91.91,0,0,0-.69.1h0l-.57.17h.17c0,.81-.67.6-1,1.23.32-.63,0-.26-.13-.55-.17,0-.41,0-.4-.1-.13.34-.48,0-.67.51-.06-.08-.27.12-.31-.13-.28.22.14.12.16.24-.37.55-1.33.07-1.9.78-.6.37-.64.71-1.23,1-.24-.1.09-.39.09-.39a1.36,1.36,0,0,0-.91.21c.05-.09,0-.15-.15-.24s-.11.37-.48.28a1.45,1.45,0,0,1,.2-.42c-.29.13-.56.36-.86.49-.11-.15.15-.28.25-.41-.34.13-.89.3-1,.56l.24.08c-.13,0-.09-.22,0-.28a.27.27,0,0,1,.48.12l-.22.09c.31.53.9-.23,1.35-.26l-.11.44.4-.42c.12.09.24.31,0,.41.37.14.25-.21.58-.06,0,0,0,.05,0,.08l.29-.21c0,.1.12.27-.09.27.65.08.85-.54,1.16-.3l-.05,0c.75-.38,0-.31.46-.85l.64.57,0-.32c.08,0,.25,0,.26.07.23-.3-.09-.1,0-.35.49.14,1-.53,1.26-.14,0-.28-.43,0-.1-.33.33.42.41-.3.85-.24,0,.29-.37.31.08.36,0-.49.71-.23.94-.49-.17-.32.52-.49.91-.87.05.15.93-.41,1.41-.61l0,.06c-.15-.36.32-.58.54-.9a.42.42,0,0,1,.05.5,3,3,0,0,0,.26-.24.64.64,0,0,1,.17-.45l.12.27c.34-.34.5-.86,1-1.17-.16-.2-.82-.15-.53-.73.12.08.31.22.24.39,0-.06,0-.23.16-.26v.34c.25-.13-.05-.24.11-.38.14.14.21,0,.31.1s-.19.09-.19.2a1.07,1.07,0,0,1,.66-.27.22.22,0,0,1-.1-.33c.31-.36.29,0,.55-.1,0-.17.27-.32.05-.52.08-.1.2,0,.3,0,0-.28.65-.94.24-.91l-.06,0,0,0h0c.26-.77,1-1.28,1.34-2l.09,0a4.22,4.22,0,0,0,.37-1.35c.06-.13.3-.22.38-.12a1.46,1.46,0,0,1,.35-.85c0,.4.18-.06,0,.4.24-.41.43-.46.35-1,.17.25.42-.23.43-.47l-.29.26a3.21,3.21,0,0,1,.24-.66l.28.22c.65-.85-.19-1.86.6-2.44-.19-.3-.24.49-.48.21.11-.43.66-.81.68-1,.27-.6-.38-.64-.19-1.25-.13.07-.45.11-.53-.36s.52-.51.6-.22c0,.1,0,.15-.07.15s.07.34.21.17l-.12-.07c.14-.21.16-.83.34-.68-.09-.34-.18-.15-.26.1a6.18,6.18,0,0,0,.15-1.49c-.06.09-.2.18-.2.09.1-.87-.24-.37-.32-.95.16-.34.43.09.25-.49.1-.37.31-.1.41,0a2.54,2.54,0,0,1,0-1.36l.14.28a1.44,1.44,0,0,1-.12-.45l-.21.2c0-.18,0-.32.09-.33-.18-.15-.37.19-.63-.11.08-.24-.22-.64.06-.78,0,.71.3-.14.45.44a.67.67,0,0,1-.06-.42s.07,0,.09.05c.12-.72-.42-.23-.59-.91.2.05.29-.24.22-.34.07.28-.25.2-.45,0,0-.47-.22-.44-.26-.67v.28c-.19,0-.23-.26-.39-.53.12-.06.18.24.2.11-.41-.21,0-.83-.32-1.21,0-.25.3-.14.31-.36-.39-.42,0-.64-.42-1.08-.15.25-.08.24-.46,0l.55.78-.57-.4c.11.25.4.46.41.64-.28-.19-.22-.18-.34,0,.16-.49-.52-.59-.49-1.08l.54-.25c0-.74-.81-.92-1.14-1.73l.06.29c-.26,0-.3-.44-.53-.62.18-.09.15-.28.19-.45-.12.1-.38-.52-.74-.35l0-.47c-.34-.63-.9-.3-1.3-.82.3,0,.2-.31.62-.07-.15-.17-.26-.35-.36-.26,0-.18-.62-.28-.62-.56-.12,0-.29.11-.45-.08,0,0,.07-.07.07-.07s-.37-.18-.36.12c-.09-.88-1.39-1.26-1.56-2-.43-.24-.93-.55-1.3-.78.06,0,.06-.08.12,0-.43-.47-.63.28-1.1-.25-.14-.45.4,0,.27-.17.25-.6-.74-.38-1-.91h.12c-.22-.35-.9-.16-1.4-.45a.11.11,0,0,0,0-.09,5.21,5.21,0,0,1-1.78-.13c.25-.18.28,0,.27-.32-.25-.05-.07.41-.56.31-.1-.18-.4-.43-.37-.69a3.5,3.5,0,0,1,.46.14c-.12-.44-.59-.19-.82-.3l.08-.14c-.73-.14-.83.24-1.57,0l0,.14c-.48.28-.3-.28-.77-.07L25.07.83a12.64,12.64,0,0,1-1.52.25,3.58,3.58,0,0,1,1.3-.44c-.28-.05-1-.12-1.11.06.11,0,.26-.1.37,0A2.2,2.2,0,0,1,22.74,1C22.87.27,21.32.75,20.9.22a4.19,4.19,0,0,1-1.5.14,9.39,9.39,0,0,0-1.64.12c.51.52-.33.07-.15.65-.25.08-.34.12-.38.08l-.86-.16c-.24-.12.21-.19.15-.32-.59.11-.3-.19-.73-.24.13.19-.12.35-.48.36l.55.15c-.71.51-.85-.28-1.54.3L14.5,1c-.37.25-1.52.55-1.68,1.21-.1,0-.26-.14-.11-.26a5.23,5.23,0,0,0-1.37.9,2.82,2.82,0,0,1-1.23.78l0-.17c-.13.15-.13.4-.4.43,0-.06,0-.17-.1-.13s-.26.52-.51.6l.07-.26A2.12,2.12,0,0,0,8.24,5a5.58,5.58,0,0,1-.59,1c-.29-.32-1,.08-1.31.33l0,0a5.29,5.29,0,0,0-.93,1.29C5.15,8,5,8.52,4.74,9a2.35,2.35,0,0,0-1.1,1.08c-.34.52-.71,1.08-1.05,1.52.15-.11.3.18.25.37s0,.76-.37.55l0-.08c-.44,0-.6.52-.73.91l.47.26a2.33,2.33,0,0,0-.83,1.67c-.09.64-.14,1.2-.55,1.41a6.13,6.13,0,0,0,.11.86l-.28-.06a6.46,6.46,0,0,0-.3,1.93l-.2-.2c0,.51.78.7.78,1.14l-.43.12a4.53,4.53,0,0,0,.07,2.58c-.06,0-.19,0-.21-.16,0,.41-.1,1.61.45,1.38-.37.06.09.89.34,1.31l-.29,0c.44.31.54.3.77.79,0,.14-.19.17-.16,0,0,.45.34.25.32.79L1.63,27c.1.43.16.37.45.54a.79.79,0,0,1,0,.94.48.48,0,0,1,.46.42c-.08.07-.16,0-.21,0,.06.77.74.86.69,1.43a.21.21,0,0,0-.11.15,5.94,5.94,0,0,1-.4-.93c-.24.1-.07.56-.56.35.35.28,1,.69,1.1,1.16a.2.2,0,0,1,0,.09l0,0a.45.45,0,0,0,.17.25,1.47,1.47,0,0,0,.13.37c-.15.15.19.53.31.74.23-.17.35.12.39-.25,0,0-.05,0-.14-.15S3.76,32,3.73,32h0l-.32-.49c.23.09.43.19.43.49l.55,0c-.17.48,0,1.13-.15,1.33.58.48,1.09,1.34,1.82,1.31.19.1,0,.27,0,.38-.12,0-.21-.16-.31-.16.38.21.86.86,1.19.68.23.48-.45,0,.09.49H6.94a2.29,2.29,0,0,0,1.47,1.13A2.3,2.3,0,0,1,10,38.34c-.06-.11-.09-.15-.07-.22,1.28,1.26,3.18,1.59,4.61,2.63.42.27.55.06.88,0v.33l.59-.2c.38,0,.63.22.92.45a1,1,0,0,0,1.13.28L18,41.38c.32.09,1,0,1,.26,0,0,.13-.19.25-.07v.16a6.07,6.07,0,0,0,.82-.19c.61.14-.15.62.78.7.35-.05,1-.42.85-.53s-.34-.11-.35-.27l.3-.07c.07-.46.27-.93-.42-1.29l-.5.26-.14-.23h.41c-.23-.22-.38,0-.55.08a.44.44,0,0,0-.19-.26l-.52.42c0-.19.25-.33-.06-.48-.24.18.18.44-.21.52-.21-.25-.12-.41-.41-.27,0-.12,0-.19.16-.23-.26.11-.65,0-.82.19-.19-.28-.83-.07-.71-.51a1.15,1.15,0,0,1-.71.19c.52-.41-.81-.24-.55-.75-.43.39-1.08-.16-1.67-.09,0,0,.12-.07.16,0-.27-.15-.3-.31-.45-.45-.18.34-.64.22-1,.32-.17-.5.4-.31.45-.7-.12.3-.71,0-.72.31C13,38,13,38.16,13,37.81c-.27.41-.28,0-.62.1-.23-.42.14-.45-.32-.56C11.94,37.12,12.36,37.17,12.36,37.17Zm-7.83-7h0l.11.19Zm-.4-.82.16.36c-.07.07-.17.08-.21,0S4.12,29.45,4.13,29.3ZM3.35,32c-.12-.12-.1-.19-.06-.24l.17.22h0A.39.39,0,0,1,3.35,32Z"/><path class="cls-2" d="M3.81,32.05s0,0,0,.05a.49.49,0,0,0,0-.12H3.76Z"/><path class="cls-2" d="M38.17,33.22h0Z"/><polygon class="cls-2" points="3.4 17.07 3.33 17.06 3.37 17.15 3.4 17.07"/><path class="cls-2" d="M33.91,36.36a.15.15,0,0,0-.1,0Z"/><path class="cls-2" d="M32.09,37.59l-.32.08A1.33,1.33,0,0,0,32.09,37.59Z"/><path class="cls-2" d="M30.57,38.32a.68.68,0,0,0,0,.12h0Z"/><path class="cls-2" d="M39.72,15.77a.14.14,0,0,0,0-.06C39.6,15.59,39.65,15.68,39.72,15.77Z"/><path class="cls-2" d="M41.06,23.55a1.43,1.43,0,0,1-.09-.27C40.93,23.42,40.9,23.52,41.06,23.55Z"/><polygon class="cls-2" points="35.14 8.56 35.14 8.56 35.11 8.52 35.14 8.56"/><path class="cls-2" d="M41,22.91a.53.53,0,0,0,0,.37A.78.78,0,0,0,41,22.91Z"/><path class="cls-2" d="M23.66,40.3h-.08v0Z"/><path class="cls-2" d="M23.58,40.34l-.09,0S23.57,40.38,23.58,40.34Z"/><path class="cls-2" d="M23.31,40.46l.18-.08C23.42,40.38,23.34,40.38,23.31,40.46Z"/><path class="cls-2" d="M25.86,40.06V40A.2.2,0,0,0,25.86,40.06Z"/><path class="cls-2" d="M26.5,39.86c-.16,0-.44-.11-.64,0V40C25.93,39.78,26.4,40.07,26.5,39.86Z"/><path class="cls-2" d="M29.66,40.13c-.2.06-.4.09-.6.14.14.06.33.15.08.27C30,40.58,28.9,40.37,29.66,40.13Z"/><path class="cls-2" d="M31.41,39.46c-.27.19.08.14.09.2C31.64,39.48,31.67,39.43,31.41,39.46Z"/><path class="cls-2" d="M40.46,29.7l.22.13C40.76,29.59,40.59,29.79,40.46,29.7Z"/><path class="cls-2" d="M40.11,26.89a1.73,1.73,0,0,1-.21.17l.18.18A2.07,2.07,0,0,0,40.11,26.89Z"/><polygon class="cls-2" points="42.25 25.9 42.26 26.02 42.27 25.58 42.25 25.9"/><path class="cls-2" d="M35,5l-.15.29C35,5.38,35.26,5.13,35,5Z"/><path class="cls-2" d="M26,1a.37.37,0,0,0-.53-.2C25.66.87,25.85,1,26,1Z"/><polygon class="cls-2" points="1.71 13.94 1.68 13.71 1.63 14.1 1.71 13.94"/><g class="cls-3"><rect class="cls-2" x="20.49" y="20.61" width="16.78" height="3.95" transform="translate(-5.98 11.24) rotate(-20)"/><path class="cls-2" d="M51.91,54.49a1.84,1.84,0,0,1-1.1,2.36L34.57,62.76a1.84,1.84,0,0,1-2.36-1.1l-11.1-30.5L40.81,24Z"/><path class="cls-2" d="M21.29,12.25,28,9.81a1.85,1.85,0,0,1,2.37,1.11l1.72,4.73-10.17,3.7-1.72-4.73A1.85,1.85,0,0,1,21.29,12.25Z"/><rect class="cls-2" x="19.21" y="15.55" width="1.79" height="3.11" transform="translate(-4.64 7.91) rotate(-20)"/><rect class="cls-2" x="11.56" y="18.79" width="3.64" height="1.39" transform="translate(-5.86 5.75) rotate(-20)"/><rect class="cls-2" x="8.75" y="15.72" width="5.96" height="1.41" transform="translate(-3.11 2.74) rotate(-11.78)"/><rect class="cls-2" x="11.16" y="22.35" width="5.96" height="1.37" transform="translate(-9.21 9.42) rotate(-28.22)"/></g><rect class="cls-1" x="2.47" y="2.13" width="38.31" height="38.31" rx="19.15" ry="19.15" transform="translate(49.23 33.89) rotate(160)"/></svg>