<svg id="Livello_1" data-name="Livello 1" xmlns="http://www.w3.org/2000/svg" xmlns:xlink="http://www.w3.org/1999/xlink" viewBox="0 0 42.94 42.91"><defs><style>.cls-1{fill:none;stroke:#fff;stroke-miterlimit:10;stroke-width:0.99px;}.cls-2{clip-path:url(#clip-path);}.cls-3{fill:#fff;}.cls-4{clip-path:url(#clip-path-2);}</style><clipPath id="clip-path"><rect class="cls-1" x="2.47" y="-44.87" width="38.31" height="38.31" rx="19.15" ry="19.15" transform="translate(33.15 -57.27) rotate(160)"/></clipPath><clipPath id="clip-path-2"><rect class="cls-1" x="2.36" y="2.35" width="38.21" height="38.21" rx="19.11" ry="19.11" transform="translate(48.98 34.27) rotate(160)"/></clipPath></defs><title>Tavola disegno 13 copia</title><g class="cls-2"><path class="cls-3" d="M51.91,7.49a1.84,1.84,0,0,1-1.1,2.36L34.57,15.76a1.84,1.84,0,0,1-2.36-1.1l-11.1-30.5L40.81-23Z"/></g><rect class="cls-1" x="2.47" y="-44.87" width="38.31" height="38.31" rx="19.15" ry="19.15" transform="translate(33.15 -57.27) rotate(160)"/><path class="cls-3" d="M40.8,21.46c.09.06.29,0,.24-.15l-.34-.13Z"/><path class="cls-3" d="M41.35,20.23a.63.63,0,0,0-.76-.26c.33.18.2.24.59.44,0,.18-.09.32-.21.29.09.07-.06.28.15.37a.58.58,0,0,0,0-.84C41.2,20.16,41.29,20.22,41.35,20.23Z"/><path class="cls-3" d="M33.32,4.8l.07.1A.17.17,0,0,0,33.32,4.8Z"/><path class="cls-3" d="M22.84.88c.08,0,.12,0,.13-.07S22.82.85,22.84.88Z"/><path class="cls-3" d="M20.88.47l.12,0A.11.11,0,0,0,20.88.47Z"/><path class="cls-3" d="M33.32,4.8l-.18-.27C33.06,4.61,33.22,4.69,33.32,4.8Z"/><path class="cls-3" d="M40.28,18a.49.49,0,0,0,.11.14L40.33,18Z"/><path class="cls-3" d="M37.19,8l.07.07.15,0Z"/><path class="cls-3" d="M39.47,11.1c0-.09-.29,0-.42.06a.31.31,0,0,1,.27.07Z"/><path class="cls-3" d="M41.23,16.91l.06.1A.53.53,0,0,0,41.23,16.91Z"/><path class="cls-3" d="M35.29,6a.21.21,0,0,0,0-.1A.3.3,0,0,0,35.29,6Z"/><path class="cls-3" d="M39.71,25.47h0S39.71,25.44,39.71,25.47Z"/><path class="cls-3" d="M41.54,21.46v.06h.16Z"/><path class="cls-3" d="M17.22.51h0C17.32.47,17.27.48,17.22.51Z"/><path class="cls-3" d="M.79,25.93c.15-.41.47.52.6-.08C1.3,25.93.83,25.44.79,25.93Z"/><path class="cls-3" d="M40.3,17.85a.68.68,0,0,1,0-.14A.46.46,0,0,0,40.3,17.85Z"/><path class="cls-3" d="M1.39,25.85h0v0Z"/><path class="cls-3" d="M9.54,3.93a.24.24,0,0,0,.13,0S9.62,3.94,9.54,3.93Z"/><path class="cls-3" d="M15.29,1.59l-.16,0Z"/><path class="cls-3" d="M7.28,6.27c-.08,0-.13,0-.18.14h.05C7.15,6.35,7.18,6.3,7.28,6.27Z"/><path class="cls-3" d="M5,8.73l.08,0,0-.09Z"/><path class="cls-3" d="M35.82,33.61a.94.94,0,0,1,.29.06C35.92,33.57,36.16,33.2,35.82,33.61Z"/><path class="cls-3" d="M40.44,17.92a.19.19,0,0,1-.14-.07l0,.1A.16.16,0,0,0,40.44,17.92Z"/><path class="cls-3" d="M8.7,8l-.38.29A1.92,1.92,0,0,0,8.7,8Z"/><path class="cls-3" d="M16.26,39.57h.12A.11.11,0,0,0,16.26,39.57Z"/><path class="cls-3" d="M7.41,9.33a.56.56,0,0,0-.33.07.12.12,0,0,0,0,.08Z"/><path class="cls-3" d="M36.11,33.67Z"/><path class="cls-3" d="M37.35,30.72c-.24.37.2.36.34.55-.2.53-.37.08-.62.13-.08.34,0,.75-.12.94-.06,0-.11,0-.14-.08,0,.46-.62.86-.59,1.43l-.11,0a1.11,1.11,0,0,1,.43.28c-.13.16-.09.44-.32.34.09-.09,0-.16,0-.26l-.07.24c-.4-.08.11-.3-.09-.47-.19.38-.32,1-.62,1.13-.29-.19.44-.65-.08-.53l.44-.28c-.66-.08.23-.2-.44-.32-.51.4-.34.67-.88,1,0,.23.23.17.25.4-.47.89-1.11-.14-1.31.66,0,.28.22.66-.32.77l-.1-.4c-.53.35,0,.66-.65.85,0-.19.33-.4.22-.38-.52,0-.11.36-.38.56L32,37.06c-.55.37-1,1-1.69,1.4,0-.1.06-.25-.15-.27a4.86,4.86,0,0,1-1.31.65,13.62,13.62,0,0,1-1.44.25l-.23.4c-.08,0-.19-.09-.12-.16-.37,0,0,.18-.09.33s-.31-.1-.21-.21a3.09,3.09,0,0,1-2.33.73l.12-.11c-.52,0-.5.69-1,.49l.09-.06c-1.13,0-2.39.29-3.22-.24-.19.42-1.08-.24-1.21.3-.6-.38-.41-.46-1.25-.79-.23-.05-.42.29-.72.28l.06-.3-.46.21-.12-.41h-.28a.26.26,0,0,1,.15.27c-.47,0-1-.48-.92-.65l-1-.1c.06-.11.24-.09.39-.12-.62.11,0-.34-.54-.24,0,.09-.1.16-.14.21a2.22,2.22,0,0,0-1.07-.62l.16-.15c-.66-.34-1.43-.66-2.15-1.1a.26.26,0,0,1-.29.41l.09-.32c-.25.08.16.24-.26.27-.25-.22,0-.43.24-.41l-.38-.14c0-.09.14-.08.23-.17-.24.07-.33-.66-.72-.51l0-.09c-.68-.48-1-.7-1.52-1.14-.2.2-.36,0-.68,0A7.85,7.85,0,0,0,7,33.5c-.38-.24-.26.06-.51,0,.18-.19-.21-.66.13-.52-.45-.58-.65-.68-1.29-1.39,0,.15,0,.27-.12.27s-.11-.4,0-.44l0,0a2.38,2.38,0,0,1-.69-1.57A2.17,2.17,0,0,0,4,28.47l0,0-.56-.72c-.1-.39.26.16.31-.16a1.66,1.66,0,0,1-.51-1.07,2.1,2.1,0,0,0-.32-1,1.63,1.63,0,0,0,.08-1.4c-.06-.27-.14-.54-.17-.8A1.37,1.37,0,0,1,3,22.62l-.18.06c-.18-.2.09-.26.13-.41-.14,0-.15.23-.26.11a7.35,7.35,0,0,1,.11-2.68c.1-.44.26-.88.38-1.31l.19-.65.23-.62c.21-.6-.79-.59-.18-1.28l.26.32a5.49,5.49,0,0,1,.49-1.94,8.72,8.72,0,0,0,.74-1.85c0,.1.11.15.06.27.33-.13.52-.86.35-1,.13-.16.18.05.33,0s.09-.76.38-.74c0,0,0,.11,0,.16,0-.21.51-.64.19-.67.4-.31.45-.83.83-1-.06-.39.67-.52.4-.87.31.33.82-.39.92-.73,0,.16.3-.08.34.14.25-.24.43-.52.23-.65.81,0,.75-1.17,1.46-.84.17-.2.35-.4.51-.6l.57-.5a7.46,7.46,0,0,1,1.15-.9c.17.38-.9.54-.62.94a4.68,4.68,0,0,1,1.83-1.46c.23-.05,0,.23-.08.34A3.7,3.7,0,0,1,15,3.71a6.3,6.3,0,0,0,1.12-.51s-.06.1-.13.16c.15-.06.37,0,.3-.22l-.13.09c-.34-.22.44-.76.44-.92-.12.64.82-.06.57.77.09-.06.19-.19.14-.31.16,0,.22.06.11.25.52-.25.29-.39.79-.48,0,.1-.08.16-.11.28a1.13,1.13,0,0,1,.9-.45c0,.07,0,.14-.09.16C19.6,2.35,20.1,1.9,21,2c-.23.44.28.12.33.5a1.67,1.67,0,0,1,.44-.11l-.18-.19c.39,0,.74-.23,1.07-.09l-.29.14.73,0-.41-.16c.41-.17,0-.47.51-.34-.11,0,.4,0,.58.28h0a.77.77,0,0,1,.7-.05c.06.13-.12.4-.08.49.23-.27.91,0,1.22-.23a.34.34,0,0,0-.12.3l.2-.21c.16.12.18.17.12.31.51.19-.06-.5.52-.14-.05,0,0,0-.15.06.6.26,1.27.15,1.79.5,0,.41-.52-.1-.43.27a10.51,10.51,0,0,0,1.31.23A3.53,3.53,0,0,1,30,4l-.12-.1c.33-.42.45.49.93.47-.11,0-.26.19-.21.15a7.32,7.32,0,0,0,1.89.81l-.16.05a7.54,7.54,0,0,0,.92.86c.17,0,.32.1.34-.14a2.06,2.06,0,0,0,1.12,1.19,1.61,1.61,0,0,1,1,1.13c-.08-.09-.28-.13-.22-.06l.66.54c.13-.2,0-.17,0-.42a.83.83,0,0,1,.57.26c-.39-.19-.28.23-.28.45,0-.07.13-.07.18-.13-.06.62.4-.23.56.44l-.12,0c.19.14.45.22.57.44-.16.24-.25-.12-.44,0,.22.27.84.26.77.68-.14-.08-.25-.26-.4-.34a.9.9,0,0,0,.11.69v0l.18.56v-.17c.81,0,.6.67,1.24,1-.63-.31-.26,0-.55.13,0,.17,0,.42-.11.4.34.13,0,.48.51.67-.08.06.12.27-.13.31.22.28.12-.14.24-.16.55.37.08,1.33.79,1.9.36.6.7.64,1,1.23-.09.24-.39-.09-.39-.09a1.31,1.31,0,0,0,.22.91c-.1,0-.16,0-.25.15s.38.11.29.48a1.77,1.77,0,0,1-.43-.19c.13.28.36.55.5.85-.16.11-.29-.15-.42-.25.13.34.3.89.56,1l.08-.24c0,.13-.22.09-.28,0A.27.27,0,0,1,41,19l.1.22c.53-.31-.24-.9-.27-1.35l.44.11-.41-.4c.08-.12.3-.24.4,0,.14-.38-.21-.26-.06-.59,0,0,.05,0,.08,0l-.2-.29c.1,0,.27-.12.26.09.08-.65-.54-.85-.29-1.16l0,0c-.37-.75-.31,0-.85-.46l.57-.64-.31,0c0-.08-.06-.25.07-.26-.31-.23-.11.09-.36,0,.14-.49-.53-1-.14-1.26-.27,0,0,.43-.33.1.42-.33-.3-.41-.24-.85.29,0,.32.37.37-.08-.5,0-.23-.71-.49-.94-.33.17-.49-.52-.87-.91.14-.05-.41-.93-.61-1.41l0,0c-.35.15-.58-.32-.9-.54a.42.42,0,0,1,.5,0A2.85,2.85,0,0,0,37.26,8a.64.64,0,0,1-.46-.17l.27-.12c-.34-.34-.86-.5-1.17-1-.2.16-.15.82-.73.53.08-.12.23-.31.39-.24-.05,0-.22,0-.26-.16h.35c-.14-.25-.24,0-.39-.11.14-.14,0-.21.11-.31s.08.19.2.19A1.08,1.08,0,0,1,35.29,6a.22.22,0,0,1-.33.1c-.35-.31,0-.29-.1-.55-.17,0-.32-.27-.51,0-.11-.08-.05-.2,0-.3-.28,0-.94-.65-.9-.24l0,.06h0c-.78-.26-1.29-1-2-1.35l.05-.09a4.28,4.28,0,0,0-1.36-.37c-.12-.06-.22-.3-.12-.38a1.46,1.46,0,0,1-.85-.35c.41,0-.06-.18.4,0-.41-.24-.46-.42-1-.35.25-.17-.23-.42-.46-.42l.25.28a2.92,2.92,0,0,1-.65-.24l.21-.28C27,.77,26,1.61,25.39.82c-.3.19.49.24.21.48-.42-.11-.81-.66-1-.68C24.06.35,24,1,23.4.81c.07.13.11.45-.36.53s-.51-.52-.22-.6c.11,0,.16,0,.15.07.14,0,.34-.07.17-.21l-.07.12c-.21-.14-.83-.16-.67-.34-.35.09-.16.18.09.26A6.18,6.18,0,0,0,21,.49c.1.06.19.2.09.2-.87-.1-.37.24-.95.32-.34-.16.09-.43-.48-.25-.37-.1-.11-.31,0-.41-.52.23-1,0-1.35,0l.27-.14a1.37,1.37,0,0,1-.45.12l.2.21c-.17,0-.32,0-.33-.09-.15.18.19.37-.11.63-.24-.08-.64.22-.77-.06.71,0-.15-.3.44-.45a.8.8,0,0,1-.43.07s0-.08.06-.1c-.73-.11-.24.42-.91.59,0-.2-.25-.29-.35-.22.28-.07.21.25,0,.45-.47,0-.44.22-.66.26h.27c0,.19-.26.23-.52.39-.07-.12.23-.18.11-.2-.22.41-.83,0-1.21.32-.26,0-.15-.3-.36-.31-.43.39-.64,0-1.09.42.25.15.25.08,0,.46l.77-.55-.4.57c.25-.11.47-.4.64-.41-.19.28-.17.22,0,.35-.49-.17-.59.51-1.08.48l-.25-.54c-.74,0-.92.81-1.73,1.14l.3-.06c0,.26-.44.3-.63.53C10,4,9.84,4,9.67,4c.1.12-.52.38-.35.74l-.46,0c-.63.34-.3.9-.83,1.3,0-.3-.31-.2-.07-.62-.17.15-.34.26-.26.36-.18,0-.28.62-.55.62,0,.12.11.29-.09.45,0,0-.07-.07-.07-.07s-.18.37.13.36c-.89.09-1.27,1.39-2,1.56-.24.43-.54.93-.78,1.3,0-.06-.08,0,0-.11-.47.42.28.62-.24,1.09-.46.14,0-.4-.18-.27-.6-.25-.38.74-.91,1l0-.12c-.36.22-.17.9-.46,1.4a.11.11,0,0,0-.09,0,5.21,5.21,0,0,1-.13,1.78c-.18-.25,0-.28-.32-.27,0,.25.42.07.32.56-.19.1-.44.4-.7.37a4,4,0,0,1,.14-.46c-.43.12-.18.59-.3.82l-.14-.08c-.14.73.24.83,0,1.57l.14-.05c.29.48-.28.3-.06.77L1,18a15.36,15.36,0,0,1,.24,1.52,3.58,3.58,0,0,1-.44-1.3c0,.28-.11.95.06,1.11,0-.11-.1-.26,0-.37a2.2,2.2,0,0,1,.35,1.37C.45,20.21.93,21.76.4,22.18a4,4,0,0,1,.14,1.5,10.48,10.48,0,0,0,.12,1.64c.52-.51.07.33.66.15.08.25.11.34.07.38l-.15.86c-.13.24-.2-.21-.32-.15.1.59-.19.3-.25.74.19-.14.35.11.36.47l.15-.55c.51.71-.28.85.31,1.55l-.28-.19c.25.37.55,1.53,1.21,1.68,0,.1-.14.26-.26.11a5,5,0,0,0,.91,1.37A2.88,2.88,0,0,1,3.84,33l-.16,0c.14.14.39.13.42.4-.06,0-.17,0-.12.1s.51.26.6.51l-.27-.07a2.12,2.12,0,0,0,.86.91,5.28,5.28,0,0,1,1,.59c-.32.29.09,1,.34,1.31l-.06,0a5.15,5.15,0,0,0,1.3.93c.44.24.93.38,1.4.64a2.35,2.35,0,0,0,1.08,1.1c.52.34,1.08.71,1.52,1.05-.11-.15.18-.3.38-.25s.75,0,.54.37l-.07,0c0,.44.52.6.9.73l.26-.47a2.35,2.35,0,0,0,1.67.83c.64.09,1.21.14,1.41.55a6.47,6.47,0,0,0,.87-.11l-.07.28a6.85,6.85,0,0,0,1.94.31l-.2.19c.5,0,.69-.78,1.13-.78l.12.43a4.53,4.53,0,0,0,2.58-.07c0,.07,0,.19-.16.21.41,0,1.61.1,1.38-.45.07.37.9-.09,1.31-.34v.29c.3-.44.29-.54.79-.77.13,0,.16.19,0,.16.45,0,.25-.34.79-.32l-.14.22c.43-.1.38-.16.54-.45a.79.79,0,0,1,.94,0,.51.51,0,0,1,.42-.46c.07.08,0,.16,0,.21.78-.06.86-.74,1.44-.69a.21.21,0,0,0,.15.11,7.07,7.07,0,0,1-.93.4c.1.24.55.07.35.56.28-.35.68-1,1.15-1.1a.31.31,0,0,1,.1,0l0,.05a.46.46,0,0,0,.24-.17,1.47,1.47,0,0,0,.37-.13c.15.15.53-.19.74-.31-.16-.23.12-.35-.25-.39,0,0,0,0-.15.14l-.07.08v0l-.5.32c.09-.22.2-.43.5-.43,0-.21,0-.44,0-.55.48.17,1.12,0,1.32.15.48-.58,1.34-1.09,1.31-1.82.1-.19.27,0,.38,0,0,.12-.16.21-.16.31.22-.38.87-.86.68-1.19.49-.23,0,.45.49-.09l0,.15a2.27,2.27,0,0,0,1.12-1.47,2.3,2.3,0,0,1,1.15-1.57c-.1.06-.15.09-.22.07,1.27-1.28,1.59-3.18,2.63-4.61.27-.42.07-.55,0-.88h.32c-.06-.2-.13-.4-.2-.59,0-.38.22-.63.46-.92A1.07,1.07,0,0,0,41.78,25l-.22.08c.09-.31,0-1,.26-.95,0,0-.19-.13-.07-.25h.16a6.07,6.07,0,0,0-.19-.82c.15-.61.62.15.7-.78,0-.35-.41-1-.52-.85s-.12.34-.28.35l-.07-.3c-.46-.07-.92-.27-1.29.42l.26.5-.23.14v-.41c-.23.23,0,.38.07.55a.44.44,0,0,0-.26.19l.42.52c-.19,0-.33-.25-.47.06.17.24.44-.17.51.21-.24.21-.4.12-.27.42a.19.19,0,0,1-.22-.16c.1.25,0,.64.19.81-.29.19-.08.83-.52.71a1.22,1.22,0,0,1,.2.71c-.41-.52-.24.81-.76.55.4.43-.16,1.08-.09,1.68,0-.05-.07-.13,0-.17-.14.27-.3.3-.45.45.34.18.22.64.33,1-.51.17-.32-.4-.7-.45.29.12,0,.71.3.72-.33.15-.21.17-.56.15.41.27,0,.28.1.62-.42.23-.45-.14-.55.32C37.3,31.14,37.35,30.72,37.35,30.72Zm-7,7.83h0l.2-.11Zm-.82.4.36-.16c.07.07.09.17,0,.21S29.64,39,29.48,39Zm2.7.78c-.12.12-.19.1-.24.06a1.46,1.46,0,0,0,.22-.17v0A.27.27,0,0,1,32.18,39.73Z"/><path class="cls-3" d="M32.23,39.27l.05-.05h-.11v.11Z"/><path class="cls-3" d="M33.41,4.91h0a.11.11,0,0,1,0,.06S33.41,4.93,33.41,4.91Z"/><polygon class="cls-3" points="17.26 39.68 17.24 39.75 17.33 39.71 17.26 39.68"/><path class="cls-3" d="M36.55,9.17a.11.11,0,0,0,0,.1A.19.19,0,0,0,36.55,9.17Z"/><path class="cls-3" d="M37.78,11l.07.32A2.34,2.34,0,0,0,37.78,11Z"/><path class="cls-3" d="M38.51,12.51l.12,0h0Z"/><path class="cls-3" d="M16,3.36l0,0C15.77,3.48,15.86,3.43,16,3.36Z"/><path class="cls-3" d="M23.73,2a1.43,1.43,0,0,1-.27.09C23.6,2.15,23.71,2.18,23.73,2Z"/><polygon class="cls-3" points="8.74 7.94 8.74 7.94 8.7 7.97 8.74 7.94"/><path class="cls-3" d="M23.09,2.09a.53.53,0,0,0,.37,0A.77.77,0,0,0,23.09,2.09Z"/><path class="cls-3" d="M40.48,19.42v.08h.05Z"/><path class="cls-3" d="M40.53,19.5l0,.09S40.56,19.51,40.53,19.5Z"/><path class="cls-3" d="M40.64,19.77l-.08-.18C40.57,19.66,40.56,19.74,40.64,19.77Z"/><path class="cls-3" d="M40.24,17.22h-.11A.2.2,0,0,0,40.24,17.22Z"/><path class="cls-3" d="M40,16.58c0,.16-.11.44,0,.64h.08C40,17.15,40.25,16.68,40,16.58Z"/><path class="cls-3" d="M40.31,13.42c.06.2.1.4.14.6.07-.14.15-.33.27-.08C40.76,13.1,40.56,14.18,40.31,13.42Z"/><path class="cls-3" d="M39.65,11.67c.18.27.13-.08.19-.09C39.66,11.44,39.61,11.42,39.65,11.67Z"/><path class="cls-3" d="M29.88,2.62,30,2.4C29.77,2.32,30,2.49,29.88,2.62Z"/><path class="cls-3" d="M27.08,3l.17.21L27.42,3A2,2,0,0,0,27.08,3Z"/><polygon class="cls-3" points="26.09 0.83 26.2 0.83 25.77 0.81 26.09 0.83"/><path class="cls-3" d="M5.2,8.09l.29.15C5.57,8.07,5.32,7.82,5.2,8.09Z"/><path class="cls-3" d="M1.2,17.11a.37.37,0,0,0-.2.53C1.05,17.42,1.21,17.23,1.2,17.11Z"/><polygon class="cls-3" points="14.12 41.37 13.89 41.4 14.29 41.45 14.12 41.37"/><path class="cls-3" d="M21.47,40.79c-.07.09,0,.28.15.23l.12-.33Z"/><path class="cls-3" d="M22.69,41.34a.62.62,0,0,0,.26-.76c-.18.33-.24.2-.44.59a.21.21,0,0,1-.29-.22c-.06.09-.28-.05-.37.16a.59.59,0,0,0,.84,0C22.76,41.19,22.7,41.28,22.69,41.34Z"/><path class="cls-3" d="M38.13,33.31l-.1.07A.3.3,0,0,0,38.13,33.31Z"/><path class="cls-3" d="M42.05,22.82c0,.09,0,.13.06.14S42.08,22.81,42.05,22.82Z"/><path class="cls-3" d="M42.45,20.87s0,.08,0,.12S42.48,20.9,42.45,20.87Z"/><path class="cls-3" d="M38.13,33.31l.27-.18C38.32,33.05,38.24,33.21,38.13,33.31Z"/><path class="cls-3" d="M25,40.27a.3.3,0,0,0-.14.11l.14-.06Z"/><path class="cls-3" d="M35,37.18l-.07.06a.5.5,0,0,0,0,.16Z"/><path class="cls-3" d="M31.83,39.46c.08,0,0-.3-.07-.42a.27.27,0,0,1-.07.26A.64.64,0,0,0,31.83,39.46Z"/><path class="cls-3" d="M26,41.21l-.09.07Z"/><path class="cls-3" d="M37,35.28a.26.26,0,0,0,.1,0A.15.15,0,0,0,37,35.28Z"/><path class="cls-3" d="M17.46,39.69a.09.09,0,0,0,0,.05S17.48,39.7,17.46,39.69Z"/><path class="cls-3" d="M21.47,41.53h-.06a.86.86,0,0,0,0,.16Z"/><path class="cls-3" d="M42.41,17.2v0C42.46,17.31,42.44,17.26,42.41,17.2Z"/><path class="cls-3" d="M17,.78c.42.15-.52.46.09.6C17,1.28,17.48.82,17,.78Z"/><path class="cls-3" d="M25.07,40.29l.15,0Z"/><path class="cls-3" d="M17.08,1.38Z"/><path class="cls-3" d="M39,9.52a.34.34,0,0,0-.05.14A.21.21,0,0,0,39,9.52Z"/><path class="cls-3" d="M41.34,15.27l0-.15A.34.34,0,0,0,41.34,15.27Z"/><path class="cls-3" d="M36.65,7.26c0-.07,0-.12-.13-.18v0S36.62,7.16,36.65,7.26Z"/><path class="cls-3" d="M34.2,5s0,0,0,.08l.1,0Z"/><path class="cls-3" d="M9.31,35.8a.68.68,0,0,1-.06.29C9.35,35.91,9.72,36.15,9.31,35.8Z"/><path class="cls-3" d="M25,40.42c0-.07,0-.11.06-.13l-.09,0A.09.09,0,0,0,25,40.42Z"/><path class="cls-3" d="M35,8.69l-.29-.38A3,3,0,0,0,35,8.69Z"/><path class="cls-3" d="M3.36,16.25v.11A.11.11,0,0,0,3.36,16.25Z"/><path class="cls-3" d="M33.6,7.39a.84.84,0,0,0-.07-.33l-.09,0Z"/><path class="cls-3" d="M9.25,36.1h0Z"/><path class="cls-3" d="M12.21,37.34c-.38-.24-.37.2-.56.33-.52-.19-.07-.36-.13-.61-.34-.09-.75,0-.94-.12,0-.07,0-.11.08-.14-.45,0-.86-.62-1.42-.6a.16.16,0,0,1,0-.1,1.18,1.18,0,0,1-.27.43c-.16-.14-.45-.09-.35-.33.09.1.17,0,.26,0l-.23-.07c.08-.39.3.12.47-.08-.39-.2-1-.32-1.14-.62.19-.29.65.43.53-.08l.29.43c.07-.65.2.23.32-.43-.4-.51-.67-.34-1.05-.88-.23,0-.16.23-.4.25-.89-.47.14-1.11-.65-1.31-.29,0-.66.21-.78-.32l.4-.1c-.34-.53-.66,0-.85-.65.2,0,.41.32.39.22,0-.52-.36-.12-.57-.39l.25-.24c-.38-.55-1-1-1.41-1.69.11,0,.26.05.28-.15a5.1,5.1,0,0,1-.66-1.32c-.11-.49-.19-1-.25-1.44l-.39-.23c0-.07.08-.18.16-.11,0-.37-.18,0-.34-.1s.1-.3.22-.2a3.08,3.08,0,0,1-.74-2.33l.11.11c0-.52-.68-.49-.49-1l.07.08c0-1.12-.29-2.38.24-3.21-.42-.2.24-1.08-.31-1.21.39-.6.47-.41.79-1.25.06-.23-.29-.42-.28-.72l.31.06L3,16.76l.41-.11v-.29c0,.1-.19.19-.27.15,0-.47.48-1,.65-.91l.11-1c.11.07.09.25.12.4-.11-.62.33,0,.23-.54-.09,0-.16-.11-.21-.14a2.06,2.06,0,0,0,.62-1.08l.16.17c.34-.66.66-1.43,1.09-2.15a.26.26,0,0,1-.41-.29l.33.09c-.09-.25-.24.16-.27-.27.22-.24.43,0,.41.24l.13-.37c.1,0,.09.14.17.23-.07-.25.66-.33.51-.72l.09,0c.48-.68.71-1,1.14-1.52C7.77,8.43,8,8.28,8,8A7.53,7.53,0,0,0,9.42,7c.24-.38-.06-.26,0-.51.19.18.67-.21.53.13.57-.46.68-.65,1.38-1.29-.14,0-.27,0-.26-.12s.39-.12.43,0l0,0A2.29,2.29,0,0,1,13,4.6,2.17,2.17,0,0,0,14.46,4l0,0,.71-.55c.39-.1-.16.26.17.31a1.59,1.59,0,0,1,1.07-.51,2.3,2.3,0,0,0,1-.32,1.66,1.66,0,0,0,1.41.08,4.46,4.46,0,0,1,.79-.17,1.31,1.31,0,0,1,.72.13l-.06-.18c.19-.18.25.09.4.12,0-.13-.23-.15-.1-.25a7.09,7.09,0,0,1,2.67.11c.45.09.88.25,1.32.38l.64.18.62.24c.61.21.6-.8,1.29-.18l-.33.26a5.59,5.59,0,0,1,1.94.48,8.65,8.65,0,0,0,1.85.75c-.1,0-.15.11-.26,0,.13.34.85.53,1,.36.16.13-.05.18,0,.33S32,5.74,32,6c0,0-.1,0-.15,0,.2,0,.64.52.67.19.3.4.83.45,1,.83.39-.06.51.68.87.41-.34.31.39.82.73.92-.17,0,.08.3-.14.34.23.25.51.43.65.23,0,.8,1.16.75.84,1.46l.59.51.51.56a8.82,8.82,0,0,1,.9,1.16c-.39.16-.55-.9-.94-.62A4.91,4.91,0,0,1,39,13.85c0,.24-.24,0-.34-.07A3.67,3.67,0,0,1,39.21,15a6.34,6.34,0,0,0,.52,1.12s-.11-.06-.16-.13c0,.15,0,.37.22.3l-.1-.14c.23-.33.76.45.92.44-.64-.11.06.82-.77.58a.29.29,0,0,0,.32.14c0,.16-.07.22-.26.1.25.52.39.29.48.8-.1,0-.15-.08-.27-.11a1.11,1.11,0,0,1,.44.9c-.06,0-.13,0-.15-.09.17.72.63,1.23.5,2.07-.45-.23-.13.29-.5.34a3.39,3.39,0,0,1,.11.43l.19-.17c0,.38.23.74.09,1.07l-.14-.3,0,.73.16-.4c.18.41.48,0,.35.51,0-.11,0,.4-.28.58h0a.77.77,0,0,1,0,.7c-.13.06-.4-.12-.48-.09.27.24,0,.92.22,1.22a.36.36,0,0,0-.29-.12l.2.21c-.12.16-.16.18-.31.11-.18.52.5-.06.14.53,0-.06,0,0-.06-.16-.26.61-.14,1.28-.49,1.8-.42,0,.09-.52-.28-.43a10.22,10.22,0,0,0-.22,1.31A3.56,3.56,0,0,1,38.94,30l.11-.12c.42.34-.5.45-.48.94,0-.11-.19-.26-.15-.21a7.69,7.69,0,0,0-.81,1.89l0-.17a8.27,8.27,0,0,0-.85.92c0,.17-.1.33.13.35a2.06,2.06,0,0,0-1.19,1.12,1.56,1.56,0,0,1-1.13,1c.09-.08.13-.27.06-.21L34,36.2c.2.13.17,0,.43,0a.8.8,0,0,1-.27.56c.19-.38-.23-.27-.45-.28.07,0,.07.14.13.18-.61-.05.23.41-.44.56l0-.11c-.15.18-.23.44-.45.56-.23-.15.13-.24,0-.43-.26.21-.25.84-.68.77.09-.14.27-.25.34-.4a.91.91,0,0,0-.69.1h0l-.57.17h.17c0,.81-.66.6-1,1.23.32-.63,0-.26-.13-.55-.17,0-.41,0-.39-.1-.14.34-.49,0-.68.51-.06-.08-.26.12-.31-.13-.28.22.14.12.17.24-.37.55-1.33.07-1.91.78-.59.37-.63.71-1.22,1-.25-.1.09-.39.09-.39a1.33,1.33,0,0,0-.92.21c.05-.09,0-.15-.15-.24s-.11.37-.47.28a1.41,1.41,0,0,1,.19-.42c-.28.13-.55.36-.86.49-.1-.15.16-.28.25-.41-.34.13-.88.3-1,.56l.24.08c-.13,0-.09-.22,0-.28a.26.26,0,0,1,.47.12l-.21.09c.3.53.9-.23,1.35-.26L25,41.2l.41-.41c.12.09.24.31,0,.41.37.14.26-.22.59-.06,0,0,0,0,0,.07l.29-.2c0,.1.13.27-.08.27.64.08.85-.54,1.15-.3l0,0c.75-.38,0-.31.45-.85l.64.57,0-.32c.09,0,.25-.05.27.07.22-.3-.1-.1,0-.35.5.14,1-.54,1.26-.14,0-.28-.42,0-.1-.33.33.42.42-.3.85-.25,0,.29-.36.32.09.37,0-.49.71-.23.93-.49-.16-.32.52-.49.91-.87,0,.15.93-.41,1.41-.61l0,.06c-.15-.36.32-.58.54-.9a.41.41,0,0,1,0,.5,3.08,3.08,0,0,0,.27-.24.6.6,0,0,1,.17-.45l.11.27c.34-.34.5-.86,1-1.17-.17-.2-.82-.16-.53-.73.11.08.3.22.23.39,0-.06,0-.23.16-.27v.35c.26-.13,0-.24.12-.38.14.14.21,0,.3.1s-.19.09-.19.2a1.07,1.07,0,0,1,.66-.27.21.21,0,0,1-.09-.33c.3-.36.28,0,.55-.1,0-.17.27-.32,0-.52.08-.11.21,0,.3,0,0-.28.66-.94.24-.91l0,0v0h0c.26-.77,1-1.28,1.35-2l.08,0a4.22,4.22,0,0,0,.37-1.35c.06-.13.31-.22.39-.12a1.43,1.43,0,0,1,.34-.85c0,.4.19-.06,0,.4.24-.41.43-.46.35-1,.18.25.42-.23.43-.47l-.29.26a3.23,3.23,0,0,1,.25-.66l.27.22c.65-.85-.19-1.86.6-2.44-.19-.3-.24.49-.47.21.11-.43.65-.81.67-.95.27-.6-.37-.64-.19-1.25-.12.07-.44.11-.53-.36.07-.43.52-.51.61-.22,0,.1,0,.15-.08.15s.08.34.21.17l-.11-.07c.13-.21.15-.83.34-.68-.1-.34-.19-.15-.26.1A6.18,6.18,0,0,0,42.43,21c-.06.09-.19.18-.2.09.11-.87-.24-.37-.32-.95.16-.34.44.09.26-.49.1-.37.3-.1.41,0-.24-.53,0-1,0-1.36l.14.28a1.24,1.24,0,0,1-.13-.45l-.21.2c0-.18,0-.32.09-.33-.18-.15-.37.19-.63-.11.08-.24-.22-.64.06-.78,0,.71.3-.14.45.44a.85.85,0,0,1-.06-.42s.07,0,.09.05c.12-.72-.42-.23-.58-.91.19.05.28-.24.22-.34.06.28-.26.2-.45,0,0-.47-.22-.44-.26-.67v.28c-.19,0-.22-.26-.39-.53.12-.06.19.24.21.11-.41-.21,0-.83-.32-1.21,0-.25.3-.14.31-.36-.4-.42,0-.64-.43-1.09-.14.26-.08.25-.46,0l.56.78-.58-.4c.11.25.4.46.42.64-.28-.19-.23-.18-.35,0,.16-.49-.51-.59-.48-1.08l.53-.25c0-.74-.81-.92-1.13-1.73l.05.29c-.26,0-.3-.44-.53-.62.18-.09.15-.28.19-.45-.11.09-.37-.52-.74-.35l0-.47c-.34-.63-.9-.3-1.3-.82.3,0,.2-.31.62-.07-.15-.17-.26-.35-.37-.26,0-.18-.61-.28-.61-.56-.13,0-.3.11-.45-.08,0,0,.07-.07.07-.07s-.37-.18-.37.12c-.09-.88-1.39-1.26-1.56-2-.43-.24-.93-.55-1.3-.78.06,0,.06-.08.12,0-.42-.48-.63.28-1.1-.25-.13-.45.4,0,.28-.17.25-.6-.75-.38-1-.91h.12c-.23-.35-.91-.16-1.41-.45a.11.11,0,0,0,0-.09,5.15,5.15,0,0,1-1.77-.13c.24-.18.28,0,.27-.32-.25-.05-.08.41-.56.31-.11-.18-.4-.43-.37-.69a3.88,3.88,0,0,1,.45.14c-.12-.44-.59-.19-.81-.3l.07-.14c-.72-.14-.83.24-1.57,0l.06.14c-.49.28-.31-.28-.78-.07L24.91,1a12.44,12.44,0,0,1-1.51.25A3.46,3.46,0,0,1,24.69.81c-.27-.05-1-.12-1.11.06.12,0,.27-.1.37,0a2.25,2.25,0,0,1-1.37.35c.14-.76-1.42-.29-1.84-.81a4.19,4.19,0,0,1-1.5.14A9.53,9.53,0,0,0,17.6.65c.52.52-.33.07-.14.65-.25.08-.35.12-.38.08l-.87-.16C16,1.1,16.42,1,16.37.9c-.59.11-.31-.19-.74-.24.14.19-.12.35-.47.36l.54.15c-.71.51-.84-.28-1.54.3l.19-.27c-.38.25-1.53.55-1.69,1.21-.1,0-.26-.14-.11-.26a5.15,5.15,0,0,0-1.37.9A2.8,2.8,0,0,1,10,3.83V3.66c-.14.15-.14.4-.41.43,0-.06,0-.17-.1-.13s-.26.52-.51.6L9,4.3a2.12,2.12,0,0,0-.91.86,5.07,5.07,0,0,1-.59,1c-.28-.33-1,.08-1.3.33l0,0a5.37,5.37,0,0,0-.93,1.29c-.23.44-.37.93-.63,1.4a2.45,2.45,0,0,0-1.11,1.09c-.34.52-.71,1.08-1,1.52.14-.11.29.18.25.37s0,.76-.38.55l0-.08c-.44,0-.59.52-.73.91l.47.26a2.31,2.31,0,0,0-.83,1.67c-.08.63-.13,1.2-.54,1.41a6.12,6.12,0,0,0,.1.86l-.28-.06a6.74,6.74,0,0,0-.3,1.93l-.19-.2c0,.51.78.7.77,1.14l-.43.12a4.71,4.71,0,0,0,.07,2.58.21.21,0,0,1-.21-.16c0,.41-.09,1.61.45,1.38-.37.06.09.89.34,1.31l-.29,0c.45.31.55.3.78.79,0,.14-.19.17-.17,0,0,.46.34.26.33.79l-.22-.13c.09.43.16.37.44.53s.22.8,0,.95a.48.48,0,0,1,.46.42c-.07.07-.16,0-.2,0,.06.77.73.86.69,1.43a.23.23,0,0,0-.12.15,10.07,10.07,0,0,1-.4-.93c-.23.1-.07.56-.56.35.35.28,1,.69,1.11,1.16a.47.47,0,0,1-.06.09l0,0a.39.39,0,0,0,.16.25,1.49,1.49,0,0,0,.14.37c-.16.15.18.53.3.74.23-.17.35.12.4-.25,0,0,0,0-.14-.15l-.08-.07h0l-.32-.49c.22.09.42.19.42.49l.56,0c-.18.48,0,1.13-.15,1.33.57.48,1.09,1.34,1.81,1.3.19.11.05.28,0,.39-.12-.05-.21-.16-.31-.16.37.21.85.86,1.18.67.23.49-.44,0,.09.5H6.78a2.34,2.34,0,0,0,1.47,1.13,2.26,2.26,0,0,1,1.57,1.15c-.06-.11-.09-.16-.07-.22,1.28,1.26,3.19,1.59,4.61,2.63.43.27.56.06.89,0v.33l.59-.2c.38,0,.63.22.92.45a1,1,0,0,0,1.12.28l-.08-.22c.32.09,1,0,1,.26,0,0,.14-.19.25-.07v.16a6.2,6.2,0,0,0,.83-.19c.61.14-.15.62.77.7.36,0,1-.42.86-.53s-.35-.11-.36-.27l.31-.07c.06-.46.27-.93-.42-1.29l-.5.26-.15-.23h.41c-.22-.22-.37,0-.55.08A.37.37,0,0,0,20,40.1l-.51.42c0-.19.24-.34-.06-.48-.25.17.17.44-.22.52-.21-.25-.11-.41-.41-.27,0-.12.05-.19.16-.23-.26.11-.64,0-.81.19-.2-.28-.83-.07-.71-.51a1.2,1.2,0,0,1-.72.19c.53-.41-.81-.24-.54-.75-.44.39-1.08-.16-1.68-.09,0,0,.12-.07.16,0-.27-.14-.3-.3-.44-.45-.19.35-.65.23-1,.33-.18-.5.4-.32.44-.7-.11.3-.71,0-.71.3-.15-.33-.17-.2-.15-.55-.28.41-.28,0-.62.1-.24-.42.13-.45-.32-.56C11.79,37.29,12.21,37.34,12.21,37.34ZM4.38,30.29h0l.11.19ZM4,29.47a2.11,2.11,0,0,0,.16.36c-.08.07-.18.08-.22,0S4,29.62,4,29.47Zm-.79,2.7c-.12-.12-.1-.19-.06-.24l.18.22h0Z"/><path class="cls-3" d="M3.66,32.22s0,0,0,.05v-.12h-.1Z"/><path class="cls-3" d="M38,33.39h0Z"/><polygon class="cls-3" points="3.25 17.24 3.18 17.23 3.22 17.32 3.25 17.24"/><path class="cls-3" d="M33.75,36.53a.13.13,0,0,0-.09,0Z"/><path class="cls-3" d="M31.93,37.76l-.31.08A1.23,1.23,0,0,0,31.93,37.76Z"/><path class="cls-3" d="M30.42,38.49a.33.33,0,0,0,0,.12h0Z"/><path class="cls-3" d="M39.57,15.94l0-.06C39.45,15.76,39.5,15.85,39.57,15.94Z"/><path class="cls-3" d="M40.91,23.72a1.48,1.48,0,0,1-.1-.27C40.77,23.59,40.75,23.69,40.91,23.72Z"/><polygon class="cls-3" points="34.98 8.73 34.99 8.73 34.95 8.69 34.98 8.73"/><path class="cls-3" d="M40.84,23.08a.48.48,0,0,0,0,.37A.78.78,0,0,0,40.84,23.08Z"/><path class="cls-3" d="M23.5,40.47h-.08s0,0,0,0Z"/><path class="cls-3" d="M23.42,40.51l-.09,0C23.38,40.55,23.41,40.55,23.42,40.51Z"/><path class="cls-3" d="M23.15,40.63l.18-.08A.17.17,0,0,0,23.15,40.63Z"/><path class="cls-3" d="M25.7,40.23v-.11A.39.39,0,0,0,25.7,40.23Z"/><path class="cls-3" d="M26.35,40c-.17,0-.44-.11-.64,0v.08C25.77,40,26.24,40.23,26.35,40Z"/><path class="cls-3" d="M29.5,40.3c-.19.06-.4.09-.59.14.14.06.32.15.07.27C29.82,40.74,28.75,40.54,29.5,40.3Z"/><path class="cls-3" d="M31.25,39.63c-.27.19.08.14.09.2C31.48,39.65,31.51,39.6,31.25,39.63Z"/><path class="cls-3" d="M40.31,29.87l.22.13C40.6,29.76,40.44,30,40.31,29.87Z"/><path class="cls-3" d="M40,27.06a1.84,1.84,0,0,1-.22.17l.19.18C39.94,27.29,40,27.18,40,27.06Z"/><polygon class="cls-3" points="42.09 26.07 42.1 26.19 42.11 25.75 42.09 26.07"/><path class="cls-3" d="M34.83,5.19l-.14.29C34.85,5.55,35.11,5.3,34.83,5.19Z"/><path class="cls-3" d="M25.81,1.19a.36.36,0,0,0-.52-.2C25.5,1,25.7,1.19,25.81,1.19Z"/><polygon class="cls-3" points="1.56 14.11 1.53 13.88 1.48 14.27 1.56 14.11"/><g class="cls-4"><rect class="cls-3" x="20.68" y="20.73" width="16.37" height="3.85" transform="translate(-6.01 11.24) rotate(-20)"/><path class="cls-3" d="M51.32,53.77a1.81,1.81,0,0,1-1.07,2.31L34.42,61.84a1.8,1.8,0,0,1-2.31-1.08L21.29,31,40.5,24Z"/><path class="cls-3" d="M21.47,12.58,28,10.2a1.8,1.8,0,0,1,2.31,1.08L32,15.9l-9.92,3.6-1.68-4.61A1.8,1.8,0,0,1,21.47,12.58Z"/><rect class="cls-3" x="16.18" y="17.07" width="4.98" height="0.95" transform="translate(-4.88 7.44) rotate(-20)"/><rect class="cls-3" x="11.45" y="19.5" width="3.58" height="0.6" transform="matrix(0.94, -0.34, 0.34, 0.94, -5.97, 5.72)"/><rect class="cls-3" x="9.01" y="18.31" width="5.81" height="0.55" transform="translate(-3.89 3.17) rotate(-13.06)"/><rect class="cls-3" x="10.33" y="21.25" width="5.81" height="0.62" transform="translate(-8.62 8.82) rotate(-28.22)"/></g><rect class="cls-1" x="2.36" y="2.35" width="38.21" height="38.21" rx="19.11" ry="19.11" transform="translate(48.98 34.27) rotate(160)"/></svg>