<svg id="Livello_1" data-name="Livello 1" xmlns="http://www.w3.org/2000/svg" xmlns:xlink="http://www.w3.org/1999/xlink" viewBox="0 0 42.94 42.91"><defs><style>.cls-1{fill:none;stroke:#fff;stroke-miterlimit:10;stroke-width:0.99px;}.cls-2{clip-path:url(#clip-path);}.cls-3{fill:#fff;}.cls-4{fill:#f8f8f8;}.cls-5{fill:#f9f9f9;}</style><clipPath id="clip-path"><rect class="cls-1" x="2.36" y="-44.65" width="38.21" height="38.21" rx="19.11" ry="19.11" transform="translate(32.91 -56.89) rotate(160)"/></clipPath></defs><title>Tavola disegno 13 copia 2</title><g class="cls-2"><path class="cls-3" d="M51.32,6.77a1.81,1.81,0,0,1-1.07,2.31L34.42,14.84a1.8,1.8,0,0,1-2.31-1.08L21.29-16,40.5-23Z"/></g><rect class="cls-1" x="2.36" y="-44.65" width="38.21" height="38.21" rx="19.11" ry="19.11" transform="translate(32.91 -56.89) rotate(160)"/><circle class="cls-4" cx="21.85" cy="22.46" r="17.6"/><path class="cls-5" d="M21.85,38.06c-.06.25,0,.84.12.72l.09-1Z"/><path class="cls-5" d="M22.92,39.84A4.68,4.68,0,0,0,23,37.59c-.1,1-.16.57-.29,1.71-.15.13-.28-.3-.27-.67,0,.26-.23-.2-.3.42.21.76.49.78.72.13A2.14,2.14,0,0,1,22.92,39.84Z"/><path class="cls-5" d="M37.31,33.46l-.16,0A.26.26,0,0,0,37.31,33.46Z"/><path class="cls-5" d="M41.32,23.75a.21.21,0,0,0,.2.13C41.46,23.8,41.41,23.74,41.32,23.75Z"/><path class="cls-5" d="M42.45,21.88a.67.67,0,0,0-.06.12C42.48,22,42.53,21.91,42.45,21.88Z"/><path class="cls-5" d="M37.31,33.46l.42-.05C37.48,33.21,37.45,33.39,37.31,33.46Z"/><path class="cls-5" d="M24.6,37.24a.93.93,0,0,0-.07.27.4.4,0,0,1,.1-.12Z"/><path class="cls-5" d="M34.73,37.47l-.07.06.21.36Z"/><path class="cls-5" d="M31.79,39.73c.09,0-.31-.75-.47-1.09a1,1,0,0,1,.14.59C31.54,39.37,31.65,39.53,31.79,39.73Z"/><path class="cls-5" d="M26,40.44l-.07.13S26,40.49,26,40.44Z"/><path class="cls-5" d="M36.74,35.74a1.58,1.58,0,0,0,.25.17A1,1,0,0,0,36.74,35.74Z"/><path class="cls-5" d="M18.92,35.77a.83.83,0,0,0,0,.15C18.92,35.84,18.93,35.78,18.92,35.77Z"/><path class="cls-5" d="M21.85,40.27l-.06,0c0,.16,0,.32,0,.48Z"/><path class="cls-5" d="M17.39,1.85c.51.65-.36,1.09.34,1.77C17.6,3.32,17.94,2.22,17.39,1.85Z"/><path class="cls-5" d="M24.7,37.33l.11,0C24.75,37.29,24.72,37.3,24.7,37.33Z"/><path class="cls-5" d="M17.73,3.62h0l.07.07Z"/><path class="cls-5" d="M39.37,10.52a2.16,2.16,0,0,0-.26.28A1.22,1.22,0,0,0,39.37,10.52Z"/><path class="cls-5" d="M41,16.51l.06-.17A.25.25,0,0,0,41,16.51Z"/><path class="cls-5" d="M36.45,8.8c0-.1.06-.2-.09-.2a.2.2,0,0,0,0,.09C36.42,8.64,36.49,8.64,36.45,8.8Z"/><path class="cls-5" d="M34.09,6.65a1.62,1.62,0,0,1-.06.17l.11,0Z"/><path class="cls-5" d="M12.78,33.17c-.12.21-.26.43-.41.65C12.73,33.34,13.11,33.4,12.78,33.17Z"/><path class="cls-5" d="M24.69,37.7a.77.77,0,0,1,0-.37l-.07.06A1.13,1.13,0,0,0,24.69,37.7Z"/><path class="cls-5" d="M31.54,13.28l-.14-.34A.52.52,0,0,0,31.54,13.28Z"/><path class="cls-5" d="M8.25,18.54l.07.11S8.33,18.59,8.25,18.54Z"/><path class="cls-5" d="M30.56,12.35a1.8,1.8,0,0,0,.24-.58,1,1,0,0,0-.17.14Z"/><path class="cls-5" d="M12.36,33.83h0Z"/><path class="cls-5" d="M15.41,33.51c-.25-.18-.69.85-1.08,1.36-.52.05.27-.79.46-1.34-.36.14-1.1.87-1.23.71a1.57,1.57,0,0,1,.27-.4c-.73.55-.65-.43-1.61.23a.89.89,0,0,1,.14-.24,13.07,13.07,0,0,1-.93,1.2c-.14-.1-.7.31-.28-.28.07.08.27-.13.45-.27l-.34.12c.57-.9.42-.11.91-.7-.45,0-1.34.4-1.35,0,.67-.77.69.16,1.06-.73l0,.55c.86-1.4.1.23,1-1.23-.13-.53-.76,0-.87-.52-.48.31-.58.61-1.06.92-1.26.12,1.53-2.13.17-1.6-.61.34-1.64,1.09-1.34.35l1-.6c-.18-.44-1.49.77-1.18-.1.43-.19.55.08.61-.06.55-.78-.67.2-.83,0l.82-.62c-.37-.34-1.34-.42-1.77-.88a1.84,1.84,0,0,0,.83-.43,1.06,1.06,0,0,1-.53-1,4.11,4.11,0,0,1,.37-1.27l-.92,0c0-.06.35-.22.52-.21.26-.35-.53.15-.9.13-.09-.14.44-.34.72-.32-.83-.21-1.92-1-1-1.64l.27,0c.3-.42-1.86-.2-1.1-.68l.16.06c.32-.89-.54-1.91.86-2.5-1.26-.22.6-.77-1.13-1,1-.39,1.24-.2,1.92-.75.09-.15-1-.47-1.16-.74l.91.2-.87-.52,1.11.12-.18-.26a1.19,1.19,0,0,1-.7,0c-.32-.46.83-.61,1.3-.45-.17-.31-.32-.63-.48-1a1.75,1.75,0,0,1,.61.49c-.75-.72.93.29.24-.37A2.93,2.93,0,0,1,8.62,17c.57,0,.78-.32.69-.7l.55.33c.35-.42.27-1.14.6-1.67-.36,0-1.27-.61-1.25-.84l.85.47c-.44-.44-.41,0-.89-.66.24-.15,1,.49,1.2.78l-.11-.42a7.4,7.4,0,0,1,.63.52c-.42-.45,1.07.21.32-.55l.24.16c.34-.48.32-.86.6-1.28-.6-.59-.33-.61-.71-1.21.5-.08,1.26.13,1.54-.23,0-.54-.38-.62-.58-1.1.51.58.83.25,1,.83A3.12,3.12,0,0,0,14,10c-.24-.23-.39-.3-.49-.54.05-.18.44.11.61.43V10c0-.7.76-.5,1.38-.21s1.11.48,1.11-.34v.08c.1-.33.21-.66.33-1,.33,0,0,.61.38,1,.11-.74.41-.78.69-.74s.54.13.73-.37c.46,1,.8,1,1.17.77a1.77,1.77,0,0,1,.57-.25c.19,0,.38.12.54.47L21,8.84c.12-.53.2.3.31.41,0-.41-.18-.47-.1-.76a1.92,1.92,0,0,1,2,.24,8.58,8.58,0,0,1,.9.69l.42.33a3.14,3.14,0,0,0,.4.34c.38.24,1-2.6,1.22-1.23l-.45.91a1.39,1.39,0,0,1,1.54,0,1.66,1.66,0,0,0,1.52.27c-.16.17-.31.43-.39.39-.17.72.6.4.92-.09.1.13-.24.47-.32.77-.07.46.93-.52.62.14a.5.5,0,0,1-.24.19c.3-.21.42.43.81-.32,0,.54.8.12.71.69.74-.57.15.75,1.08-.18-.93,1-.27,1.2.33,1-.35.22-.17.44-.65.76.18.17.53.17,1-.32-.45.72,0,.66.3.68s.63,0-.13.77a5.85,5.85,0,0,1,.75.16,6.26,6.26,0,0,1,.65.25,4.47,4.47,0,0,1,1.09.67c-1.18.6-.51-.65-1.73.09.84.24,2,.14,2,.91-.09.23-.58.14-.82.18.42.18.48.52.59.82a1.14,1.14,0,0,0,.66.77.85.85,0,0,1-.39,0c.07.1-.12.32.47.14l-.19-.07c.8-.46,1.92,0,2.38-.09-1.76.22-.26.75-2.51.92a1.47,1.47,0,0,0,.84,0c-.09.14-.32.23-.8.21.44.34,1,.08,1.08.48a6.44,6.44,0,0,1-.77,0c.6.09,1.2.22,1,.6-.18,0-.41.07-.42,0,.2.54,1.63.88,1.12,1.61-1.31-.16-.42.24-1.53.28a3.51,3.51,0,0,1,.33.34l.55-.14c0,.3.76.62.38.87l-.45-.25.19.59.44-.3c.56.36,1.41,0,1.08.48-.11-.1,0,.35-.72.44h0c.33.2.67.43.36.64-.36,0-1.22-.24-1.46-.23.9.29.16.76,1.09,1.16a3.24,3.24,0,0,0-.91-.24l.71.29a1.21,1.21,0,0,1-.85,0c-.25.39,1.42.18.69.56,0-.05-.17-.06-.26-.17-.44.42.22,1.15-.33,1.5C36,27.57,37,27.32,36,27.17a4.51,4.51,0,0,0,.31,1.23,1.07,1.07,0,0,1-.11,1.11l.17-.06c1.38.79-.92.12-.41.76a2.25,2.25,0,0,0-.58-.42c-.46.26-.12,1-.11,1.88l-.28-.3c-.47,0-.61.46-.93.58.27.32.11.42.64.7-1.17-.34-1.23.12-1.25.69s-.06,1.17-1,.73c.06-.07-.08-.41-.14-.36l-.25.74c.49.48.34.25.81.56.2.37.25.75.11.88-.05-.58-.71-.84-1.07-1.07.16.15.27.36.41.52-1.07-.73.82,1.13-.12.8l-.2-.31c0,.27.09.77-.14.82-.54-.61-.05-.44-.43-1-.19.2.4,1.61-.28,1.08,0-.25.14-.35.11-.61-.76-.6-.66-.41-.91-.42h0l-.63-.12.24.16c.76,2-.4.73-.21,2.13-.16-1.36-.28-.69-.66-1.52-.23-.17-.52-.35-.59-.6.13.75-.55-.37-.37.73-.14-.26-.22.08-.47-.62-.15.34.26.44.39.79,0,.56-.38.36-.73.22s-.68-.24-.77.52c-.36.69-.21,1.66-.65,2.28a1.45,1.45,0,0,1-.1-1.07c-.39-.35-.56-.2-.77.17a1.87,1.87,0,0,0-.24-.78c-.19.11.05,1.07-.31.69a11.83,11.83,0,0,1,0-1.19c-.19.3-.35.88-.58,1.18A2.51,2.51,0,0,1,24,37.56a1.86,1.86,0,0,0-.69,1.37l.23.27c-.11,0-.13-.68-.06-.84.17-.66.38.23.44.51l-.17.22c.42,1.67.76-.39,1.13-.35L25,40q.12-.54.21-1.08c.15.31.36,1,.19,1.2.42.54.16-.5.56.11a.24.24,0,0,1,0,.22l.21-.44c0,.27.26.84,0,.72.73.55.61-1.13,1.07-.27l0,.09c.6-.63-.18-.9,0-2.09.35.67.72,1.34,1.1,2l-.25-.89c.09,0,.25,0,.36.37,0-.68-.19-.35-.25-1,.67.66.76-.73,1.43.56-.17-.69-.54-.34-.39-1,.77,1.38.29-.43.9.07.28.77-.22.53.43,1-.44-1.3.75,0,.89-.44-.53-.95.32-.72.55-1.28.18.34,1.08,0,1.7,0l.1.15c-.6-.94-.08-1,0-1.44a2,2,0,0,1,.58,1.11,2.73,2.73,0,0,0,.25-.23,1,1,0,0,1-.14-.77l.48.67c.32-.35,0-1.3.8-1.32-.54-.55-1.8-1.2-1.81-2,.32.28.84.75.87,1,0-.08-.14-.37.06-.32l.35.66c.39,0-.34-.5-.16-.6.43.4.41.18.74.52,0,.07-.3,0-.19.18a1.35,1.35,0,0,1,1.08.16c-.26-.21-.59-.54-.54-.71.27-.35.64.35,1,.35-.23-.34.27-.3-.41-.86.08-.1.41.14.63.24-.16-.42.57-.94-.35-1.28H37a.09.09,0,0,1,0-.05h0c-.28-1.06,1.23-1,1.31-1.82l.26.15c-.07-.54.26-1-.18-1.52,0-.11.62,0,.92.16-.06-.4-.33-.55.28-.82.36.52.47.06.23.47.39-.31.87-.25.28-1,.65.42,1,0,.88-.28l-.63.13a.89.89,0,0,1,.25-.62l.91.41c.73-.28.33-.88,0-1.36s-.5-.88.54-1.05c-.65-.37-.56.42-1.33,0,.19-.37,1.68-.58,1.7-.73.64-.54-1.34-.75-.91-1.3-.36.05-1.31,0-1.62-.43.15-.37,1.51-.41,1.78-.12,0,.11-.09.15-.21.13a.51.51,0,0,0,.66.21L41.83,24c.37-.18.37-.79.94-.62-.32-.36-.57-.17-.77.06.53-.54.08-.86.39-1.44-.19.09-.61.18-.61.09.4-.84-.69-.34-.87-.87.52-.34,1.29,0,.81-.5.35-.38.94-.17,1.23,0-.69-.48.33-1.06.41-1.41l.33.26a.6.6,0,0,1-.23-.45l-.68.27c.1-.18.08-.33.37-.37-.48-.1-1.15.31-1.83.09.32-.27-.47-.56.43-.82-.19.74.92-.27,1.17.3-.13-.1-.15-.24-.05-.43a.24.24,0,0,1,.25,0c.67-.86-1.12-.09-1.26-.76.54,0,.94-.41.8-.49.06.28-.83.35-1.29.22.29-.54-.41-.37-.42-.6l-.12.3c-.53.07-.52-.15-.78-.36.39-.16.36.15.5,0-1,0,.66-1-.09-1.23.26-.34.92-.39,1.08-.66-.82-.25.44-.84-.32-1.14-.58.45-.42.39-1.21.34l.85.62c-.41,0-.81-.08-1.2-.1.1.24.66.32.6.52-.64,0-.47-.06-1,.28.83-.75-.87-.36-.39-1l1.6-.77c.2-.47-.12-.65-.51-.8s-.85-.27-.88-.74l-.12.39c-.66.27-.35-.39-.73-.46a2.51,2.51,0,0,0,.84-.87c-.35.26-.34-.54-1.34.1l.4-.77c-.17-.75-1.77.43-2-.14.62-.28.74-.77,1.38-.75-.14-.17-.19-.38-.5-.12.18-.34-1,.1-.71-.43-.25.12-.72.52-.84.32a1.06,1.06,0,0,1,.21-.2c-.21.19-.54,0-.86.62.43-.86.06-1.15-.3-1.39s-.74-.43-.49-1.22a6.2,6.2,0,0,1-1.4-.5c.12-.13.16-.24.2-.15-.2-.76-1.23,1.24-1.43.4.22-1,.56-.26.57-.68.92-1.71-.8-.2-.64-1.38l.15-.06c0-.74-1.11.28-1.53-.07a1.24,1.24,0,0,0,.12-.27A3.36,3.36,0,0,1,28,5c.4-.66.36-.29.52-1.06-.25,0-.36,1.19-.84,1.25a5,5,0,0,1,0-1.71,3.15,3.15,0,0,1,.44.11c.11-1.11-.57-.16-.75-.39l.16-.44c-.74,0-1,1.11-1.71.85V4c-.6,1.06-.19-.7-.74.09l.09-1.19A9.35,9.35,0,0,1,23.6,4,5,5,0,0,1,25,2.36c-.27,0-.93,0-1.12.51.11-.1.28-.37.36-.17C23.79,3.56,23.36,4,22.86,4c.2-2.29-1.3-.67-1.73-2.38a1.4,1.4,0,0,1-1.48.24A3.44,3.44,0,0,0,18,1.69c.72,1.7-.32.11.1,1.89-.22.16-.31.17-.36,0-.32-.29-.65-.59-1-.87-.32-.47.14-.46,0-.85-.62,0-.44-.69-1-1.06.26.61.05,1-.35.81l.7.69c-.5,1.13-1.15-1.26-1.66-.06l.06-.64c-.3.47-1.58.57-1.33,2.12-.15-.16-.46-.57-.34-.77-.52.13-.88.71-1.19,1.25s-.61,1-1.19.81l-.18-.42c-.09.22.18.87-.26.64-.09-.16-.19-.41-.28-.38,0,.19.05.94-.3.88l-.13-.54c-.58.07-.71.55-.73,1.09a4.53,4.53,0,0,1-.08,1.56,1.89,1.89,0,0,0-2.21-.61l-.12-.14a2.13,2.13,0,0,0-.67,1.55,18.31,18.31,0,0,1-.07,1.83,1.47,1.47,0,0,0-1.61.71,4.85,4.85,0,0,1-1.32,1.39c.28,0,.9.49.94.71-.35.12.53,1-.55.46L3,13.72c-1.15-.33-1.12.29-1.28.67L3.14,15c-1.24.06-1.32.81-1.26,1.48s.21,1.26-.87,1.32c.31.33.26.64.61,1l-.83-.16A2.86,2.86,0,0,0,.4,20.58l-.59-.24c-.09.52,2.41.82,2.44,1.24L1,21.66c0,.82-1.07,1.78.11,2.55-.19,0-.55,0-.61-.13,0,.4-.67,1.71,1,1.31-1.12.17,0,.91.59,1.22l-.83.11c1.14.15,1.42.09,1.84.51-.08.14-.63.27-.46.06-.32.51.84.1.54.69l-.56,0c0,.43.3.32,1,.34.41.13.06.79-.62,1.11.45-.1,1.1-.11,1,.19a.85.85,0,0,1-.54.11c-.3.9,1.31.55.75,1.33a1.43,1.43,0,0,0-.41.29c-.23-.52-.38-.95-.31-.93-.71.3-.62.79-1.77.87.72.15,2.13.17,2,.73a1.37,1.37,0,0,1-.21.18h-.1c0,.13.09.18.24.2,0,.19-.07.31,0,.44-.53.36,0,.65.08.87.71-.46.75-.13,1.2-.74,0,.06-.11,0-.22-.1s-.07,0-.12,0l.07,0a4,4,0,0,1-.34-.45c.46-.06.86-.09.59.36l1.32-.45c-.86.86-1.06,1.74-1.59,2.21.82.3,1.26,1.22,2.77.48.28,0-.2.45-.33.67-.2,0-.27-.09-.49,0,.57,0,.91.77,1.76.06,0,.7-.92.52-.32.87l-.3.18c-.12,1.09.8,1,1.61.84s1.6-.32,1.53,1a.76.76,0,0,1,.08-.42A2.87,2.87,0,0,0,13,39.55a2.85,2.85,0,0,1,2.08,1.5c.33.46.62-.19,1-.61l-.18.9c.26-.28.51-.58.76-.87.42-.29.54.31.74.85s.48,1,1,.35v-.62c.29.16,1-.21.86.48,0-.11.17-.62.25-.28l-.05.47a9.56,9.56,0,0,0,.83-.74c.55.37-.25,1.87.65,2a2.38,2.38,0,0,0,.84-1.66c-.13,0-.32-.31-.32-.78l.27-.24a8.26,8.26,0,0,0-.3-3.82c-.13.28-.27.56-.41.84L21,36.64l.31,0c-.15-.65-.28-.09-.43.29a2.29,2.29,0,0,0-.1-.75c-.15.43-.32.87-.49,1.31,0-.55.27-1.06.07-1.39-.24.59,0,1.24-.3,1.6-.12-.66,0-1.16-.27-.66a1.35,1.35,0,0,1,.2-.72c-.24.4-.5.1-.73.82,0-.79-.68.1-.38-1.2-.11.29-.54.93-.73.93.7-1.45-.6-.25,0-1.85-.63,1.32-.93.33-1.59,1,.07-.1.19-.3.2-.22-.17-.19-.07-.61-.1-.9-.47,1.07-.91,1.16-1.41,1.72.23-1.15.75-1.17,1.13-2.2-.39.88-.84.66-1.11,1.41a3.42,3.42,0,0,1,.34-1.3c-.72,1.29-.29.15-.88.84.09-.8.62-1.24.11-1A1.39,1.39,0,0,1,15.41,33.51Zm-7.19-4h0l.12.14Zm-.33-.65a.85.85,0,0,0,.11.3c-.25.15-.53.25-.55.18C7.64,29.28,7.71,29.05,7.89,28.85ZM3.57,33.17c-.19-.07-.07-.2.06-.31a1.66,1.66,0,0,0,.23.19L4,33A2.3,2.3,0,0,1,3.57,33.17Z"/><path class="cls-5" d="M4.66,32.84l.09,0,.11-.18-.25.09Z"/><path class="cls-5" d="M37.12,33.48h0l-.12,0Z"/><polygon class="cls-5" points="8.46 19.36 8.26 19.31 8.42 19.41 8.46 19.36"/><path class="cls-5" d="M31.92,34.82a.59.59,0,0,0-.18-.13A.93.93,0,0,0,31.92,34.82Z"/><path class="cls-5" d="M30.36,35.72,30,35.59A1.19,1.19,0,0,0,30.36,35.72Z"/><path class="cls-5" d="M29,36a2.1,2.1,0,0,0,.15.33h0Z"/><path class="cls-5" d="M35.58,18.27a.07.07,0,0,0,0,0C35.35,18.17,35.43,18.23,35.58,18.27Z"/><path class="cls-5" d="M38.06,24.34a2.45,2.45,0,0,1-.36-.25C37.61,24.2,37.58,24.28,38.06,24.34Z"/><path class="cls-5" d="M31.55,13.32h0l0,0Z"/><path class="cls-5" d="M37.72,23.78c-.17.11-.14.21,0,.31C37.76,24,37.85,23.89,37.72,23.78Z"/><path class="cls-5" d="M23.44,37.34l-.06,0a.65.65,0,0,1,0,.14Z"/><path class="cls-5" d="M23.38,37.45l-.06.1S23.38,37.54,23.38,37.45Z"/><path class="cls-5" d="M23.19,37.77l.13-.22C23.27,37.55,23.21,37.52,23.19,37.77Z"/><path class="cls-5" d="M25.23,37.43l-.05-.31A1.73,1.73,0,0,0,25.23,37.43Z"/><path class="cls-5" d="M25.72,37.21c-.14,0-.46-.56-.58-.33l0,.24C25.15,36.66,25.73,37.74,25.72,37.21Z"/><path class="cls-5" d="M29.32,40c-.21,0-.41,0-.61,0,.2.27.49.63.28.8C30,41.39,28.58,40.13,29.32,40Z"/><path class="cls-5" d="M31.1,39.65c-.21.26.23.41.3.58C31.44,39.87,31.44,39.78,31.1,39.65Z"/><path class="cls-5" d="M39.67,30.41l.68.35C40.36,30.49,40.08,30.63,39.67,30.41Z"/><path class="cls-5" d="M36.73,27l-.5,0,.64.3A2.33,2.33,0,0,0,36.73,27Z"/><polygon class="cls-5" points="42.36 27.04 42.44 27.18 42.27 26.7 42.36 27.04"/><path class="cls-5" d="M35,6.42l-.54.78C34.7,7.18,35.42,6.39,35,6.42Z"/><path class="cls-5" d="M26,3.11c0-.5-.21-.84-.46-.41C25.73,2.8,25.87,3.2,26,3.11Z"/><polygon class="cls-5" points="1.85 15.08 1.63 14.77 1.74 15.23 1.85 15.08"/></svg>